<svg xmlns="http://www.w3.org/2000/svg" xmlns:xlink="http://www.w3.org/1999/xlink" width="500" zoomAndPan="magnify" viewBox="0 0 375 374.999991" height="500" preserveAspectRatio="xMidYMid meet" version="1.0"><defs><clipPath id="2afc585bfb"><path d="M 129 223 L 246 223 L 246 365.796875 L 129 365.796875 Z M 129 223 " clip-rule="nonzero"/></clipPath></defs><g clip-path="url(#2afc585bfb)"><path fill="#000000" d="M 245.503906 294.507812 C 245.503906 295.675781 245.480469 296.839844 245.433594 298.003906 C 245.386719 299.167969 245.316406 300.328125 245.226562 301.488281 C 245.132812 302.648438 245.015625 303.804688 244.875 304.957031 C 244.738281 306.109375 244.574219 307.257812 244.390625 308.402344 C 244.203125 309.546875 243.996094 310.683594 243.765625 311.8125 C 243.535156 312.945312 243.28125 314.066406 243.007812 315.183594 C 242.730469 316.296875 242.433594 317.402344 242.113281 318.5 C 241.792969 319.597656 241.453125 320.6875 241.089844 321.761719 C 240.726562 322.839844 240.339844 323.90625 239.933594 324.957031 C 239.527344 326.011719 239.101562 327.054688 238.65625 328.082031 C 238.207031 329.109375 237.738281 330.121094 237.25 331.121094 C 236.765625 332.121094 236.257812 333.105469 235.730469 334.074219 C 235.203125 335.042969 234.65625 335.996094 234.089844 336.933594 C 233.523438 337.871094 232.941406 338.789062 232.335938 339.6875 C 231.734375 340.589844 231.117188 341.472656 230.476562 342.335938 C 229.839844 343.199219 229.1875 344.042969 228.515625 344.867188 C 227.84375 345.691406 227.15625 346.496094 226.453125 347.277344 C 225.75 348.0625 225.03125 348.820312 224.296875 349.5625 C 223.5625 350.300781 222.816406 351.019531 222.054688 351.710938 C 221.289062 352.40625 220.515625 353.078125 219.726562 353.726562 C 218.9375 354.371094 218.132812 354.996094 217.320312 355.59375 C 216.507812 356.195312 215.679688 356.769531 214.84375 357.316406 C 214.003906 357.867188 213.15625 358.390625 212.300781 358.890625 C 211.441406 359.386719 210.574219 359.859375 209.699219 360.304688 C 208.820312 360.753906 207.933594 361.171875 207.042969 361.566406 C 206.148438 361.957031 205.246094 362.324219 204.335938 362.660156 C 203.429688 363 202.515625 363.308594 201.59375 363.59375 C 200.671875 363.875 199.746094 364.132812 198.816406 364.359375 C 197.886719 364.585938 196.949219 364.785156 196.011719 364.957031 C 195.070312 365.128906 194.128906 365.269531 193.183594 365.382812 C 192.242188 365.5 191.292969 365.585938 190.347656 365.640625 C 189.398438 365.699219 188.449219 365.726562 187.5 365.726562 C 186.550781 365.726562 185.601562 365.699219 184.652344 365.640625 C 183.707031 365.585938 182.757812 365.5 181.816406 365.382812 C 180.871094 365.269531 179.929688 365.128906 178.988281 364.957031 C 178.050781 364.785156 177.113281 364.585938 176.183594 364.359375 C 175.253906 364.132812 174.328125 363.875 173.40625 363.59375 C 172.484375 363.308594 171.570312 363 170.664062 362.660156 C 169.753906 362.324219 168.851562 361.957031 167.960938 361.566406 C 167.066406 361.171875 166.179688 360.753906 165.304688 360.304688 C 164.425781 359.859375 163.558594 359.386719 162.699219 358.890625 C 161.84375 358.390625 160.996094 357.867188 160.15625 357.316406 C 159.320312 356.769531 158.496094 356.195312 157.679688 355.59375 C 156.867188 354.996094 156.0625 354.371094 155.273438 353.726562 C 154.484375 353.078125 153.710938 352.40625 152.945312 351.710938 C 152.183594 351.019531 151.4375 350.300781 150.703125 349.5625 C 149.96875 348.820312 149.25 348.0625 148.546875 347.277344 C 147.84375 346.496094 147.15625 345.691406 146.484375 344.867188 C 145.8125 344.042969 145.160156 343.199219 144.523438 342.335938 C 143.882812 341.472656 143.265625 340.589844 142.664062 339.6875 C 142.058594 338.789062 141.476562 337.871094 140.910156 336.933594 C 140.34375 335.996094 139.800781 335.042969 139.273438 334.074219 C 138.742188 333.105469 138.238281 332.121094 137.75 331.121094 C 137.261719 330.121094 136.792969 329.109375 136.34375 328.082031 C 135.898438 327.054688 135.472656 326.011719 135.066406 324.957031 C 134.660156 323.90625 134.273438 322.839844 133.910156 321.761719 C 133.546875 320.6875 133.207031 319.597656 132.886719 318.5 C 132.566406 317.402344 132.269531 316.296875 131.992188 315.183594 C 131.71875 314.066406 131.464844 312.945312 131.234375 311.8125 C 131.003906 310.683594 130.796875 309.546875 130.609375 308.402344 C 130.425781 307.257812 130.261719 306.109375 130.125 304.957031 C 129.984375 303.804688 129.867188 302.648438 129.773438 301.488281 C 129.683594 300.328125 129.613281 299.167969 129.566406 298.003906 C 129.519531 296.839844 129.496094 295.675781 129.496094 294.507812 C 129.496094 293.34375 129.519531 292.179688 129.566406 291.015625 C 129.613281 289.847656 129.683594 288.6875 129.773438 287.527344 C 129.867188 286.367188 129.984375 285.210938 130.125 284.058594 C 130.261719 282.90625 130.425781 281.757812 130.609375 280.613281 C 130.796875 279.472656 131.003906 278.335938 131.234375 277.203125 C 131.464844 276.074219 131.71875 274.949219 131.992188 273.835938 C 132.269531 272.71875 132.566406 271.613281 132.886719 270.515625 C 133.207031 269.417969 133.546875 268.332031 133.910156 267.253906 C 134.273438 266.175781 134.660156 265.113281 135.066406 264.058594 C 135.472656 263.003906 135.898438 261.964844 136.34375 260.9375 C 136.792969 259.90625 137.261719 258.894531 137.75 257.894531 C 138.238281 256.894531 138.742188 255.910156 139.269531 254.941406 C 139.800781 253.972656 140.34375 253.019531 140.910156 252.082031 C 141.476562 251.148438 142.058594 250.226562 142.664062 249.328125 C 143.265625 248.425781 143.882812 247.542969 144.523438 246.679688 C 145.160156 245.816406 145.8125 244.972656 146.484375 244.148438 C 147.15625 243.324219 147.84375 242.519531 148.546875 241.738281 C 149.25 240.957031 149.96875 240.195312 150.703125 239.453125 C 151.4375 238.714844 152.183594 238 152.945312 237.304688 C 153.710938 236.609375 154.484375 235.9375 155.273438 235.292969 C 156.0625 234.644531 156.867188 234.019531 157.679688 233.421875 C 158.496094 232.820312 159.320312 232.246094 160.15625 231.699219 C 160.996094 231.148438 161.84375 230.625 162.699219 230.125 C 163.558594 229.628906 164.425781 229.15625 165.304688 228.710938 C 166.179688 228.265625 167.066406 227.84375 167.960938 227.453125 C 168.851562 227.058594 169.753906 226.695312 170.664062 226.355469 C 171.570312 226.015625 172.484375 225.707031 173.40625 225.421875 C 174.328125 225.140625 175.253906 224.882812 176.183594 224.65625 C 177.113281 224.429688 178.050781 224.230469 178.988281 224.058594 C 179.929688 223.890625 180.871094 223.746094 181.816406 223.632812 C 182.757812 223.515625 183.707031 223.433594 184.652344 223.375 C 185.601562 223.316406 186.550781 223.289062 187.5 223.289062 C 188.449219 223.289062 189.398438 223.316406 190.347656 223.375 C 191.292969 223.433594 192.242188 223.515625 193.183594 223.632812 C 194.128906 223.746094 195.070312 223.890625 196.011719 224.058594 C 196.949219 224.230469 197.886719 224.429688 198.816406 224.65625 C 199.746094 224.882812 200.671875 225.140625 201.59375 225.421875 C 202.515625 225.707031 203.429688 226.015625 204.335938 226.355469 C 205.246094 226.695312 206.148438 227.058594 207.042969 227.453125 C 207.933594 227.84375 208.820312 228.265625 209.695312 228.710938 C 210.574219 229.15625 211.441406 229.628906 212.300781 230.125 C 213.15625 230.625 214.003906 231.148438 214.84375 231.699219 C 215.679688 232.246094 216.507812 232.820312 217.320312 233.421875 C 218.132812 234.019531 218.9375 234.644531 219.726562 235.292969 C 220.515625 235.9375 221.289062 236.609375 222.054688 237.304688 C 222.816406 238 223.5625 238.714844 224.296875 239.453125 C 225.03125 240.195312 225.75 240.957031 226.453125 241.738281 C 227.15625 242.519531 227.84375 243.324219 228.515625 244.148438 C 229.1875 244.972656 229.839844 245.816406 230.476562 246.679688 C 231.117188 247.542969 231.734375 248.425781 232.335938 249.328125 C 232.941406 250.226562 233.523438 251.148438 234.089844 252.082031 C 234.65625 253.019531 235.203125 253.972656 235.730469 254.941406 C 236.257812 255.910156 236.765625 256.894531 237.25 257.894531 C 237.738281 258.894531 238.207031 259.90625 238.65625 260.9375 C 239.101562 261.964844 239.527344 263.003906 239.933594 264.058594 C 240.339844 265.113281 240.726562 266.175781 241.089844 267.253906 C 241.453125 268.332031 241.792969 269.417969 242.113281 270.515625 C 242.433594 271.613281 242.730469 272.71875 243.007812 273.835938 C 243.28125 274.949219 243.535156 276.074219 243.765625 277.203125 C 243.996094 278.335938 244.203125 279.472656 244.390625 280.613281 C 244.574219 281.757812 244.738281 282.90625 244.875 284.058594 C 245.015625 285.210938 245.132812 286.367188 245.226562 287.527344 C 245.316406 288.6875 245.386719 289.847656 245.433594 291.015625 C 245.480469 292.179688 245.503906 293.34375 245.503906 294.507812 Z M 245.503906 294.507812 " fill-opacity="1" fill-rule="nonzero"/></g><path fill="#000000" d="M 68.089844 165.515625 C 69.195312 165.15625 70.3125 164.816406 71.429688 164.503906 C 72.550781 164.1875 73.675781 163.894531 74.808594 163.625 C 75.9375 163.355469 77.074219 163.109375 78.210938 162.882812 C 79.351562 162.660156 80.492188 162.460938 81.636719 162.28125 C 82.777344 162.105469 83.921875 161.953125 85.070312 161.824219 C 86.214844 161.691406 87.359375 161.585938 88.503906 161.503906 C 89.648438 161.421875 90.792969 161.363281 91.933594 161.328125 C 93.074219 161.292969 94.214844 161.285156 95.351562 161.296875 C 96.484375 161.308594 97.617188 161.347656 98.742188 161.40625 C 99.871094 161.46875 100.988281 161.554688 102.105469 161.660156 C 103.21875 161.769531 104.328125 161.902344 105.429688 162.058594 C 106.53125 162.214844 107.621094 162.394531 108.707031 162.59375 C 109.789062 162.796875 110.863281 163.023438 111.925781 163.273438 C 112.992188 163.523438 114.046875 163.792969 115.085938 164.089844 C 116.128906 164.382812 117.160156 164.703125 118.175781 165.042969 C 119.195312 165.382812 120.199219 165.742188 121.1875 166.128906 C 122.179688 166.511719 123.15625 166.917969 124.117188 167.347656 C 125.078125 167.773438 126.023438 168.222656 126.953125 168.695312 C 127.882812 169.164062 128.792969 169.65625 129.6875 170.164062 C 130.585938 170.675781 131.460938 171.207031 132.320312 171.761719 C 133.179688 172.3125 134.019531 172.882812 134.839844 173.472656 C 135.660156 174.0625 136.460938 174.671875 137.242188 175.296875 C 138.023438 175.925781 138.785156 176.570312 139.523438 177.234375 C 140.261719 177.894531 140.976562 178.578125 141.671875 179.273438 C 142.367188 179.96875 143.039062 180.683594 143.6875 181.414062 C 144.339844 182.144531 144.964844 182.886719 145.566406 183.648438 C 146.167969 184.410156 146.746094 185.183594 147.300781 185.972656 C 147.851562 186.761719 148.382812 187.5625 148.886719 188.378906 C 149.390625 189.195312 149.867188 190.023438 150.320312 190.867188 C 150.773438 191.707031 151.199219 192.558594 151.601562 193.425781 C 152 194.289062 152.375 195.164062 152.722656 196.046875 C 153.070312 196.933594 153.390625 197.828125 153.683594 198.730469 C 153.976562 199.636719 154.242188 200.546875 154.480469 201.46875 C 154.71875 202.386719 154.929688 203.316406 155.113281 204.25 C 155.296875 205.183594 155.453125 206.125 155.578125 207.070312 C 155.707031 208.019531 155.808594 208.96875 155.878906 209.925781 C 155.949219 210.882812 155.992188 211.84375 156.007812 212.808594 C 156.023438 213.773438 156.011719 214.738281 155.972656 215.707031 C 155.929688 216.679688 155.863281 217.648438 155.765625 218.621094 C 155.667969 219.59375 155.542969 220.566406 155.390625 221.539062 C 155.238281 222.511719 155.058594 223.484375 154.847656 224.453125 C 154.640625 225.425781 154.40625 226.394531 154.140625 227.359375 C 153.878906 228.328125 153.585938 229.292969 153.269531 230.25 C 152.953125 231.210938 152.605469 232.167969 152.234375 233.121094 C 151.863281 234.070312 151.464844 235.015625 151.042969 235.957031 C 150.617188 236.898438 150.167969 237.832031 149.691406 238.757812 C 149.214844 239.6875 148.714844 240.605469 148.1875 241.515625 C 147.664062 242.429688 147.113281 243.332031 146.535156 244.226562 C 145.960938 245.117188 145.359375 246.003906 144.738281 246.875 C 144.113281 247.75 143.464844 248.613281 142.796875 249.464844 C 142.125 250.316406 141.433594 251.15625 140.71875 251.984375 C 140.003906 252.8125 139.269531 253.625 138.511719 254.425781 C 137.753906 255.230469 136.972656 256.015625 136.175781 256.789062 C 135.375 257.5625 134.558594 258.320312 133.71875 259.066406 C 132.878906 259.808594 132.023438 260.535156 131.148438 261.25 C 130.273438 261.960938 129.378906 262.65625 128.46875 263.335938 C 127.554688 264.011719 126.628906 264.675781 125.683594 265.316406 C 124.742188 265.960938 123.78125 266.585938 122.808594 267.195312 C 121.832031 267.800781 120.84375 268.390625 119.839844 268.957031 C 118.835938 269.527344 117.820312 270.074219 116.792969 270.605469 C 115.765625 271.136719 114.722656 271.644531 113.671875 272.132812 C 112.617188 272.621094 111.554688 273.089844 110.480469 273.539062 C 109.410156 273.984375 108.324219 274.410156 107.234375 274.8125 C 106.140625 275.21875 105.042969 275.601562 103.933594 275.960938 C 102.828125 276.320312 101.714844 276.65625 100.59375 276.972656 C 99.472656 277.289062 98.347656 277.582031 97.214844 277.851562 C 96.085938 278.121094 94.949219 278.367188 93.8125 278.589844 C 92.671875 278.816406 91.53125 279.015625 90.390625 279.191406 C 89.246094 279.367188 88.101562 279.523438 86.957031 279.652344 C 85.808594 279.78125 84.664062 279.886719 83.519531 279.96875 C 82.375 280.050781 81.230469 280.109375 80.089844 280.144531 C 78.949219 280.179688 77.808594 280.191406 76.675781 280.179688 C 75.539062 280.164062 74.40625 280.128906 73.28125 280.066406 C 72.15625 280.007812 71.035156 279.921875 69.917969 279.8125 C 68.804688 279.703125 67.695312 279.574219 66.597656 279.417969 C 65.496094 279.261719 64.402344 279.082031 63.320312 278.878906 C 62.234375 278.675781 61.160156 278.449219 60.097656 278.203125 C 59.03125 277.953125 57.980469 277.679688 56.9375 277.386719 C 55.894531 277.089844 54.863281 276.773438 53.847656 276.433594 C 52.828125 276.09375 51.824219 275.730469 50.835938 275.347656 C 49.84375 274.960938 48.871094 274.554688 47.90625 274.128906 C 46.945312 273.699219 46 273.25 45.074219 272.78125 C 44.144531 272.3125 43.230469 271.820312 42.335938 271.308594 C 41.441406 270.796875 40.5625 270.265625 39.703125 269.714844 C 38.84375 269.164062 38.003906 268.59375 37.183594 268.003906 C 36.363281 267.414062 35.5625 266.804688 34.78125 266.175781 C 34 265.550781 33.242188 264.90625 32.503906 264.242188 C 31.761719 263.578125 31.046875 262.898438 30.351562 262.203125 C 29.65625 261.503906 28.984375 260.792969 28.335938 260.0625 C 27.6875 259.332031 27.0625 258.585938 26.457031 257.828125 C 25.855469 257.066406 25.277344 256.292969 24.726562 255.503906 C 24.171875 254.714844 23.640625 253.910156 23.136719 253.09375 C 22.636719 252.277344 22.15625 251.449219 21.703125 250.609375 C 21.25 249.769531 20.824219 248.914062 20.425781 248.050781 C 20.023438 247.1875 19.648438 246.3125 19.304688 245.425781 C 18.957031 244.542969 18.636719 243.648438 18.339844 242.746094 C 18.046875 241.839844 17.78125 240.929688 17.542969 240.007812 C 17.304688 239.085938 17.09375 238.160156 16.910156 237.226562 C 16.726562 236.289062 16.570312 235.351562 16.445312 234.402344 C 16.316406 233.457031 16.21875 232.503906 16.144531 231.546875 C 16.074219 230.589844 16.03125 229.632812 16.015625 228.667969 C 16 227.703125 16.011719 226.734375 16.054688 225.765625 C 16.09375 224.796875 16.164062 223.828125 16.257812 222.855469 C 16.355469 221.882812 16.480469 220.910156 16.632812 219.9375 C 16.785156 218.964844 16.96875 217.992188 17.175781 217.019531 C 17.382812 216.050781 17.621094 215.082031 17.882812 214.113281 C 18.148438 213.148438 18.4375 212.183594 18.753906 211.222656 C 19.074219 210.261719 19.417969 209.308594 19.789062 208.355469 C 20.160156 207.402344 20.558594 206.457031 20.980469 205.515625 C 21.40625 204.578125 21.855469 203.644531 22.332031 202.714844 C 22.808594 201.789062 23.308594 200.871094 23.835938 199.957031 C 24.363281 199.046875 24.914062 198.144531 25.488281 197.25 C 26.0625 196.355469 26.664062 195.472656 27.289062 194.597656 C 27.910156 193.726562 28.558594 192.863281 29.226562 192.011719 C 29.898438 191.160156 30.589844 190.320312 31.304688 189.492188 C 32.019531 188.664062 32.757812 187.847656 33.515625 187.046875 C 34.273438 186.246094 35.050781 185.457031 35.847656 184.683594 C 36.648438 183.910156 37.46875 183.152344 38.304688 182.410156 C 39.144531 181.664062 40 180.9375 40.878906 180.226562 C 41.753906 179.515625 42.644531 178.820312 43.558594 178.140625 C 44.46875 177.460938 45.394531 176.800781 46.339844 176.15625 C 47.285156 175.511719 48.242188 174.886719 49.21875 174.28125 C 50.191406 173.675781 51.179688 173.085938 52.183594 172.515625 C 53.1875 171.949219 54.203125 171.398438 55.230469 170.871094 C 56.261719 170.339844 57.300781 169.832031 58.355469 169.34375 C 59.40625 168.851562 60.46875 168.386719 61.542969 167.9375 C 62.617188 167.492188 63.699219 167.066406 64.789062 166.660156 C 65.882812 166.257812 66.980469 165.875 68.089844 165.515625 Z M 68.089844 165.515625 " fill-opacity="1" fill-rule="nonzero"/><path fill="#000000" d="M 82.949219 43.640625 C 83.714844 43.082031 84.5 42.546875 85.300781 42.035156 C 86.101562 41.523438 86.917969 41.035156 87.75 40.574219 C 88.582031 40.109375 89.425781 39.671875 90.285156 39.257812 C 91.144531 38.839844 92.019531 38.453125 92.90625 38.089844 C 93.792969 37.726562 94.691406 37.386719 95.601562 37.074219 C 96.515625 36.761719 97.4375 36.476562 98.371094 36.214844 C 99.304688 35.953125 100.246094 35.71875 101.203125 35.511719 C 102.15625 35.300781 103.117188 35.121094 104.089844 34.964844 C 105.058594 34.808594 106.039062 34.683594 107.027344 34.578125 C 108.011719 34.476562 109.007812 34.402344 110.007812 34.355469 C 111.007812 34.308594 112.011719 34.285156 113.023438 34.292969 C 114.03125 34.296875 115.046875 34.328125 116.066406 34.390625 C 117.085938 34.449219 118.105469 34.535156 119.132812 34.648438 C 120.15625 34.761719 121.183594 34.902344 122.210938 35.066406 C 123.238281 35.234375 124.265625 35.425781 125.296875 35.644531 C 126.324219 35.867188 127.351562 36.113281 128.378906 36.382812 C 129.40625 36.65625 130.429688 36.953125 131.453125 37.277344 C 132.476562 37.601562 133.496094 37.949219 134.511719 38.324219 C 135.527344 38.699219 136.539062 39.097656 137.546875 39.523438 C 138.554688 39.945312 139.554688 40.394531 140.550781 40.871094 C 141.546875 41.34375 142.535156 41.839844 143.519531 42.363281 C 144.5 42.886719 145.472656 43.429688 146.441406 44 C 147.40625 44.566406 148.363281 45.15625 149.308594 45.769531 C 150.257812 46.382812 151.191406 47.019531 152.117188 47.675781 C 153.046875 48.335938 153.960938 49.011719 154.863281 49.714844 C 155.765625 50.414062 156.65625 51.132812 157.535156 51.875 C 158.414062 52.613281 159.277344 53.371094 160.128906 54.152344 C 160.976562 54.929688 161.8125 55.726562 162.632812 56.542969 C 163.457031 57.359375 164.261719 58.195312 165.050781 59.042969 C 165.839844 59.894531 166.613281 60.761719 167.371094 61.644531 C 168.125 62.53125 168.867188 63.429688 169.585938 64.34375 C 170.308594 65.257812 171.011719 66.1875 171.695312 67.128906 C 172.378906 68.070312 173.046875 69.027344 173.691406 69.996094 C 174.335938 70.964844 174.960938 71.949219 175.570312 72.941406 C 176.175781 73.933594 176.757812 74.9375 177.324219 75.953125 C 177.886719 76.96875 178.429688 77.992188 178.953125 79.027344 C 179.472656 80.058594 179.972656 81.101562 180.449219 82.152344 C 180.929688 83.203125 181.382812 84.257812 181.816406 85.324219 C 182.246094 86.390625 182.65625 87.457031 183.042969 88.535156 C 183.425781 89.609375 183.789062 90.691406 184.128906 91.777344 C 184.464844 92.859375 184.78125 93.949219 185.070312 95.039062 C 185.363281 96.132812 185.628906 97.226562 185.867188 98.320312 C 186.109375 99.414062 186.328125 100.511719 186.519531 101.605469 C 186.710938 102.703125 186.878906 103.796875 187.023438 104.890625 C 187.164062 105.984375 187.28125 107.078125 187.375 108.167969 C 187.464844 109.257812 187.535156 110.34375 187.574219 111.429688 C 187.617188 112.511719 187.632812 113.589844 187.625 114.664062 C 187.617188 115.738281 187.582031 116.804688 187.523438 117.867188 C 187.464844 118.929688 187.378906 119.984375 187.269531 121.03125 C 187.160156 122.078125 187.027344 123.117188 186.867188 124.144531 C 186.707031 125.175781 186.523438 126.195312 186.316406 127.207031 C 186.105469 128.214844 185.871094 129.214844 185.613281 130.203125 C 185.355469 131.191406 185.074219 132.167969 184.765625 133.132812 C 184.460938 134.097656 184.128906 135.046875 183.773438 135.984375 C 183.417969 136.921875 183.042969 137.84375 182.640625 138.75 C 182.238281 139.660156 181.8125 140.550781 181.367188 141.429688 C 180.917969 142.304688 180.449219 143.164062 179.957031 144.007812 C 179.464844 144.851562 178.949219 145.679688 178.414062 146.488281 C 177.875 147.296875 177.320312 148.085938 176.742188 148.855469 C 176.160156 149.625 175.5625 150.378906 174.941406 151.109375 C 174.324219 151.839844 173.683594 152.554688 173.023438 153.242188 C 172.363281 153.933594 171.6875 154.605469 170.988281 155.253906 C 170.292969 155.902344 169.578125 156.527344 168.84375 157.132812 C 168.109375 157.734375 167.359375 158.316406 166.589844 158.875 C 165.824219 159.433594 165.039062 159.96875 164.238281 160.480469 C 163.4375 160.992188 162.621094 161.480469 161.789062 161.941406 C 160.960938 162.40625 160.113281 162.84375 159.253906 163.257812 C 158.394531 163.671875 157.519531 164.0625 156.632812 164.425781 C 155.746094 164.789062 154.847656 165.128906 153.9375 165.441406 C 153.023438 165.753906 152.101562 166.039062 151.167969 166.300781 C 150.234375 166.5625 149.292969 166.796875 148.339844 167.003906 C 147.382812 167.210938 146.421875 167.394531 145.449219 167.550781 C 144.480469 167.703125 143.5 167.832031 142.511719 167.933594 C 141.527344 168.035156 140.53125 168.113281 139.53125 168.160156 C 138.53125 168.207031 137.527344 168.230469 136.515625 168.222656 C 135.507812 168.21875 134.492188 168.183594 133.472656 168.125 C 132.453125 168.066406 131.433594 167.980469 130.40625 167.867188 C 129.382812 167.753906 128.355469 167.613281 127.328125 167.449219 C 126.300781 167.28125 125.273438 167.089844 124.246094 166.867188 C 123.214844 166.648438 122.1875 166.402344 121.160156 166.132812 C 120.132812 165.859375 119.109375 165.5625 118.085938 165.238281 C 117.0625 164.914062 116.042969 164.566406 115.027344 164.191406 C 114.011719 163.816406 113 163.417969 111.992188 162.992188 C 110.984375 162.566406 109.984375 162.117188 108.988281 161.644531 C 107.992188 161.171875 107.003906 160.671875 106.019531 160.152344 C 105.039062 159.628906 104.066406 159.085938 103.101562 158.515625 C 102.132812 157.949219 101.175781 157.359375 100.230469 156.742188 C 99.285156 156.128906 98.347656 155.496094 97.421875 154.835938 C 96.496094 154.179688 95.578125 153.5 94.675781 152.800781 C 93.773438 152.101562 92.882812 151.382812 92.003906 150.640625 C 91.128906 149.902344 90.261719 149.140625 89.414062 148.363281 C 88.5625 147.585938 87.726562 146.785156 86.90625 145.972656 C 86.082031 145.15625 85.277344 144.320312 84.488281 143.472656 C 83.699219 142.621094 82.925781 141.753906 82.167969 140.871094 C 81.414062 139.984375 80.675781 139.085938 79.953125 138.171875 C 79.230469 137.257812 78.527344 136.328125 77.84375 135.386719 C 77.160156 134.441406 76.496094 133.488281 75.847656 132.519531 C 75.203125 131.546875 74.578125 130.566406 73.972656 129.574219 C 73.363281 128.582031 72.78125 127.578125 72.214844 126.5625 C 71.652344 125.546875 71.109375 124.523438 70.585938 123.488281 C 70.066406 122.457031 69.566406 121.414062 69.089844 120.363281 C 68.609375 119.3125 68.15625 118.253906 67.722656 117.191406 C 67.292969 116.125 66.882812 115.054688 66.496094 113.980469 C 66.113281 112.902344 65.75 111.824219 65.410156 110.738281 C 65.074219 109.652344 64.757812 108.566406 64.46875 107.472656 C 64.179688 106.382812 63.910156 105.289062 63.671875 104.195312 C 63.429688 103.101562 63.210938 102.003906 63.019531 100.910156 C 62.828125 99.8125 62.660156 98.71875 62.515625 97.625 C 62.375 96.527344 62.257812 95.4375 62.164062 94.347656 C 62.074219 93.257812 62.007812 92.171875 61.964844 91.085938 C 61.921875 90.003906 61.90625 88.925781 61.914062 87.851562 C 61.921875 86.777344 61.957031 85.710938 62.015625 84.648438 C 62.074219 83.585938 62.160156 82.53125 62.269531 81.484375 C 62.378906 80.4375 62.511719 79.398438 62.671875 78.371094 C 62.832031 77.339844 63.015625 76.320312 63.222656 75.308594 C 63.433594 74.296875 63.667969 73.300781 63.925781 72.3125 C 64.183594 71.324219 64.464844 70.347656 64.773438 69.382812 C 65.082031 68.417969 65.410156 67.46875 65.765625 66.53125 C 66.121094 65.59375 66.5 64.671875 66.898438 63.761719 C 67.300781 62.855469 67.726562 61.964844 68.171875 61.085938 C 68.621094 60.210938 69.089844 59.347656 69.582031 58.503906 C 70.078125 57.660156 70.589844 56.835938 71.125 56.027344 C 71.664062 55.21875 72.21875 54.429688 72.800781 53.660156 C 73.378906 52.886719 73.976562 52.136719 74.597656 51.40625 C 75.214844 50.671875 75.855469 49.960938 76.515625 49.269531 C 77.175781 48.582031 77.851562 47.910156 78.550781 47.261719 C 79.246094 46.613281 79.960938 45.988281 80.695312 45.382812 C 81.429688 44.78125 82.179688 44.199219 82.949219 43.640625 Z M 82.949219 43.640625 " fill-opacity="1" fill-rule="nonzero"/><path fill="#000000" d="M 203.308594 67.132812 C 203.992188 66.1875 204.695312 65.257812 205.414062 64.34375 C 206.136719 63.429688 206.875 62.53125 207.632812 61.648438 C 208.386719 60.765625 209.160156 59.898438 209.953125 59.046875 C 210.742188 58.195312 211.546875 57.363281 212.367188 56.546875 C 213.1875 55.730469 214.023438 54.933594 214.875 54.15625 C 215.726562 53.375 216.589844 52.617188 217.46875 51.875 C 218.347656 51.136719 219.234375 50.414062 220.140625 49.714844 C 221.042969 49.015625 221.957031 48.335938 222.882812 47.679688 C 223.808594 47.023438 224.746094 46.386719 225.695312 45.773438 C 226.640625 45.160156 227.597656 44.570312 228.5625 44 C 229.527344 43.433594 230.503906 42.886719 231.484375 42.367188 C 232.464844 41.84375 233.453125 41.347656 234.449219 40.871094 C 235.445312 40.398438 236.449219 39.949219 237.453125 39.523438 C 238.460938 39.101562 239.472656 38.699219 240.492188 38.328125 C 241.507812 37.953125 242.527344 37.601562 243.550781 37.28125 C 244.570312 36.957031 245.597656 36.65625 246.625 36.386719 C 247.652344 36.113281 248.679688 35.867188 249.707031 35.648438 C 250.734375 35.429688 251.765625 35.238281 252.792969 35.070312 C 253.820312 34.902344 254.847656 34.765625 255.871094 34.652344 C 256.894531 34.539062 257.917969 34.453125 258.9375 34.394531 C 259.953125 34.332031 260.96875 34.300781 261.980469 34.296875 C 262.992188 34.289062 263.996094 34.308594 264.996094 34.359375 C 265.996094 34.40625 266.988281 34.480469 267.976562 34.582031 C 268.964844 34.683594 269.941406 34.8125 270.914062 34.96875 C 271.886719 35.125 272.847656 35.304688 273.800781 35.515625 C 274.753906 35.722656 275.699219 35.957031 276.632812 36.21875 C 277.566406 36.476562 278.488281 36.765625 279.398438 37.078125 C 280.3125 37.390625 281.210938 37.730469 282.097656 38.09375 C 282.984375 38.457031 283.855469 38.84375 284.714844 39.257812 C 285.578125 39.671875 286.421875 40.113281 287.253906 40.574219 C 288.085938 41.039062 288.902344 41.527344 289.703125 42.039062 C 290.503906 42.550781 291.285156 43.085938 292.054688 43.644531 C 292.824219 44.203125 293.574219 44.785156 294.308594 45.386719 C 295.039062 45.992188 295.753906 46.617188 296.453125 47.265625 C 297.148438 47.914062 297.828125 48.585938 298.488281 49.273438 C 299.144531 49.964844 299.785156 50.675781 300.40625 51.410156 C 301.023438 52.140625 301.625 52.890625 302.203125 53.664062 C 302.78125 54.433594 303.339844 55.222656 303.875 56.03125 C 304.410156 56.839844 304.925781 57.664062 305.417969 58.507812 C 305.910156 59.351562 306.382812 60.214844 306.828125 61.089844 C 307.277344 61.96875 307.699219 62.859375 308.101562 63.769531 C 308.503906 64.675781 308.882812 65.597656 309.238281 66.535156 C 309.589844 67.472656 309.921875 68.421875 310.230469 69.386719 C 310.535156 70.351562 310.816406 71.328125 311.078125 72.316406 C 311.335938 73.304688 311.566406 74.300781 311.777344 75.3125 C 311.988281 76.324219 312.171875 77.34375 312.332031 78.375 C 312.488281 79.402344 312.625 80.441406 312.734375 81.488281 C 312.84375 82.535156 312.925781 83.589844 312.984375 84.652344 C 313.046875 85.714844 313.078125 86.78125 313.085938 87.855469 C 313.097656 88.929688 313.078125 90.007812 313.039062 91.089844 C 312.996094 92.175781 312.929688 93.261719 312.835938 94.351562 C 312.742188 95.441406 312.625 96.535156 312.484375 97.628906 C 312.339844 98.722656 312.175781 99.816406 311.980469 100.914062 C 311.789062 102.007812 311.574219 103.105469 311.332031 104.199219 C 311.089844 105.292969 310.824219 106.386719 310.53125 107.480469 C 310.242188 108.570312 309.929688 109.65625 309.589844 110.742188 C 309.25 111.828125 308.890625 112.910156 308.503906 113.984375 C 308.117188 115.058594 307.707031 116.128906 307.277344 117.195312 C 306.84375 118.257812 306.390625 119.316406 305.914062 120.367188 C 305.433594 121.417969 304.9375 122.460938 304.414062 123.492188 C 303.894531 124.527344 303.351562 125.550781 302.785156 126.566406 C 302.222656 127.582031 301.636719 128.585938 301.03125 129.578125 C 300.425781 130.570312 299.796875 131.550781 299.152344 132.523438 C 298.507812 133.492188 297.839844 134.445312 297.15625 135.390625 C 296.472656 136.332031 295.769531 137.261719 295.046875 138.175781 C 294.328125 139.089844 293.589844 139.988281 292.832031 140.871094 C 292.074219 141.757812 291.300781 142.625 290.511719 143.472656 C 289.722656 144.324219 288.917969 145.160156 288.097656 145.972656 C 287.273438 146.789062 286.4375 147.585938 285.589844 148.367188 C 284.738281 149.144531 283.875 149.90625 282.996094 150.644531 C 282.117188 151.386719 281.226562 152.105469 280.324219 152.804688 C 279.421875 153.503906 278.507812 154.183594 277.578125 154.839844 C 276.652344 155.5 275.71875 156.132812 274.769531 156.746094 C 273.824219 157.359375 272.867188 157.953125 271.902344 158.519531 C 270.933594 159.089844 269.960938 159.632812 268.980469 160.15625 C 267.996094 160.675781 267.007812 161.175781 266.011719 161.648438 C 265.015625 162.121094 264.015625 162.570312 263.007812 162.996094 C 262 163.421875 260.988281 163.820312 259.972656 164.195312 C 258.957031 164.570312 257.9375 164.917969 256.914062 165.242188 C 255.890625 165.566406 254.867188 165.863281 253.839844 166.136719 C 252.8125 166.40625 251.785156 166.652344 250.757812 166.871094 C 249.726562 167.089844 248.699219 167.285156 247.671875 167.449219 C 246.644531 167.617188 245.617188 167.757812 244.59375 167.871094 C 243.566406 167.984375 242.546875 168.070312 241.527344 168.128906 C 240.507812 168.1875 239.492188 168.21875 238.484375 168.226562 C 237.472656 168.230469 236.46875 168.210938 235.46875 168.164062 C 234.46875 168.113281 233.472656 168.039062 232.488281 167.9375 C 231.5 167.835938 230.519531 167.707031 229.550781 167.550781 C 228.578125 167.398438 227.617188 167.214844 226.664062 167.007812 C 225.707031 166.800781 224.765625 166.5625 223.832031 166.304688 C 222.898438 166.042969 221.976562 165.757812 221.0625 165.445312 C 220.152344 165.128906 219.253906 164.792969 218.367188 164.429688 C 217.480469 164.066406 216.605469 163.675781 215.746094 163.261719 C 214.886719 162.847656 214.042969 162.410156 213.210938 161.945312 C 212.378906 161.480469 211.5625 160.996094 210.761719 160.484375 C 209.960938 159.972656 209.175781 159.4375 208.410156 158.878906 C 207.640625 158.320312 206.890625 157.738281 206.15625 157.132812 C 205.421875 156.527344 204.707031 155.902344 204.011719 155.253906 C 203.3125 154.605469 202.636719 153.9375 201.976562 153.246094 C 201.316406 152.554688 200.675781 151.84375 200.058594 151.113281 C 199.4375 150.378906 198.839844 149.628906 198.261719 148.859375 C 197.683594 148.085938 197.125 147.296875 196.589844 146.488281 C 196.050781 145.679688 195.539062 144.855469 195.046875 144.011719 C 194.550781 143.167969 194.082031 142.308594 193.636719 141.429688 C 193.1875 140.554688 192.761719 139.660156 192.359375 138.753906 C 191.960938 137.84375 191.582031 136.921875 191.226562 135.984375 C 190.871094 135.046875 190.542969 134.097656 190.234375 133.132812 C 189.929688 132.171875 189.644531 131.195312 189.386719 130.207031 C 189.128906 129.21875 188.894531 128.21875 188.6875 127.207031 C 188.476562 126.199219 188.292969 125.175781 188.132812 124.148438 C 187.972656 123.117188 187.839844 122.078125 187.730469 121.03125 C 187.621094 119.984375 187.535156 118.929688 187.476562 117.867188 C 187.417969 116.808594 187.382812 115.738281 187.375 114.664062 C 187.367188 113.589844 187.382812 112.511719 187.425781 111.429688 C 187.46875 110.347656 187.535156 109.261719 187.628906 108.171875 C 187.71875 107.078125 187.835938 105.988281 187.980469 104.894531 C 188.121094 103.800781 188.289062 102.703125 188.480469 101.609375 C 188.675781 100.511719 188.890625 99.417969 189.132812 98.320312 C 189.375 97.226562 189.640625 96.132812 189.929688 95.042969 C 190.222656 93.949219 190.535156 92.863281 190.875 91.777344 C 191.210938 90.691406 191.574219 89.613281 191.960938 88.535156 C 192.347656 87.460938 192.753906 86.390625 193.1875 85.328125 C 193.617188 84.261719 194.074219 83.203125 194.550781 82.152344 C 195.027344 81.101562 195.527344 80.0625 196.050781 79.027344 C 196.570312 77.992188 197.113281 76.96875 197.679688 75.953125 C 198.242188 74.941406 198.828125 73.9375 199.433594 72.941406 C 200.039062 71.949219 200.664062 70.96875 201.3125 70 C 201.957031 69.03125 202.621094 68.074219 203.308594 67.132812 Z M 203.308594 67.132812 " fill-opacity="1" fill-rule="nonzero"/><path fill="#000000" d="M 221.359375 198.714844 C 221.652344 197.8125 221.972656 196.917969 222.320312 196.03125 C 222.667969 195.148438 223.039062 194.273438 223.441406 193.410156 C 223.84375 192.546875 224.269531 191.691406 224.722656 190.851562 C 225.171875 190.011719 225.652344 189.179688 226.15625 188.367188 C 226.660156 187.550781 227.1875 186.746094 227.742188 185.957031 C 228.296875 185.167969 228.875 184.394531 229.476562 183.632812 C 230.078125 182.871094 230.703125 182.128906 231.351562 181.398438 C 232 180.667969 232.675781 179.957031 233.367188 179.257812 C 234.0625 178.5625 234.78125 177.882812 235.519531 177.21875 C 236.257812 176.554688 237.015625 175.910156 237.796875 175.28125 C 238.578125 174.65625 239.378906 174.046875 240.199219 173.457031 C 241.023438 172.867188 241.863281 172.296875 242.722656 171.746094 C 243.578125 171.195312 244.457031 170.660156 245.351562 170.152344 C 246.246094 169.640625 247.160156 169.148438 248.089844 168.679688 C 249.019531 168.207031 249.964844 167.757812 250.925781 167.332031 C 251.886719 166.902344 252.863281 166.496094 253.851562 166.113281 C 254.84375 165.730469 255.847656 165.367188 256.863281 165.027344 C 257.882812 164.6875 258.910156 164.367188 259.953125 164.074219 C 260.996094 163.777344 262.050781 163.507812 263.113281 163.257812 C 264.179688 163.007812 265.253906 162.78125 266.335938 162.582031 C 267.417969 162.378906 268.511719 162.199219 269.613281 162.042969 C 270.714844 161.886719 271.820312 161.753906 272.9375 161.648438 C 274.050781 161.539062 275.171875 161.453125 276.296875 161.394531 C 277.425781 161.332031 278.554688 161.296875 279.691406 161.28125 C 280.828125 161.269531 281.964844 161.28125 283.105469 161.3125 C 284.25 161.347656 285.390625 161.40625 286.535156 161.488281 C 287.683594 161.570312 288.828125 161.679688 289.972656 161.808594 C 291.117188 161.9375 292.261719 162.089844 293.40625 162.269531 C 294.550781 162.445312 295.691406 162.644531 296.828125 162.867188 C 297.96875 163.09375 299.101562 163.339844 300.234375 163.609375 C 301.363281 163.878906 302.488281 164.171875 303.609375 164.488281 C 304.730469 164.800781 305.84375 165.140625 306.953125 165.5 C 308.058594 165.859375 309.160156 166.242188 310.25 166.644531 C 311.34375 167.050781 312.425781 167.476562 313.5 167.921875 C 314.570312 168.371094 315.636719 168.839844 316.6875 169.328125 C 317.738281 169.816406 318.78125 170.324219 319.808594 170.855469 C 320.839844 171.382812 321.855469 171.933594 322.859375 172.503906 C 323.859375 173.070312 324.847656 173.660156 325.824219 174.265625 C 326.796875 174.875 327.757812 175.5 328.703125 176.140625 C 329.644531 176.785156 330.574219 177.445312 331.484375 178.125 C 332.394531 178.804688 333.289062 179.5 334.164062 180.210938 C 335.039062 180.921875 335.898438 181.652344 336.734375 182.394531 C 337.574219 183.136719 338.394531 183.898438 339.191406 184.671875 C 339.992188 185.445312 340.769531 186.230469 341.527344 187.03125 C 342.285156 187.835938 343.023438 188.648438 343.734375 189.476562 C 344.449219 190.304688 345.144531 191.144531 345.8125 191.996094 C 346.484375 192.847656 347.128906 193.710938 347.753906 194.585938 C 348.378906 195.457031 348.976562 196.339844 349.554688 197.234375 C 350.128906 198.128906 350.679688 199.03125 351.207031 199.941406 C 351.734375 200.855469 352.234375 201.773438 352.710938 202.699219 C 353.183594 203.628906 353.636719 204.5625 354.058594 205.503906 C 354.484375 206.441406 354.882812 207.390625 355.253906 208.339844 C 355.625 209.292969 355.96875 210.246094 356.285156 211.207031 C 356.605469 212.167969 356.894531 213.132812 357.15625 214.097656 C 357.421875 215.066406 357.65625 216.035156 357.867188 217.003906 C 358.074219 217.976562 358.253906 218.949219 358.40625 219.921875 C 358.558594 220.894531 358.683594 221.867188 358.78125 222.839844 C 358.878906 223.8125 358.949219 224.78125 358.988281 225.75 C 359.03125 226.71875 359.042969 227.6875 359.027344 228.652344 C 359.011719 229.617188 358.96875 230.578125 358.894531 231.53125 C 358.824219 232.488281 358.726562 233.441406 358.597656 234.386719 C 358.46875 235.335938 358.3125 236.277344 358.128906 237.210938 C 357.945312 238.144531 357.734375 239.074219 357.496094 239.992188 C 357.257812 240.914062 356.992188 241.824219 356.699219 242.730469 C 356.40625 243.632812 356.085938 244.527344 355.738281 245.414062 C 355.390625 246.296875 355.015625 247.171875 354.617188 248.035156 C 354.214844 248.898438 353.789062 249.753906 353.335938 250.59375 C 352.882812 251.433594 352.40625 252.261719 351.902344 253.078125 C 351.398438 253.894531 350.871094 254.699219 350.316406 255.488281 C 349.761719 256.277344 349.183594 257.050781 348.582031 257.8125 C 347.980469 258.570312 347.355469 259.316406 346.707031 260.046875 C 346.054688 260.777344 345.382812 261.488281 344.691406 262.1875 C 343.996094 262.882812 343.277344 263.5625 342.539062 264.226562 C 341.800781 264.890625 341.042969 265.535156 340.261719 266.160156 C 339.480469 266.789062 338.679688 267.398438 337.859375 267.988281 C 337.035156 268.578125 336.195312 269.148438 335.335938 269.699219 C 334.476562 270.25 333.601562 270.78125 332.707031 271.292969 C 331.808594 271.804688 330.898438 272.296875 329.96875 272.765625 C 329.039062 273.238281 328.09375 273.6875 327.132812 274.113281 C 326.171875 274.542969 325.195312 274.945312 324.207031 275.332031 C 323.214844 275.714844 322.210938 276.078125 321.195312 276.417969 C 320.175781 276.757812 319.144531 277.074219 318.105469 277.371094 C 317.0625 277.664062 316.007812 277.9375 314.945312 278.1875 C 313.878906 278.4375 312.804688 278.660156 311.722656 278.863281 C 310.636719 279.066406 309.546875 279.246094 308.445312 279.402344 C 307.34375 279.558594 306.238281 279.691406 305.121094 279.796875 C 304.007812 279.90625 302.886719 279.992188 301.761719 280.050781 C 300.632812 280.113281 299.503906 280.148438 298.367188 280.164062 C 297.230469 280.175781 296.09375 280.164062 294.953125 280.128906 C 293.808594 280.097656 292.667969 280.039062 291.523438 279.957031 C 290.375 279.871094 289.230469 279.765625 288.085938 279.636719 C 286.941406 279.507812 285.796875 279.355469 284.652344 279.175781 C 283.507812 279 282.367188 278.800781 281.230469 278.578125 C 280.089844 278.351562 278.957031 278.105469 277.824219 277.835938 C 276.695312 277.566406 275.570312 277.273438 274.449219 276.957031 C 273.328125 276.644531 272.214844 276.304688 271.105469 275.945312 C 270 275.585938 268.898438 275.203125 267.808594 274.796875 C 266.714844 274.394531 265.632812 273.96875 264.558594 273.523438 C 263.484375 273.074219 262.421875 272.605469 261.371094 272.117188 C 260.320312 271.628906 259.277344 271.121094 258.25 270.589844 C 257.21875 270.0625 256.203125 269.511719 255.199219 268.941406 C 254.199219 268.375 253.207031 267.785156 252.234375 267.179688 C 251.257812 266.570312 250.300781 265.945312 249.355469 265.304688 C 248.414062 264.660156 247.484375 264 246.574219 263.320312 C 245.664062 262.640625 244.769531 261.945312 243.894531 261.234375 C 243.019531 260.523438 242.160156 259.792969 241.324219 259.050781 C 240.484375 258.308594 239.664062 257.546875 238.867188 256.773438 C 238.066406 256 237.289062 255.214844 236.53125 254.410156 C 235.773438 253.609375 235.035156 252.796875 234.320312 251.96875 C 233.605469 251.140625 232.914062 250.300781 232.246094 249.449219 C 231.574219 248.597656 230.929688 247.734375 230.304688 246.859375 C 229.679688 245.988281 229.082031 245.101562 228.503906 244.210938 C 227.929688 243.316406 227.378906 242.414062 226.851562 241.5 C 226.324219 240.589844 225.824219 239.671875 225.347656 238.742188 C 224.875 237.816406 224.421875 236.882812 224 235.941406 C 223.574219 235.003906 223.175781 234.054688 222.804688 233.105469 C 222.433594 232.152344 222.089844 231.195312 221.773438 230.238281 C 221.453125 229.277344 221.164062 228.3125 220.898438 227.347656 C 220.636719 226.378906 220.402344 225.410156 220.191406 224.4375 C 219.984375 223.46875 219.804688 222.496094 219.652344 221.523438 C 219.5 220.550781 219.375 219.578125 219.277344 218.605469 C 219.179688 217.632812 219.109375 216.664062 219.070312 215.695312 C 219.027344 214.722656 219.015625 213.757812 219.03125 212.792969 C 219.046875 211.828125 219.089844 210.867188 219.164062 209.910156 C 219.234375 208.957031 219.332031 208.003906 219.460938 207.058594 C 219.589844 206.109375 219.746094 205.167969 219.929688 204.234375 C 220.109375 203.300781 220.320312 202.371094 220.5625 201.453125 C 220.800781 200.53125 221.066406 199.621094 221.359375 198.714844 Z M 221.359375 198.714844 " fill-opacity="1" fill-rule="nonzero"/><path fill="#000000" d="M 270.503906 193.917969 C 270.503906 195.242188 270.472656 196.566406 270.40625 197.890625 C 270.335938 199.214844 270.238281 200.535156 270.101562 201.855469 C 269.96875 203.175781 269.800781 204.488281 269.597656 205.800781 C 269.394531 207.113281 269.160156 208.417969 268.894531 209.714844 C 268.625 211.015625 268.324219 212.308594 267.992188 213.59375 C 267.660156 214.878906 267.292969 216.15625 266.894531 217.425781 C 266.496094 218.695312 266.066406 219.953125 265.601562 221.199219 C 265.140625 222.449219 264.644531 223.683594 264.121094 224.910156 C 263.59375 226.132812 263.039062 227.34375 262.453125 228.542969 C 261.863281 229.742188 261.246094 230.925781 260.601562 232.09375 C 259.953125 233.261719 259.277344 234.414062 258.570312 235.550781 C 257.867188 236.6875 257.132812 237.808594 256.367188 238.910156 C 255.605469 240.011719 254.816406 241.09375 253.996094 242.160156 C 253.179688 243.222656 252.335938 244.269531 251.464844 245.292969 C 250.59375 246.316406 249.695312 247.320312 248.773438 248.300781 C 247.851562 249.285156 246.90625 250.246094 245.9375 251.179688 C 244.964844 252.117188 243.972656 253.03125 242.953125 253.921875 C 241.9375 254.8125 240.898438 255.675781 239.835938 256.519531 C 238.773438 257.359375 237.695312 258.175781 236.589844 258.964844 C 235.488281 259.753906 234.367188 260.515625 233.222656 261.253906 C 232.082031 261.988281 230.921875 262.699219 229.746094 263.378906 C 228.570312 264.058594 227.375 264.714844 226.164062 265.339844 C 224.953125 265.964844 223.726562 266.558594 222.484375 267.125 C 221.246094 267.691406 219.988281 268.230469 218.722656 268.734375 C 217.453125 269.242188 216.171875 269.71875 214.878906 270.167969 C 213.585938 270.613281 212.285156 271.027344 210.972656 271.414062 C 209.65625 271.796875 208.335938 272.152344 207.003906 272.472656 C 205.671875 272.796875 204.332031 273.085938 202.984375 273.34375 C 201.640625 273.601562 200.285156 273.828125 198.929688 274.023438 C 197.570312 274.21875 196.207031 274.378906 194.84375 274.511719 C 193.476562 274.640625 192.105469 274.738281 190.734375 274.804688 C 189.363281 274.867188 187.992188 274.902344 186.621094 274.902344 C 185.246094 274.902344 183.875 274.867188 182.503906 274.804688 C 181.132812 274.738281 179.765625 274.640625 178.398438 274.511719 C 177.03125 274.378906 175.667969 274.21875 174.3125 274.023438 C 172.953125 273.828125 171.601562 273.601562 170.253906 273.34375 C 168.910156 273.085938 167.570312 272.796875 166.238281 272.472656 C 164.90625 272.152344 163.582031 271.796875 162.269531 271.414062 C 160.957031 271.027344 159.652344 270.613281 158.359375 270.167969 C 157.066406 269.71875 155.785156 269.242188 154.519531 268.734375 C 153.25 268.230469 151.996094 267.691406 150.753906 267.125 C 149.511719 266.558594 148.289062 265.964844 147.078125 265.339844 C 145.867188 264.714844 144.671875 264.058594 143.496094 263.378906 C 142.316406 262.699219 141.15625 261.988281 140.015625 261.253906 C 138.875 260.515625 137.753906 259.753906 136.648438 258.964844 C 135.546875 258.175781 134.464844 257.359375 133.402344 256.519531 C 132.34375 255.675781 131.304688 254.8125 130.285156 253.921875 C 129.269531 253.03125 128.273438 252.117188 127.304688 251.179688 C 126.332031 250.246094 125.386719 249.285156 124.464844 248.300781 C 123.542969 247.320312 122.648438 246.316406 121.777344 245.292969 C 120.90625 244.269531 120.058594 243.222656 119.242188 242.160156 C 118.425781 241.09375 117.632812 240.011719 116.871094 238.910156 C 116.109375 237.808594 115.375 236.6875 114.667969 235.550781 C 113.964844 234.414062 113.285156 233.261719 112.640625 232.09375 C 111.992188 230.925781 111.375 229.742188 110.789062 228.542969 C 110.203125 227.34375 109.644531 226.132812 109.121094 224.910156 C 108.59375 223.683594 108.101562 222.449219 107.636719 221.199219 C 107.175781 219.953125 106.746094 218.695312 106.347656 217.425781 C 105.949219 216.15625 105.582031 214.878906 105.25 213.59375 C 104.914062 212.308594 104.613281 211.015625 104.347656 209.714844 C 104.078125 208.417969 103.84375 207.113281 103.644531 205.800781 C 103.441406 204.488281 103.273438 203.175781 103.136719 201.855469 C 103.003906 200.535156 102.902344 199.214844 102.835938 197.890625 C 102.769531 196.566406 102.734375 195.242188 102.734375 193.917969 C 102.734375 192.59375 102.769531 191.269531 102.835938 189.945312 C 102.902344 188.621094 103.003906 187.300781 103.136719 185.980469 C 103.273438 184.660156 103.441406 183.347656 103.644531 182.035156 C 103.84375 180.722656 104.078125 179.417969 104.347656 178.117188 C 104.613281 176.820312 104.914062 175.527344 105.25 174.242188 C 105.582031 172.953125 105.949219 171.679688 106.347656 170.410156 C 106.746094 169.140625 107.175781 167.882812 107.636719 166.636719 C 108.101562 165.386719 108.59375 164.152344 109.121094 162.925781 C 109.644531 161.703125 110.203125 160.492188 110.789062 159.292969 C 111.375 158.09375 111.992188 156.910156 112.640625 155.742188 C 113.285156 154.574219 113.964844 153.421875 114.667969 152.285156 C 115.375 151.148438 116.109375 150.027344 116.871094 148.925781 C 117.632812 147.824219 118.425781 146.742188 119.242188 145.675781 C 120.058594 144.613281 120.90625 143.566406 121.777344 142.542969 C 122.648438 141.519531 123.542969 140.515625 124.464844 139.53125 C 125.386719 138.550781 126.332031 137.589844 127.304688 136.652344 C 128.273438 135.71875 129.269531 134.804688 130.285156 133.914062 C 131.304688 133.023438 132.34375 132.15625 133.402344 131.316406 C 134.464844 130.476562 135.546875 129.660156 136.648438 128.871094 C 137.753906 128.082031 138.875 127.320312 140.015625 126.582031 C 141.15625 125.847656 142.316406 125.136719 143.496094 124.457031 C 144.671875 123.773438 145.867188 123.121094 147.078125 122.496094 C 148.289062 121.871094 149.511719 121.277344 150.753906 120.710938 C 151.996094 120.144531 153.25 119.605469 154.519531 119.097656 C 155.785156 118.59375 157.066406 118.117188 158.359375 117.667969 C 159.652344 117.222656 160.957031 116.808594 162.269531 116.421875 C 163.582031 116.039062 164.90625 115.683594 166.238281 115.363281 C 167.570312 115.039062 168.910156 114.75 170.253906 114.492188 C 171.601562 114.234375 172.953125 114.007812 174.3125 113.8125 C 175.667969 113.617188 177.03125 113.453125 178.398438 113.324219 C 179.765625 113.195312 181.132812 113.097656 182.503906 113.03125 C 183.875 112.96875 185.246094 112.933594 186.621094 112.933594 C 187.992188 112.933594 189.363281 112.96875 190.734375 113.03125 C 192.105469 113.097656 193.476562 113.195312 194.84375 113.324219 C 196.207031 113.453125 197.570312 113.617188 198.929688 113.8125 C 200.285156 114.007812 201.640625 114.234375 202.984375 114.492188 C 204.332031 114.75 205.671875 115.039062 207.003906 115.363281 C 208.335938 115.683594 209.65625 116.039062 210.972656 116.421875 C 212.285156 116.808594 213.585938 117.222656 214.878906 117.667969 C 216.171875 118.117188 217.453125 118.59375 218.722656 119.097656 C 219.988281 119.605469 221.246094 120.144531 222.484375 120.710938 C 223.726562 121.277344 224.953125 121.871094 226.164062 122.496094 C 227.375 123.121094 228.570312 123.773438 229.746094 124.457031 C 230.921875 125.136719 232.082031 125.847656 233.222656 126.582031 C 234.367188 127.320312 235.488281 128.082031 236.589844 128.871094 C 237.695312 129.660156 238.773438 130.476562 239.835938 131.316406 C 240.898438 132.15625 241.9375 133.023438 242.953125 133.914062 C 243.972656 134.804688 244.964844 135.71875 245.9375 136.652344 C 246.90625 137.589844 247.851562 138.550781 248.773438 139.53125 C 249.695312 140.515625 250.59375 141.519531 251.464844 142.542969 C 252.335938 143.566406 253.179688 144.613281 253.996094 145.675781 C 254.816406 146.742188 255.605469 147.824219 256.367188 148.925781 C 257.132812 150.027344 257.867188 151.148438 258.570312 152.285156 C 259.277344 153.421875 259.953125 154.574219 260.601562 155.742188 C 261.246094 156.910156 261.863281 158.09375 262.453125 159.292969 C 263.039062 160.492188 263.59375 161.703125 264.121094 162.925781 C 264.644531 164.152344 265.140625 165.386719 265.601562 166.636719 C 266.066406 167.882812 266.496094 169.140625 266.894531 170.410156 C 267.292969 171.679688 267.660156 172.953125 267.992188 174.242188 C 268.324219 175.527344 268.625 176.820312 268.894531 178.117188 C 269.160156 179.417969 269.394531 180.722656 269.597656 182.035156 C 269.800781 183.347656 269.96875 184.660156 270.101562 185.980469 C 270.238281 187.300781 270.335938 188.621094 270.40625 189.945312 C 270.472656 191.269531 270.503906 192.59375 270.503906 193.917969 Z M 270.503906 193.917969 " fill-opacity="1" fill-rule="nonzero"/></svg>