<svg xmlns="http://www.w3.org/2000/svg" xmlns:xlink="http://www.w3.org/1999/xlink" width="576" zoomAndPan="magnify" viewBox="0 0 432 72" height="96" preserveAspectRatio="xMidYMid meet" version="1.0"><defs><clipPath id="d963854324"><path d="M 175 25 L 200 25 L 200 48.675781 L 175 48.675781 Z M 175 25 " clip-rule="nonzero"/></clipPath><clipPath id="0e2fa3ae2a"><path d="M 204 25 L 229 25 L 229 48.675781 L 204 48.675781 Z M 204 25 " clip-rule="nonzero"/></clipPath><clipPath id="08d7ba05ef"><path d="M 232 25 L 257 25 L 257 48.675781 L 232 48.675781 Z M 232 25 " clip-rule="nonzero"/></clipPath><clipPath id="3cbb2d2901"><path d="M 261 25 L 287 25 L 287 48.675781 L 261 48.675781 Z M 261 25 " clip-rule="nonzero"/></clipPath><clipPath id="56e47f6b81"><path d="M 290 25 L 315 25 L 315 48.675781 L 290 48.675781 Z M 290 25 " clip-rule="nonzero"/></clipPath><clipPath id="513b4891bc"><path d="M 318 25 L 344 25 L 344 48.675781 L 318 48.675781 Z M 318 25 " clip-rule="nonzero"/></clipPath><clipPath id="3fa4c0fa07"><path d="M 88 25 L 114 25 L 114 48.675781 L 88 48.675781 Z M 88 25 " clip-rule="nonzero"/></clipPath><clipPath id="34e64368bb"><path d="M 117 25 L 143 25 L 143 48.675781 L 117 48.675781 Z M 117 25 " clip-rule="nonzero"/></clipPath><clipPath id="865264670f"><path d="M 146 25 L 171 25 L 171 48.675781 L 146 48.675781 Z M 146 25 " clip-rule="nonzero"/></clipPath><clipPath id="37c57ab3d8"><path d="M 348 25 L 373 25 L 373 48.675781 L 348 48.675781 Z M 348 25 " clip-rule="nonzero"/></clipPath><clipPath id="f8e5f98c10"><path d="M 376 25 L 402 25 L 402 48.675781 L 376 48.675781 Z M 376 25 " clip-rule="nonzero"/></clipPath><clipPath id="55886ff8dd"><path d="M 405 25 L 430 25 L 430 48.675781 L 405 48.675781 Z M 405 25 " clip-rule="nonzero"/></clipPath><clipPath id="3f79037e85"><path d="M 2 25 L 27 25 L 27 48.675781 L 2 48.675781 Z M 2 25 " clip-rule="nonzero"/></clipPath><clipPath id="80021c4b78"><path d="M 31 25 L 56 25 L 56 48.675781 L 31 48.675781 Z M 31 25 " clip-rule="nonzero"/></clipPath><clipPath id="14f08fd4a6"><path d="M 59 25 L 85 25 L 85 48.675781 L 59 48.675781 Z M 59 25 " clip-rule="nonzero"/></clipPath></defs><path fill="#ff5757" d="M 197.433594 26.660156 C 192.523438 23.871094 187.542969 30.8125 187.542969 30.8125 C 187.542969 30.8125 182.371094 23.785156 177.648438 26.660156 C 172.828125 29.597656 177.976562 43.214844 187.5625 47.886719 C 197.144531 43.214844 201.9375 29.214844 197.433594 26.660156 Z M 197.433594 26.660156 " fill-opacity="1" fill-rule="nonzero"/><g clip-path="url(#d963854324)"><path fill="#231f20" d="M 187.5625 48.371094 C 187.488281 48.371094 187.414062 48.355469 187.347656 48.324219 C 180.261719 44.867188 175.59375 36.773438 175.335938 31.253906 C 175.226562 28.863281 175.9375 27.132812 177.394531 26.242188 C 181.710938 23.613281 186.195312 28.394531 187.539062 30.019531 C 188.851562 28.40625 193.210938 23.703125 197.675781 26.234375 C 199.019531 27 199.695312 28.609375 199.621094 30.890625 C 199.445312 36.605469 194.640625 44.976562 187.773438 48.324219 C 187.707031 48.355469 187.632812 48.371094 187.558594 48.371094 Z M 180.058594 26.464844 C 179.339844 26.464844 178.613281 26.644531 177.902344 27.078125 C 176.46875 27.949219 176.246094 29.804688 176.3125 31.207031 C 176.554688 36.414062 181.121094 44.082031 187.5625 47.339844 C 193.996094 44.082031 198.480469 36.234375 198.648438 30.859375 C 198.707031 28.992188 198.191406 27.648438 197.195312 27.082031 C 192.722656 24.546875 187.984375 31.03125 187.9375 31.097656 C 187.847656 31.222656 187.699219 31.296875 187.542969 31.300781 C 187.390625 31.308594 187.242188 31.226562 187.148438 31.101562 C 187.109375 31.046875 183.679688 26.464844 180.054688 26.464844 Z M 180.058594 26.464844 " fill-opacity="1" fill-rule="nonzero"/></g><path fill="#ff5757" d="M 226.273438 26.660156 C 221.359375 23.871094 216.378906 30.8125 216.378906 30.8125 C 216.378906 30.8125 211.207031 23.785156 206.488281 26.660156 C 201.664062 29.597656 206.816406 43.214844 216.398438 47.886719 C 225.980469 43.214844 230.773438 29.214844 226.273438 26.660156 Z M 226.273438 26.660156 " fill-opacity="1" fill-rule="nonzero"/><g clip-path="url(#0e2fa3ae2a)"><path fill="#231f20" d="M 216.398438 48.371094 C 216.324219 48.371094 216.25 48.355469 216.183594 48.324219 C 209.097656 44.867188 204.429688 36.773438 204.171875 31.253906 C 204.0625 28.863281 204.773438 27.132812 206.234375 26.242188 C 210.546875 23.613281 215.03125 28.394531 216.375 30.019531 C 217.6875 28.40625 222.046875 23.703125 226.511719 26.234375 C 227.859375 27 228.53125 28.609375 228.460938 30.890625 C 228.28125 36.605469 223.476562 44.976562 216.609375 48.324219 C 216.542969 48.355469 216.46875 48.371094 216.398438 48.371094 Z M 208.894531 26.464844 C 208.175781 26.464844 207.449219 26.644531 206.742188 27.078125 C 205.304688 27.949219 205.082031 29.804688 205.148438 31.207031 C 205.390625 36.414062 209.957031 44.082031 216.398438 47.339844 C 222.832031 44.082031 227.316406 36.234375 227.484375 30.859375 C 227.542969 28.992188 227.027344 27.648438 226.03125 27.082031 C 221.558594 24.546875 216.820312 31.03125 216.773438 31.097656 C 216.683594 31.222656 216.539062 31.296875 216.382812 31.300781 C 216.226562 31.308594 216.078125 31.226562 215.988281 31.101562 C 215.945312 31.046875 212.515625 26.464844 208.894531 26.464844 Z M 208.894531 26.464844 " fill-opacity="1" fill-rule="nonzero"/></g><path fill="#ff5757" d="M 254.675781 26.660156 C 249.765625 23.871094 244.78125 30.8125 244.78125 30.8125 C 244.78125 30.8125 239.613281 23.785156 234.890625 26.660156 C 230.066406 29.597656 235.21875 43.214844 244.800781 47.886719 C 254.386719 43.214844 259.179688 29.214844 254.675781 26.660156 Z M 254.675781 26.660156 " fill-opacity="1" fill-rule="nonzero"/><g clip-path="url(#08d7ba05ef)"><path fill="#231f20" d="M 244.800781 48.371094 C 244.730469 48.371094 244.65625 48.355469 244.589844 48.324219 C 237.5 44.867188 232.835938 36.773438 232.578125 31.253906 C 232.464844 28.863281 233.179688 27.132812 234.636719 26.242188 C 238.953125 23.613281 243.433594 28.394531 244.78125 30.019531 C 246.09375 28.40625 250.453125 23.703125 254.917969 26.234375 C 256.261719 27 256.9375 28.609375 256.863281 30.890625 C 256.6875 36.605469 251.882812 44.976562 245.015625 48.324219 C 244.949219 48.355469 244.875 48.371094 244.800781 48.371094 Z M 237.296875 26.464844 C 236.578125 26.464844 235.851562 26.644531 235.144531 27.078125 C 233.707031 27.949219 233.484375 29.804688 233.550781 31.207031 C 233.792969 36.414062 238.363281 44.082031 244.800781 47.339844 C 251.238281 44.082031 255.722656 36.234375 255.890625 30.859375 C 255.949219 28.992188 255.433594 27.648438 254.433594 27.082031 C 249.964844 24.546875 245.226562 31.03125 245.179688 31.097656 C 245.085938 31.222656 244.941406 31.296875 244.785156 31.300781 C 244.628906 31.308594 244.484375 31.226562 244.390625 31.101562 C 244.347656 31.046875 240.921875 26.464844 237.296875 26.464844 Z M 237.296875 26.464844 " fill-opacity="1" fill-rule="nonzero"/></g><path fill="#ff5757" d="M 283.835938 26.660156 C 278.921875 23.871094 273.941406 30.8125 273.941406 30.8125 C 273.941406 30.8125 268.769531 23.785156 264.050781 26.660156 C 259.226562 29.597656 264.378906 43.214844 273.960938 47.886719 C 283.542969 43.214844 288.335938 29.214844 283.835938 26.660156 Z M 283.835938 26.660156 " fill-opacity="1" fill-rule="nonzero"/><g clip-path="url(#3cbb2d2901)"><path fill="#231f20" d="M 273.960938 48.371094 C 273.886719 48.371094 273.816406 48.355469 273.746094 48.324219 C 266.660156 44.867188 261.996094 36.773438 261.738281 31.253906 C 261.625 28.863281 262.335938 27.132812 263.796875 26.242188 C 268.109375 23.613281 272.59375 28.394531 273.9375 30.019531 C 275.25 28.40625 279.609375 23.703125 284.074219 26.234375 C 285.421875 27 286.09375 28.609375 286.023438 30.890625 C 285.84375 36.605469 281.039062 44.976562 274.171875 48.324219 C 274.105469 48.355469 274.03125 48.371094 273.960938 48.371094 Z M 266.457031 26.464844 C 265.738281 26.464844 265.011719 26.644531 264.304688 27.078125 C 262.867188 27.949219 262.644531 29.804688 262.710938 31.207031 C 262.953125 36.414062 267.519531 44.082031 273.960938 47.339844 C 280.394531 44.082031 284.878906 36.234375 285.046875 30.859375 C 285.109375 28.992188 284.589844 27.648438 283.59375 27.082031 C 279.121094 24.546875 274.382812 31.03125 274.335938 31.097656 C 274.246094 31.222656 274.101562 31.296875 273.945312 31.300781 C 273.792969 31.308594 273.640625 31.226562 273.550781 31.101562 C 273.507812 31.046875 270.078125 26.464844 266.457031 26.464844 Z M 266.457031 26.464844 " fill-opacity="1" fill-rule="nonzero"/></g><path fill="#ff5757" d="M 312.671875 26.660156 C 307.761719 23.871094 302.78125 30.8125 302.78125 30.8125 C 302.78125 30.8125 297.609375 23.785156 292.886719 26.660156 C 288.0625 29.597656 293.214844 43.214844 302.796875 47.886719 C 312.382812 43.214844 317.175781 29.214844 312.671875 26.660156 Z M 312.671875 26.660156 " fill-opacity="1" fill-rule="nonzero"/><g clip-path="url(#56e47f6b81)"><path fill="#231f20" d="M 302.796875 48.371094 C 302.722656 48.371094 302.652344 48.355469 302.585938 48.324219 C 295.496094 44.867188 290.832031 36.773438 290.574219 31.253906 C 290.460938 28.863281 291.175781 27.132812 292.632812 26.242188 C 296.949219 23.613281 301.429688 28.394531 302.773438 30.019531 C 304.089844 28.40625 308.445312 23.703125 312.914062 26.234375 C 314.257812 27 314.933594 28.609375 314.859375 30.890625 C 314.679688 36.605469 309.875 44.976562 303.011719 48.324219 C 302.941406 48.355469 302.871094 48.371094 302.796875 48.371094 Z M 295.292969 26.464844 C 294.574219 26.464844 293.847656 26.644531 293.140625 27.078125 C 291.703125 27.949219 291.480469 29.804688 291.546875 31.207031 C 291.789062 36.414062 296.359375 44.082031 302.796875 47.339844 C 309.234375 44.082031 313.71875 36.234375 313.886719 30.859375 C 313.945312 28.992188 313.429688 27.648438 312.429688 27.082031 C 307.960938 24.546875 303.222656 31.03125 303.175781 31.097656 C 303.082031 31.222656 302.9375 31.296875 302.78125 31.300781 C 302.625 31.308594 302.480469 31.226562 302.386719 31.101562 C 302.347656 31.046875 298.917969 26.464844 295.292969 26.464844 Z M 295.292969 26.464844 " fill-opacity="1" fill-rule="nonzero"/></g><path fill="#ff5757" d="M 341.074219 26.660156 C 336.164062 23.871094 331.183594 30.8125 331.183594 30.8125 C 331.183594 30.8125 326.011719 23.785156 321.289062 26.660156 C 316.46875 29.597656 321.617188 43.214844 331.203125 47.886719 C 340.785156 43.214844 345.578125 29.214844 341.074219 26.660156 Z M 341.074219 26.660156 " fill-opacity="1" fill-rule="nonzero"/><g clip-path="url(#513b4891bc)"><path fill="#231f20" d="M 331.203125 48.371094 C 331.128906 48.371094 331.054688 48.355469 330.988281 48.324219 C 323.902344 44.867188 319.234375 36.773438 318.976562 31.253906 C 318.867188 28.863281 319.578125 27.132812 321.039062 26.242188 C 325.351562 23.613281 329.835938 28.394531 331.179688 30.019531 C 332.492188 28.40625 336.851562 23.703125 341.316406 26.234375 C 342.664062 27 343.335938 28.609375 343.265625 30.890625 C 343.085938 36.605469 338.28125 44.976562 331.414062 48.324219 C 331.347656 48.355469 331.273438 48.371094 331.203125 48.371094 Z M 323.699219 26.464844 C 322.980469 26.464844 322.253906 26.644531 321.542969 27.078125 C 320.109375 27.949219 319.886719 29.804688 319.953125 31.207031 C 320.195312 36.414062 324.761719 44.082031 331.203125 47.339844 C 337.636719 44.082031 342.121094 36.234375 342.289062 30.859375 C 342.347656 28.992188 341.832031 27.648438 340.835938 27.082031 C 336.363281 24.546875 331.625 31.03125 331.578125 31.097656 C 331.488281 31.222656 331.34375 31.296875 331.1875 31.300781 C 331.03125 31.308594 330.882812 31.226562 330.789062 31.101562 C 330.75 31.046875 327.320312 26.464844 323.699219 26.464844 Z M 323.699219 26.464844 " fill-opacity="1" fill-rule="nonzero"/></g><path fill="#ff5757" d="M 111.035156 26.660156 C 106.125 23.871094 101.140625 30.8125 101.140625 30.8125 C 101.140625 30.8125 95.972656 23.785156 91.25 26.660156 C 86.425781 29.597656 91.578125 43.214844 101.160156 47.886719 C 110.742188 43.214844 115.535156 29.214844 111.035156 26.660156 Z M 111.035156 26.660156 " fill-opacity="1" fill-rule="nonzero"/><g clip-path="url(#3fa4c0fa07)"><path fill="#231f20" d="M 101.160156 48.371094 C 101.085938 48.371094 101.015625 48.355469 100.949219 48.324219 C 93.859375 44.867188 89.195312 36.773438 88.9375 31.253906 C 88.824219 28.863281 89.535156 27.132812 90.996094 26.242188 C 95.3125 23.613281 99.792969 28.394531 101.136719 30.019531 C 102.449219 28.40625 106.808594 23.703125 111.273438 26.234375 C 112.621094 27 113.292969 28.609375 113.222656 30.890625 C 113.042969 36.605469 108.238281 44.976562 101.375 48.324219 C 101.304688 48.355469 101.230469 48.371094 101.160156 48.371094 Z M 93.65625 26.464844 C 92.9375 26.464844 92.210938 26.644531 91.503906 27.078125 C 90.066406 27.949219 89.84375 29.804688 89.910156 31.207031 C 90.152344 36.414062 94.71875 44.082031 101.160156 47.339844 C 107.597656 44.082031 112.082031 36.234375 112.25 30.859375 C 112.308594 28.992188 111.789062 27.648438 110.792969 27.082031 C 106.324219 24.546875 101.585938 31.03125 101.539062 31.097656 C 101.445312 31.222656 101.300781 31.296875 101.144531 31.300781 C 100.992188 31.308594 100.84375 31.226562 100.75 31.101562 C 100.707031 31.046875 97.28125 26.464844 93.65625 26.464844 Z M 93.65625 26.464844 " fill-opacity="1" fill-rule="nonzero"/></g><path fill="#ff5757" d="M 139.871094 26.660156 C 134.960938 23.871094 129.980469 30.8125 129.980469 30.8125 C 129.980469 30.8125 124.808594 23.785156 120.085938 26.660156 C 115.265625 29.597656 120.414062 43.214844 130 47.886719 C 139.582031 43.214844 144.375 29.214844 139.871094 26.660156 Z M 139.871094 26.660156 " fill-opacity="1" fill-rule="nonzero"/><g clip-path="url(#34e64368bb)"><path fill="#231f20" d="M 129.996094 48.371094 C 129.925781 48.371094 129.851562 48.355469 129.785156 48.324219 C 122.695312 44.867188 118.03125 36.773438 117.773438 31.253906 C 117.660156 28.863281 118.375 27.132812 119.832031 26.242188 C 124.148438 23.613281 128.628906 28.394531 129.976562 30.019531 C 131.289062 28.40625 135.648438 23.703125 140.113281 26.234375 C 141.457031 27 142.132812 28.609375 142.058594 30.890625 C 141.882812 36.605469 137.078125 44.976562 130.210938 48.324219 C 130.144531 48.355469 130.070312 48.371094 129.996094 48.371094 Z M 122.496094 26.464844 C 121.777344 26.464844 121.050781 26.644531 120.339844 27.078125 C 118.90625 27.949219 118.683594 29.804688 118.746094 31.207031 C 118.992188 36.414062 123.558594 44.082031 130 47.339844 C 136.433594 44.082031 140.917969 36.234375 141.085938 30.859375 C 141.144531 28.992188 140.628906 27.648438 139.632812 27.082031 C 135.160156 24.546875 130.421875 31.03125 130.375 31.097656 C 130.285156 31.222656 130.136719 31.296875 129.980469 31.300781 C 129.824219 31.308594 129.679688 31.226562 129.585938 31.101562 C 129.546875 31.046875 126.117188 26.464844 122.492188 26.464844 Z M 122.496094 26.464844 " fill-opacity="1" fill-rule="nonzero"/></g><path fill="#ff5757" d="M 168.277344 26.660156 C 163.363281 23.871094 158.382812 30.8125 158.382812 30.8125 C 158.382812 30.8125 153.210938 23.785156 148.492188 26.660156 C 143.667969 29.597656 148.816406 43.214844 158.402344 47.886719 C 167.984375 43.214844 172.777344 29.214844 168.277344 26.660156 Z M 168.277344 26.660156 " fill-opacity="1" fill-rule="nonzero"/><g clip-path="url(#865264670f)"><path fill="#231f20" d="M 158.402344 48.371094 C 158.328125 48.371094 158.253906 48.355469 158.1875 48.324219 C 151.101562 44.867188 146.4375 36.773438 146.179688 31.253906 C 146.066406 28.863281 146.777344 27.132812 148.238281 26.242188 C 152.554688 23.613281 157.035156 28.394531 158.378906 30.019531 C 159.691406 28.40625 164.050781 23.703125 168.515625 26.234375 C 169.863281 27 170.535156 28.609375 170.464844 30.890625 C 170.285156 36.605469 165.480469 44.976562 158.617188 48.324219 C 158.546875 48.355469 158.472656 48.371094 158.402344 48.371094 Z M 150.898438 26.464844 C 150.179688 26.464844 149.453125 26.644531 148.746094 27.078125 C 147.308594 27.949219 147.085938 29.804688 147.152344 31.207031 C 147.394531 36.414062 151.960938 44.082031 158.402344 47.339844 C 164.835938 44.082031 169.320312 36.234375 169.488281 30.859375 C 169.546875 28.992188 169.03125 27.648438 168.035156 27.082031 C 163.5625 24.546875 158.824219 31.03125 158.777344 31.097656 C 158.6875 31.222656 158.542969 31.296875 158.386719 31.300781 C 158.230469 31.308594 158.082031 31.226562 157.988281 31.101562 C 157.949219 31.046875 154.519531 26.464844 150.898438 26.464844 Z M 150.898438 26.464844 " fill-opacity="1" fill-rule="nonzero"/></g><path fill="#ff5757" d="M 370.234375 26.660156 C 365.324219 23.871094 360.34375 30.8125 360.34375 30.8125 C 360.34375 30.8125 355.171875 23.785156 350.449219 26.660156 C 345.625 29.597656 350.777344 43.214844 360.359375 47.886719 C 369.945312 43.214844 374.738281 29.214844 370.234375 26.660156 Z M 370.234375 26.660156 " fill-opacity="1" fill-rule="nonzero"/><g clip-path="url(#37c57ab3d8)"><path fill="#231f20" d="M 360.359375 48.371094 C 360.289062 48.371094 360.214844 48.355469 360.148438 48.324219 C 353.058594 44.867188 348.394531 36.773438 348.136719 31.253906 C 348.023438 28.863281 348.738281 27.132812 350.195312 26.242188 C 354.511719 23.613281 358.992188 28.394531 360.335938 30.019531 C 361.652344 28.40625 366.007812 23.703125 370.476562 26.234375 C 371.820312 27 372.496094 28.609375 372.421875 30.890625 C 372.242188 36.605469 367.4375 44.976562 360.574219 48.324219 C 360.503906 48.355469 360.433594 48.371094 360.359375 48.371094 Z M 352.859375 26.464844 C 352.136719 26.464844 351.414062 26.644531 350.703125 27.078125 C 349.269531 27.949219 349.042969 29.804688 349.109375 31.207031 C 349.355469 36.414062 353.921875 44.082031 360.359375 47.339844 C 366.796875 44.082031 371.28125 36.234375 371.449219 30.859375 C 371.507812 28.992188 370.992188 27.648438 369.992188 27.082031 C 365.523438 24.546875 360.785156 31.03125 360.738281 31.097656 C 360.644531 31.222656 360.5 31.296875 360.34375 31.300781 C 360.191406 31.308594 360.042969 31.226562 359.949219 31.101562 C 359.910156 31.046875 356.480469 26.464844 352.855469 26.464844 Z M 352.859375 26.464844 " fill-opacity="1" fill-rule="nonzero"/></g><path fill="#ff5757" d="M 399.070312 26.660156 C 394.160156 23.871094 389.179688 30.8125 389.179688 30.8125 C 389.179688 30.8125 384.007812 23.785156 379.285156 26.660156 C 374.464844 29.597656 379.613281 43.214844 389.199219 47.886719 C 398.78125 43.214844 403.574219 29.214844 399.070312 26.660156 Z M 399.070312 26.660156 " fill-opacity="1" fill-rule="nonzero"/><g clip-path="url(#f8e5f98c10)"><path fill="#231f20" d="M 389.199219 48.371094 C 389.125 48.371094 389.050781 48.355469 388.984375 48.324219 C 381.898438 44.867188 377.230469 36.773438 376.972656 31.253906 C 376.859375 28.863281 377.574219 27.132812 379.03125 26.242188 C 383.347656 23.613281 387.832031 28.394531 389.175781 30.019531 C 390.488281 28.40625 394.847656 23.703125 399.3125 26.234375 C 400.660156 27 401.332031 28.609375 401.261719 30.890625 C 401.082031 36.605469 396.277344 44.976562 389.410156 48.324219 C 389.34375 48.355469 389.269531 48.371094 389.199219 48.371094 Z M 381.695312 26.464844 C 380.976562 26.464844 380.25 26.644531 379.539062 27.078125 C 378.105469 27.949219 377.882812 29.804688 377.949219 31.207031 C 378.191406 36.414062 382.757812 44.082031 389.199219 47.339844 C 395.632812 44.082031 400.117188 36.234375 400.285156 30.859375 C 400.34375 28.992188 399.828125 27.648438 398.832031 27.082031 C 394.359375 24.546875 389.621094 31.03125 389.574219 31.097656 C 389.484375 31.222656 389.339844 31.296875 389.183594 31.300781 C 389.027344 31.308594 388.878906 31.226562 388.785156 31.101562 C 388.746094 31.046875 385.316406 26.464844 381.695312 26.464844 Z M 381.695312 26.464844 " fill-opacity="1" fill-rule="nonzero"/></g><path fill="#ff5757" d="M 427.476562 26.660156 C 422.566406 23.871094 417.582031 30.8125 417.582031 30.8125 C 417.582031 30.8125 412.410156 23.785156 407.691406 26.660156 C 402.867188 29.597656 408.019531 43.214844 417.601562 47.886719 C 427.1875 43.214844 431.980469 29.214844 427.476562 26.660156 Z M 427.476562 26.660156 " fill-opacity="1" fill-rule="nonzero"/><g clip-path="url(#55886ff8dd)"><path fill="#231f20" d="M 417.601562 48.371094 C 417.527344 48.371094 417.457031 48.355469 417.390625 48.324219 C 410.300781 44.867188 405.636719 36.773438 405.378906 31.253906 C 405.265625 28.863281 405.980469 27.132812 407.4375 26.242188 C 411.753906 23.613281 416.234375 28.394531 417.578125 30.019531 C 418.894531 28.40625 423.25 23.703125 427.71875 26.234375 C 429.0625 27 429.738281 28.609375 429.664062 30.890625 C 429.484375 36.605469 424.679688 44.976562 417.816406 48.324219 C 417.746094 48.355469 417.675781 48.371094 417.601562 48.371094 Z M 410.097656 26.464844 C 409.378906 26.464844 408.652344 26.644531 407.945312 27.078125 C 406.507812 27.949219 406.285156 29.804688 406.351562 31.207031 C 406.59375 36.414062 411.160156 44.082031 417.601562 47.339844 C 424.035156 44.082031 428.523438 36.234375 428.691406 30.859375 C 428.75 28.992188 428.230469 27.648438 427.234375 27.082031 C 422.761719 24.546875 418.027344 31.03125 417.980469 31.097656 C 417.886719 31.222656 417.742188 31.296875 417.585938 31.300781 C 417.429688 31.308594 417.285156 31.226562 417.191406 31.101562 C 417.148438 31.046875 413.71875 26.464844 410.097656 26.464844 Z M 410.097656 26.464844 " fill-opacity="1" fill-rule="nonzero"/></g><path fill="#ff5757" d="M 24.636719 26.660156 C 19.722656 23.871094 14.742188 30.8125 14.742188 30.8125 C 14.742188 30.8125 9.570312 23.785156 4.847656 26.660156 C 0.0273438 29.597656 5.175781 43.214844 14.761719 47.886719 C 24.34375 43.214844 29.136719 29.214844 24.636719 26.660156 Z M 24.636719 26.660156 " fill-opacity="1" fill-rule="nonzero"/><g clip-path="url(#3f79037e85)"><path fill="#231f20" d="M 14.761719 48.371094 C 14.6875 48.371094 14.613281 48.355469 14.546875 48.324219 C 7.460938 44.867188 2.792969 36.773438 2.535156 31.253906 C 2.425781 28.863281 3.136719 27.132812 4.59375 26.242188 C 8.910156 23.613281 13.394531 28.394531 14.738281 30.019531 C 16.050781 28.40625 20.410156 23.703125 24.875 26.234375 C 26.222656 27 26.894531 28.609375 26.824219 30.890625 C 26.644531 36.605469 21.839844 44.976562 14.972656 48.324219 C 14.90625 48.355469 14.832031 48.371094 14.761719 48.371094 Z M 7.257812 26.464844 C 6.539062 26.464844 5.8125 26.644531 5.101562 27.078125 C 3.667969 27.949219 3.445312 29.804688 3.511719 31.207031 C 3.753906 36.414062 8.320312 44.082031 14.761719 47.339844 C 21.195312 44.082031 25.679688 36.234375 25.847656 30.859375 C 25.90625 28.992188 25.390625 27.648438 24.394531 27.082031 C 19.921875 24.546875 15.183594 31.03125 15.136719 31.097656 C 15.046875 31.222656 14.902344 31.296875 14.746094 31.300781 C 14.589844 31.308594 14.441406 31.226562 14.347656 31.101562 C 14.308594 31.046875 10.878906 26.464844 7.257812 26.464844 Z M 7.257812 26.464844 " fill-opacity="1" fill-rule="nonzero"/></g><path fill="#ff5757" d="M 53.472656 26.660156 C 48.5625 23.871094 43.578125 30.8125 43.578125 30.8125 C 43.578125 30.8125 38.40625 23.785156 33.6875 26.660156 C 28.863281 29.597656 34.015625 43.214844 43.597656 47.886719 C 53.183594 43.214844 57.976562 29.214844 53.472656 26.660156 Z M 53.472656 26.660156 " fill-opacity="1" fill-rule="nonzero"/><g clip-path="url(#80021c4b78)"><path fill="#231f20" d="M 43.597656 48.371094 C 43.523438 48.371094 43.449219 48.355469 43.382812 48.324219 C 36.296875 44.867188 31.632812 36.773438 31.375 31.253906 C 31.261719 28.863281 31.972656 27.132812 33.433594 26.242188 C 37.75 23.613281 42.230469 28.394531 43.574219 30.019531 C 44.886719 28.40625 49.246094 23.703125 53.710938 26.234375 C 55.058594 27 55.730469 28.609375 55.660156 30.890625 C 55.480469 36.605469 50.675781 44.976562 43.8125 48.324219 C 43.742188 48.355469 43.667969 48.371094 43.597656 48.371094 Z M 36.09375 26.464844 C 35.375 26.464844 34.648438 26.644531 33.941406 27.078125 C 32.503906 27.949219 32.28125 29.804688 32.347656 31.207031 C 32.589844 36.414062 37.15625 44.082031 43.597656 47.339844 C 50.035156 44.082031 54.519531 36.234375 54.6875 30.859375 C 54.746094 28.992188 54.226562 27.648438 53.230469 27.082031 C 48.757812 24.546875 44.023438 31.03125 43.976562 31.097656 C 43.882812 31.222656 43.738281 31.296875 43.582031 31.300781 C 43.425781 31.308594 43.28125 31.226562 43.1875 31.101562 C 43.144531 31.046875 39.71875 26.464844 36.09375 26.464844 Z M 36.09375 26.464844 " fill-opacity="1" fill-rule="nonzero"/></g><path fill="#ff5757" d="M 81.875 26.660156 C 76.964844 23.871094 71.984375 30.8125 71.984375 30.8125 C 71.984375 30.8125 66.8125 23.785156 62.089844 26.660156 C 57.269531 29.597656 62.417969 43.214844 72.003906 47.886719 C 81.585938 43.214844 86.378906 29.214844 81.875 26.660156 Z M 81.875 26.660156 " fill-opacity="1" fill-rule="nonzero"/><g clip-path="url(#14f08fd4a6)"><path fill="#231f20" d="M 72.003906 48.371094 C 71.929688 48.371094 71.855469 48.355469 71.789062 48.324219 C 64.703125 44.867188 60.035156 36.773438 59.777344 31.253906 C 59.664062 28.863281 60.378906 27.132812 61.835938 26.242188 C 66.152344 23.613281 70.636719 28.394531 71.980469 30.019531 C 73.292969 28.40625 77.652344 23.703125 82.117188 26.234375 C 83.464844 27 84.136719 28.609375 84.066406 30.890625 C 83.886719 36.605469 79.082031 44.976562 72.214844 48.324219 C 72.148438 48.355469 72.074219 48.371094 72.003906 48.371094 Z M 64.5 26.464844 C 63.78125 26.464844 63.054688 26.644531 62.34375 27.078125 C 60.910156 27.949219 60.6875 29.804688 60.75 31.207031 C 60.996094 36.414062 65.5625 44.082031 72.003906 47.339844 C 78.4375 44.082031 82.921875 36.234375 83.089844 30.859375 C 83.148438 28.992188 82.632812 27.648438 81.632812 27.082031 C 77.164062 24.546875 72.425781 31.03125 72.378906 31.097656 C 72.289062 31.222656 72.140625 31.296875 71.984375 31.300781 C 71.832031 31.308594 71.683594 31.226562 71.589844 31.101562 C 71.550781 31.046875 68.121094 26.464844 64.496094 26.464844 Z M 64.5 26.464844 " fill-opacity="1" fill-rule="nonzero"/></g></svg>