<svg xmlns="http://www.w3.org/2000/svg" xmlns:xlink="http://www.w3.org/1999/xlink" width="500" zoomAndPan="magnify" viewBox="0 0 375 374.999991" height="500" preserveAspectRatio="xMidYMid meet" version="1.0"><defs><clipPath id="b2373d9a73"><path d="M 52 10 L 369 10 L 369 285 L 52 285 Z M 52 10 " clip-rule="nonzero"/></clipPath><clipPath id="6b756d8348"><path d="M 145.035156 -64.367188 L 368.582031 58.3125 L 230.027344 310.792969 L 6.476562 188.113281 Z M 145.035156 -64.367188 " clip-rule="nonzero"/></clipPath><clipPath id="7e52fbdb85"><path d="M 145.035156 -64.367188 L 466.550781 112.078125 L 327.996094 364.558594 L 6.476562 188.113281 Z M 145.035156 -64.367188 " clip-rule="nonzero"/></clipPath></defs><g clip-path="url(#b2373d9a73)"><g clip-path="url(#6b756d8348)"><g clip-path="url(#7e52fbdb85)"><path fill="#000000" d="M 342.851562 77.105469 C 334.710938 88.457031 322.273438 98.9375 316.035156 104.113281 C 299.515625 117.769531 281.886719 129.964844 263.355469 140.710938 C 258.027344 143.839844 251.082031 146.824219 246.011719 143.296875 C 243.371094 141.527344 241.90625 138.390625 240.644531 135.46875 C 227.90625 105.863281 216.058594 74.835938 215.917969 42.589844 C 215.902344 33.132812 217.214844 22.808594 224.089844 16.285156 C 234.335938 6.511719 252.457031 10.828125 261.796875 21.476562 C 271.136719 32.121094 273.859375 46.890625 275.824219 60.917969 C 288.066406 49.058594 304.589844 41.777344 321.589844 40.59375 C 328.980469 40.085938 336.824219 40.886719 342.867188 45.15625 C 354.671875 53.441406 351.039062 65.671875 342.851562 77.105469 Z M 149.671875 74.5 C 152.636719 85.152344 152.929688 98.160156 153.019531 104.578125 C 153.242188 121.582031 152.09375 138.574219 149.496094 155.304688 C 148.722656 160.191406 147.171875 165.921875 142.449219 167.367188 C 140.003906 168.148438 137.40625 167.464844 134.933594 166.746094 C 110.246094 159.882812 85.191406 151.761719 65.136719 135.871094 C 59.316406 131.191406 53.546875 125.265625 52.917969 117.703125 C 51.976562 106.460938 63.609375 97.449219 74.832031 96.921875 C 86.058594 96.394531 96.628906 102.085938 106.199219 107.867188 C 105.007812 94.367188 108.660156 80.554688 116.375 69.394531 C 119.769531 64.566406 124.148438 60.070312 129.707031 58.449219 C 140.820312 55.417969 146.625 63.804688 149.671875 74.5 Z M 263.453125 238.230469 C 256.136719 246.53125 245.402344 253.910156 240.140625 257.496094 C 226.03125 266.957031 211.175781 275.257812 195.699219 282.371094 C 191.207031 284.367188 185.511719 286.230469 181.71875 283.085938 C 179.738281 281.46875 178.921875 278.898438 178.140625 276.453125 C 170.328125 251.992188 163.425781 226.652344 165.859375 201.128906 C 166.5625 193.65625 168.457031 185.566406 174.378906 180.960938 C 183.265625 174.050781 197.207031 178.835938 203.769531 187.957031 C 210.335938 197.082031 211.339844 208.992188 211.742188 220.253906 C 222.390625 211.871094 235.9375 207.308594 249.5 207.746094 C 255.367188 207.886719 261.484375 209.121094 265.964844 212.957031 C 274.589844 220.453125 270.734375 229.800781 263.453125 238.230469 Z M 409.570312 209.164062 C 402.253906 217.464844 391.515625 224.84375 386.253906 228.433594 C 372.144531 237.890625 357.289062 246.195312 341.8125 253.308594 C 337.320312 255.304688 331.628906 257.167969 327.832031 254.023438 C 325.851562 252.40625 325.035156 249.835938 324.253906 247.386719 C 316.441406 222.929688 309.539062 197.589844 311.972656 172.0625 C 312.675781 164.59375 314.570312 156.5 320.496094 151.894531 C 329.382812 144.988281 343.320312 149.769531 349.886719 158.894531 C 356.449219 168.019531 357.453125 179.929688 357.855469 191.191406 C 368.503906 182.808594 382.050781 178.246094 395.613281 178.679688 C 401.484375 178.824219 407.601562 180.054688 412.078125 183.894531 C 420.832031 191.351562 416.929688 200.78125 409.570312 209.164062 Z M 409.570312 209.164062 " fill-opacity="1" fill-rule="nonzero"/></g></g></g></svg>