<svg xmlns="http://www.w3.org/2000/svg" xmlns:xlink="http://www.w3.org/1999/xlink" width="500" zoomAndPan="magnify" viewBox="0 0 375 374.999991" height="500" preserveAspectRatio="xMidYMid meet" version="1.0"><defs><clipPath id="020e9c4290"><path d="M 139 10 L 169 10 L 169 37.84375 L 139 37.84375 Z M 139 10 " clip-rule="nonzero"/></clipPath><clipPath id="fa3b178a39"><path d="M 173 10 L 203 10 L 203 37.84375 L 173 37.84375 Z M 173 10 " clip-rule="nonzero"/></clipPath><clipPath id="8c850efc23"><path d="M 207 10 L 236 10 L 236 37.84375 L 207 37.84375 Z M 207 10 " clip-rule="nonzero"/></clipPath><clipPath id="a6cd6ab2e8"><path d="M 241 10 L 270 10 L 270 37.84375 L 241 37.84375 Z M 241 10 " clip-rule="nonzero"/></clipPath><clipPath id="e706988d3b"><path d="M 275 10 L 304 10 L 304 37.84375 L 275 37.84375 Z M 275 10 " clip-rule="nonzero"/></clipPath><clipPath id="d04d5b6286"><path d="M 308 10 L 338 10 L 338 37.84375 L 308 37.84375 Z M 308 10 " clip-rule="nonzero"/></clipPath><clipPath id="0309402762"><path d="M 37 10 L 67 10 L 67 37.84375 L 37 37.84375 Z M 37 10 " clip-rule="nonzero"/></clipPath><clipPath id="44aec24e8c"><path d="M 71 10 L 101 10 L 101 37.84375 L 71 37.84375 Z M 71 10 " clip-rule="nonzero"/></clipPath><clipPath id="d31f39ae8f"><path d="M 105 10 L 134 10 L 134 37.84375 L 105 37.84375 Z M 105 10 " clip-rule="nonzero"/></clipPath><clipPath id="d2382e9975"><path d="M 343 10 L 372 10 L 372 37.84375 L 343 37.84375 Z M 343 10 " clip-rule="nonzero"/></clipPath><clipPath id="db8555276e"><path d="M 3 10 L 33 10 L 33 37.84375 L 3 37.84375 Z M 3 10 " clip-rule="nonzero"/></clipPath></defs><path fill="#ff5757" d="M 165.644531 11.929688 C 159.863281 8.648438 154 16.816406 154 16.816406 C 154 16.816406 147.910156 8.542969 142.355469 11.929688 C 136.675781 15.386719 142.738281 31.414062 154.023438 36.917969 C 165.304688 31.417969 170.945312 14.9375 165.644531 11.929688 Z M 165.644531 11.929688 " fill-opacity="1" fill-rule="nonzero"/><g clip-path="url(#020e9c4290)"><path fill="#231f20" d="M 154.023438 37.488281 C 153.9375 37.488281 153.851562 37.46875 153.769531 37.429688 C 145.425781 33.363281 139.933594 23.835938 139.632812 17.335938 C 139.5 14.523438 140.335938 12.484375 142.054688 11.4375 C 147.136719 8.34375 152.410156 13.972656 153.996094 15.886719 C 155.539062 13.984375 160.671875 8.445312 165.929688 11.429688 C 167.511719 12.328125 168.304688 14.222656 168.21875 16.910156 C 168.011719 23.640625 162.355469 33.492188 154.273438 37.429688 C 154.191406 37.46875 154.105469 37.488281 154.019531 37.488281 Z M 145.1875 11.699219 C 144.34375 11.699219 143.488281 11.910156 142.652344 12.417969 C 140.964844 13.449219 140.699219 15.632812 140.777344 17.28125 C 141.0625 23.414062 146.441406 32.441406 154.023438 36.277344 C 161.597656 32.4375 166.875 23.199219 167.074219 16.875 C 167.144531 14.671875 166.535156 13.09375 165.359375 12.429688 C 160.097656 9.441406 154.519531 17.074219 154.464844 17.152344 C 154.359375 17.300781 154.1875 17.390625 154.003906 17.390625 C 153.820312 17.398438 153.648438 17.304688 153.535156 17.15625 C 153.488281 17.089844 149.453125 11.699219 145.1875 11.699219 Z M 145.1875 11.699219 " fill-opacity="1" fill-rule="nonzero"/></g><path fill="#ff5757" d="M 199.59375 11.929688 C 193.8125 8.648438 187.945312 16.816406 187.945312 16.816406 C 187.945312 16.816406 181.859375 8.542969 176.300781 11.929688 C 170.625 15.386719 176.6875 31.414062 187.96875 36.917969 C 199.25 31.417969 204.894531 14.9375 199.59375 11.929688 Z M 199.59375 11.929688 " fill-opacity="1" fill-rule="nonzero"/><g clip-path="url(#fa3b178a39)"><path fill="#231f20" d="M 187.96875 37.488281 C 187.882812 37.488281 187.796875 37.46875 187.71875 37.429688 C 179.375 33.363281 173.882812 23.832031 173.578125 17.335938 C 173.445312 14.523438 174.285156 12.484375 176.003906 11.4375 C 181.082031 8.34375 186.359375 13.972656 187.941406 15.886719 C 189.488281 13.984375 194.617188 8.445312 199.875 11.429688 C 201.460938 12.328125 202.253906 14.222656 202.167969 16.910156 C 201.957031 23.640625 196.300781 33.492188 188.21875 37.429688 C 188.140625 37.46875 188.054688 37.488281 187.96875 37.488281 Z M 179.136719 11.699219 C 178.289062 11.699219 177.433594 11.910156 176.601562 12.417969 C 174.910156 13.449219 174.648438 15.632812 174.726562 17.28125 C 175.011719 23.414062 180.386719 32.441406 187.96875 36.277344 C 195.542969 32.4375 200.824219 23.199219 201.019531 16.875 C 201.089844 14.671875 200.480469 13.09375 199.308594 12.429688 C 194.042969 9.441406 188.46875 17.074219 188.414062 17.152344 C 188.304688 17.300781 188.132812 17.390625 187.949219 17.390625 C 187.765625 17.398438 187.59375 17.304688 187.484375 17.15625 C 187.4375 17.089844 183.398438 11.699219 179.132812 11.699219 Z M 179.136719 11.699219 " fill-opacity="1" fill-rule="nonzero"/></g><path fill="#ff5757" d="M 233.027344 11.929688 C 227.246094 8.648438 221.382812 16.816406 221.382812 16.816406 C 221.382812 16.816406 215.296875 8.542969 209.738281 11.929688 C 204.058594 15.386719 210.125 31.414062 221.40625 36.917969 C 232.6875 31.417969 238.328125 14.9375 233.027344 11.929688 Z M 233.027344 11.929688 " fill-opacity="1" fill-rule="nonzero"/><g clip-path="url(#8c850efc23)"><path fill="#231f20" d="M 221.40625 37.488281 C 221.320312 37.488281 221.234375 37.46875 221.15625 37.429688 C 212.8125 33.363281 207.320312 23.832031 207.015625 17.335938 C 206.882812 14.523438 207.722656 12.484375 209.441406 11.4375 C 214.519531 8.34375 219.796875 13.972656 221.378906 15.886719 C 222.925781 13.984375 228.054688 8.445312 233.3125 11.429688 C 234.898438 12.328125 235.691406 14.222656 235.605469 16.910156 C 235.394531 23.640625 229.738281 33.492188 221.65625 37.429688 C 221.578125 37.46875 221.492188 37.488281 221.40625 37.488281 Z M 212.574219 11.699219 C 211.726562 11.699219 210.871094 11.910156 210.035156 12.417969 C 208.347656 13.449219 208.085938 15.632812 208.160156 17.28125 C 208.449219 23.414062 213.824219 32.441406 221.40625 36.277344 C 228.980469 32.4375 234.261719 23.199219 234.457031 16.875 C 234.527344 14.671875 233.917969 13.09375 232.746094 12.429688 C 227.480469 9.441406 221.902344 17.074219 221.847656 17.152344 C 221.742188 17.300781 221.570312 17.390625 221.386719 17.390625 C 221.203125 17.398438 221.03125 17.304688 220.921875 17.15625 C 220.871094 17.089844 216.835938 11.699219 212.570312 11.699219 Z M 212.574219 11.699219 " fill-opacity="1" fill-rule="nonzero"/></g><path fill="#ff5757" d="M 267.355469 11.929688 C 261.574219 8.648438 255.707031 16.816406 255.707031 16.816406 C 255.707031 16.816406 249.621094 8.542969 244.0625 11.929688 C 238.386719 15.386719 244.449219 31.414062 255.730469 36.917969 C 267.011719 31.417969 272.652344 14.9375 267.355469 11.929688 Z M 267.355469 11.929688 " fill-opacity="1" fill-rule="nonzero"/><g clip-path="url(#a6cd6ab2e8)"><path fill="#231f20" d="M 255.730469 37.488281 C 255.644531 37.488281 255.558594 37.46875 255.480469 37.429688 C 247.136719 33.363281 241.644531 23.835938 241.339844 17.335938 C 241.210938 14.523438 242.046875 12.484375 243.765625 11.4375 C 248.84375 8.34375 254.121094 13.972656 255.703125 15.886719 C 257.25 13.984375 262.378906 8.445312 267.636719 11.429688 C 269.222656 12.328125 270.015625 14.222656 269.929688 16.910156 C 269.71875 23.640625 264.0625 33.492188 255.980469 37.429688 C 255.902344 37.46875 255.816406 37.488281 255.730469 37.488281 Z M 246.898438 11.699219 C 246.050781 11.699219 245.195312 11.910156 244.363281 12.417969 C 242.671875 13.449219 242.410156 15.632812 242.488281 17.28125 C 242.773438 23.414062 248.148438 32.441406 255.730469 36.277344 C 263.304688 32.4375 268.585938 23.199219 268.785156 16.875 C 268.851562 14.671875 268.246094 13.09375 267.070312 12.429688 C 261.808594 9.441406 256.230469 17.074219 256.175781 17.152344 C 256.066406 17.300781 255.894531 17.390625 255.710938 17.390625 C 255.53125 17.398438 255.355469 17.304688 255.246094 17.15625 C 255.199219 17.089844 251.160156 11.699219 246.898438 11.699219 Z M 246.898438 11.699219 " fill-opacity="1" fill-rule="nonzero"/></g><path fill="#ff5757" d="M 301.300781 11.929688 C 295.519531 8.648438 289.65625 16.816406 289.65625 16.816406 C 289.65625 16.816406 283.566406 8.542969 278.011719 11.929688 C 272.332031 15.386719 278.394531 31.414062 289.679688 36.917969 C 300.960938 31.417969 306.601562 14.9375 301.300781 11.929688 Z M 301.300781 11.929688 " fill-opacity="1" fill-rule="nonzero"/><g clip-path="url(#e706988d3b)"><path fill="#231f20" d="M 289.675781 37.488281 C 289.589844 37.488281 289.503906 37.46875 289.425781 37.429688 C 281.082031 33.363281 275.589844 23.832031 275.285156 17.335938 C 275.15625 14.523438 275.992188 12.484375 277.710938 11.4375 C 282.792969 8.34375 288.066406 13.972656 289.652344 15.886719 C 291.195312 13.984375 296.328125 8.445312 301.585938 11.429688 C 303.167969 12.328125 303.960938 14.222656 303.875 16.910156 C 303.667969 23.640625 298.011719 33.492188 289.929688 37.429688 C 289.847656 37.46875 289.761719 37.488281 289.675781 37.488281 Z M 280.84375 11.699219 C 280 11.699219 279.144531 11.910156 278.308594 12.417969 C 276.621094 13.449219 276.355469 15.632812 276.433594 17.28125 C 276.71875 23.414062 282.097656 32.441406 289.679688 36.277344 C 297.253906 32.4375 302.53125 23.199219 302.730469 16.875 C 302.800781 14.671875 302.191406 13.09375 301.015625 12.429688 C 295.753906 9.441406 290.175781 17.074219 290.121094 17.152344 C 290.015625 17.300781 289.84375 17.390625 289.660156 17.390625 C 289.476562 17.398438 289.304688 17.304688 289.191406 17.15625 C 289.144531 17.089844 285.109375 11.699219 280.84375 11.699219 Z M 280.84375 11.699219 " fill-opacity="1" fill-rule="nonzero"/></g><path fill="#ff5757" d="M 334.738281 11.929688 C 328.957031 8.648438 323.09375 16.816406 323.09375 16.816406 C 323.09375 16.816406 317.003906 8.542969 311.445312 11.929688 C 305.769531 15.386719 311.832031 31.414062 323.113281 36.917969 C 334.398438 31.417969 340.039062 14.9375 334.738281 11.929688 Z M 334.738281 11.929688 " fill-opacity="1" fill-rule="nonzero"/><g clip-path="url(#d04d5b6286)"><path fill="#231f20" d="M 323.113281 37.488281 C 323.027344 37.488281 322.941406 37.46875 322.863281 37.429688 C 314.519531 33.363281 309.027344 23.832031 308.722656 17.335938 C 308.59375 14.523438 309.433594 12.484375 311.148438 11.4375 C 316.230469 8.34375 321.507812 13.972656 323.089844 15.886719 C 324.632812 13.984375 329.765625 8.445312 335.023438 11.429688 C 336.605469 12.328125 337.398438 14.222656 337.316406 16.910156 C 337.105469 23.640625 331.449219 33.492188 323.367188 37.429688 C 323.285156 37.46875 323.199219 37.488281 323.113281 37.488281 Z M 314.28125 11.699219 C 313.433594 11.699219 312.582031 11.910156 311.746094 12.417969 C 310.054688 13.449219 309.792969 15.632812 309.871094 17.28125 C 310.15625 23.414062 315.53125 32.441406 323.113281 36.277344 C 330.691406 32.4375 335.96875 23.199219 336.167969 16.875 C 336.234375 14.671875 335.628906 13.09375 334.453125 12.429688 C 329.191406 9.441406 323.613281 17.074219 323.558594 17.152344 C 323.449219 17.300781 323.28125 17.390625 323.09375 17.390625 C 322.914062 17.398438 322.738281 17.304688 322.628906 17.15625 C 322.582031 17.089844 318.546875 11.699219 314.28125 11.699219 Z M 314.28125 11.699219 " fill-opacity="1" fill-rule="nonzero"/></g><path fill="#ff5757" d="M 63.9375 11.929688 C 58.15625 8.648438 52.289062 16.816406 52.289062 16.816406 C 52.289062 16.816406 46.203125 8.542969 40.644531 11.929688 C 34.96875 15.386719 41.03125 31.414062 52.3125 36.917969 C 63.59375 31.417969 69.234375 14.9375 63.9375 11.929688 Z M 63.9375 11.929688 " fill-opacity="1" fill-rule="nonzero"/><g clip-path="url(#0309402762)"><path fill="#231f20" d="M 52.3125 37.488281 C 52.226562 37.488281 52.140625 37.46875 52.0625 37.429688 C 43.71875 33.363281 38.226562 23.835938 37.921875 17.335938 C 37.789062 14.523438 38.628906 12.484375 40.347656 11.4375 C 45.425781 8.34375 50.703125 13.972656 52.285156 15.886719 C 53.832031 13.984375 58.960938 8.445312 64.21875 11.429688 C 65.804688 12.328125 66.597656 14.222656 66.511719 16.910156 C 66.300781 23.640625 60.644531 33.492188 52.5625 37.429688 C 52.484375 37.46875 52.398438 37.488281 52.3125 37.488281 Z M 43.480469 11.699219 C 42.632812 11.699219 41.777344 11.910156 40.945312 12.417969 C 39.253906 13.449219 38.992188 15.632812 39.070312 17.28125 C 39.355469 23.414062 44.730469 32.441406 52.3125 36.277344 C 59.886719 32.4375 65.167969 23.199219 65.363281 16.875 C 65.433594 14.671875 64.824219 13.09375 63.652344 12.429688 C 58.386719 9.441406 52.8125 17.074219 52.757812 17.152344 C 52.648438 17.300781 52.476562 17.390625 52.292969 17.390625 C 52.113281 17.398438 51.9375 17.304688 51.828125 17.15625 C 51.78125 17.089844 47.742188 11.699219 43.476562 11.699219 Z M 43.480469 11.699219 " fill-opacity="1" fill-rule="nonzero"/></g><path fill="#ff5757" d="M 97.882812 11.929688 C 92.101562 8.648438 86.238281 16.816406 86.238281 16.816406 C 86.238281 16.816406 80.148438 8.542969 74.589844 11.929688 C 68.914062 15.386719 74.976562 31.414062 86.257812 36.917969 C 97.542969 31.417969 103.183594 14.9375 97.882812 11.929688 Z M 97.882812 11.929688 " fill-opacity="1" fill-rule="nonzero"/><g clip-path="url(#44aec24e8c)"><path fill="#231f20" d="M 86.257812 37.488281 C 86.171875 37.488281 86.085938 37.46875 86.007812 37.429688 C 77.664062 33.363281 72.171875 23.832031 71.867188 17.335938 C 71.738281 14.523438 72.574219 12.484375 74.292969 11.4375 C 79.375 8.34375 84.648438 13.972656 86.230469 15.886719 C 87.777344 13.984375 92.910156 8.445312 98.164062 11.429688 C 99.75 12.328125 100.542969 14.222656 100.457031 16.910156 C 100.246094 23.640625 94.59375 33.492188 86.507812 37.429688 C 86.429688 37.46875 86.34375 37.488281 86.257812 37.488281 Z M 77.425781 11.699219 C 76.582031 11.699219 75.726562 11.910156 74.890625 12.417969 C 73.199219 13.449219 72.9375 15.632812 73.015625 17.28125 C 73.300781 23.414062 78.679688 32.441406 86.257812 36.277344 C 93.835938 32.4375 99.113281 23.199219 99.3125 16.875 C 99.382812 14.671875 98.773438 13.09375 97.597656 12.429688 C 92.335938 9.441406 86.757812 17.074219 86.703125 17.152344 C 86.59375 17.300781 86.425781 17.390625 86.242188 17.390625 C 86.054688 17.398438 85.882812 17.304688 85.773438 17.15625 C 85.726562 17.089844 81.691406 11.699219 77.425781 11.699219 Z M 77.425781 11.699219 " fill-opacity="1" fill-rule="nonzero"/></g><path fill="#ff5757" d="M 131.320312 11.929688 C 125.539062 8.648438 119.675781 16.816406 119.675781 16.816406 C 119.675781 16.816406 113.585938 8.542969 108.027344 11.929688 C 102.351562 15.386719 108.414062 31.414062 119.695312 36.917969 C 130.976562 31.417969 136.621094 14.9375 131.320312 11.929688 Z M 131.320312 11.929688 " fill-opacity="1" fill-rule="nonzero"/><g clip-path="url(#d31f39ae8f)"><path fill="#231f20" d="M 119.695312 37.488281 C 119.609375 37.488281 119.523438 37.46875 119.445312 37.429688 C 111.101562 33.363281 105.609375 23.832031 105.304688 17.335938 C 105.175781 14.523438 106.011719 12.484375 107.730469 11.4375 C 112.8125 8.34375 118.085938 13.972656 119.667969 15.886719 C 121.214844 13.984375 126.347656 8.445312 131.605469 11.429688 C 133.1875 12.328125 133.980469 14.222656 133.894531 16.910156 C 133.683594 23.640625 128.03125 33.492188 119.945312 37.429688 C 119.867188 37.46875 119.78125 37.488281 119.695312 37.488281 Z M 110.863281 11.699219 C 110.015625 11.699219 109.160156 11.910156 108.328125 12.417969 C 106.636719 13.449219 106.375 15.632812 106.453125 17.28125 C 106.738281 23.414062 112.113281 32.441406 119.695312 36.277344 C 127.273438 32.4375 132.550781 23.199219 132.75 16.875 C 132.816406 14.671875 132.210938 13.09375 131.035156 12.429688 C 125.773438 9.441406 120.195312 17.074219 120.140625 17.152344 C 120.03125 17.300781 119.859375 17.390625 119.675781 17.390625 C 119.496094 17.398438 119.320312 17.304688 119.210938 17.15625 C 119.164062 17.089844 115.128906 11.699219 110.863281 11.699219 Z M 110.863281 11.699219 " fill-opacity="1" fill-rule="nonzero"/></g><path fill="#ff5757" d="M 369.0625 11.929688 C 363.28125 8.648438 357.417969 16.816406 357.417969 16.816406 C 357.417969 16.816406 351.332031 8.542969 345.773438 11.929688 C 340.09375 15.386719 346.160156 31.414062 357.441406 36.917969 C 368.722656 31.417969 374.363281 14.9375 369.0625 11.929688 Z M 369.0625 11.929688 " fill-opacity="1" fill-rule="nonzero"/><g clip-path="url(#d2382e9975)"><path fill="#231f20" d="M 357.441406 37.488281 C 357.355469 37.488281 357.269531 37.46875 357.1875 37.429688 C 348.84375 33.363281 343.351562 23.835938 343.050781 17.335938 C 342.917969 14.523438 343.757812 12.484375 345.472656 11.4375 C 350.554688 8.34375 355.832031 13.972656 357.414062 15.886719 C 358.957031 13.984375 364.089844 8.445312 369.347656 11.429688 C 370.929688 12.328125 371.722656 14.222656 371.640625 16.910156 C 371.429688 23.640625 365.773438 33.492188 357.691406 37.429688 C 357.609375 37.46875 357.523438 37.488281 357.4375 37.488281 Z M 348.605469 11.699219 C 347.761719 11.699219 346.90625 11.910156 346.070312 12.417969 C 344.382812 13.449219 344.117188 15.632812 344.195312 17.28125 C 344.484375 23.414062 349.859375 32.441406 357.441406 36.277344 C 365.015625 32.4375 370.296875 23.199219 370.492188 16.875 C 370.5625 14.671875 369.953125 13.09375 368.78125 12.429688 C 363.515625 9.441406 357.9375 17.074219 357.882812 17.152344 C 357.777344 17.300781 357.605469 17.390625 357.421875 17.390625 C 357.242188 17.398438 357.066406 17.304688 356.957031 17.15625 C 356.90625 17.089844 352.871094 11.699219 348.605469 11.699219 Z M 348.605469 11.699219 " fill-opacity="1" fill-rule="nonzero"/></g><path fill="#ff5757" d="M 29.609375 11.929688 C 23.828125 8.648438 17.964844 16.816406 17.964844 16.816406 C 17.964844 16.816406 11.878906 8.542969 6.320312 11.929688 C 0.640625 15.386719 6.703125 31.414062 17.988281 36.917969 C 29.269531 31.417969 34.910156 14.9375 29.609375 11.929688 Z M 29.609375 11.929688 " fill-opacity="1" fill-rule="nonzero"/><g clip-path="url(#db8555276e)"><path fill="#231f20" d="M 17.988281 37.488281 C 17.902344 37.488281 17.816406 37.46875 17.734375 37.429688 C 9.394531 33.363281 3.902344 23.832031 3.597656 17.335938 C 3.464844 14.523438 4.304688 12.484375 6.019531 11.4375 C 11.101562 8.34375 16.378906 13.972656 17.960938 15.886719 C 19.507812 13.984375 24.636719 8.445312 29.894531 11.429688 C 31.480469 12.328125 32.273438 14.222656 32.1875 16.910156 C 31.976562 23.640625 26.320312 33.492188 18.238281 37.429688 C 18.160156 37.46875 18.070312 37.488281 17.988281 37.488281 Z M 9.152344 11.699219 C 8.308594 11.699219 7.453125 11.910156 6.617188 12.417969 C 4.929688 13.449219 4.664062 15.632812 4.742188 17.28125 C 5.027344 23.414062 10.40625 32.441406 17.988281 36.277344 C 25.5625 32.4375 30.839844 23.199219 31.039062 16.875 C 31.109375 14.671875 30.5 13.09375 29.328125 12.429688 C 24.0625 9.441406 18.484375 17.074219 18.429688 17.152344 C 18.324219 17.300781 18.152344 17.390625 17.96875 17.390625 C 17.785156 17.398438 17.613281 17.304688 17.503906 17.15625 C 17.453125 17.089844 13.417969 11.699219 9.152344 11.699219 Z M 9.152344 11.699219 " fill-opacity="1" fill-rule="nonzero"/></g></svg>