<svg xmlns="http://www.w3.org/2000/svg" xmlns:xlink="http://www.w3.org/1999/xlink" width="500" zoomAndPan="magnify" viewBox="0 0 375 374.999991" height="500" preserveAspectRatio="xMidYMid meet" version="1.0"><defs><g/><clipPath id="d3e3fe88bd"><path d="M 81 91 L 296 91 L 296 284 L 81 284 Z M 81 91 " clip-rule="nonzero"/></clipPath><clipPath id="12cff3451c"><path d="M 52.632812 234.699219 L 255.933594 60.386719 L 324.375 140.207031 L 121.074219 314.519531 Z M 52.632812 234.699219 " clip-rule="nonzero"/></clipPath><clipPath id="3aca464bb8"><path d="M 154.230469 147.585938 C 98.117188 195.695312 67.953125 252.566406 86.851562 274.609375 C 105.753906 296.652344 166.5625 275.519531 222.671875 227.410156 C 278.78125 179.300781 308.945312 122.429688 290.046875 100.386719 C 271.148438 78.34375 210.339844 99.476562 154.230469 147.585938 Z M 154.230469 147.585938 " clip-rule="nonzero"/></clipPath><clipPath id="fb06ff3601"><path d="M 81 91 L 296 91 L 296 284 L 81 284 Z M 81 91 " clip-rule="nonzero"/></clipPath><clipPath id="667913d64e"><path d="M 52.632812 234.699219 L 255.894531 60.417969 L 324.242188 140.128906 L 120.976562 314.410156 Z M 52.632812 234.699219 " clip-rule="nonzero"/></clipPath><clipPath id="208969a8c6"><path d="M 52.636719 234.691406 L 256.597656 59.816406 L 326.25 141.054688 L 122.292969 315.929688 Z M 52.636719 234.691406 " clip-rule="nonzero"/></clipPath><clipPath id="92427de2e6"><path d="M 154.226562 147.585938 C 98.121094 195.695312 67.957031 252.5625 86.855469 274.601562 C 105.753906 296.644531 166.558594 275.511719 222.664062 227.40625 C 278.773438 179.296875 308.9375 122.433594 290.039062 100.390625 C 271.136719 78.351562 210.335938 99.480469 154.226562 147.585938 Z M 154.226562 147.585938 " clip-rule="nonzero"/></clipPath><clipPath id="52d2dbf541"><path d="M 139.707031 253.246094 L 150.207031 253.246094 L 150.207031 263.746094 L 139.707031 263.746094 Z M 139.707031 253.246094 " clip-rule="nonzero"/></clipPath><clipPath id="7834cb2ec2"><path d="M 250 128 L 259 128 L 259 137 L 250 137 Z M 250 128 " clip-rule="nonzero"/></clipPath><clipPath id="758d4645a0"><path d="M 251.289062 127.773438 L 259.203125 130.117188 L 256.859375 138.027344 L 248.949219 135.6875 Z M 251.289062 127.773438 " clip-rule="nonzero"/></clipPath><clipPath id="9726a535f7"><path d="M 251.289062 127.773438 L 259.203125 130.117188 L 256.859375 138.027344 L 248.949219 135.6875 Z M 251.289062 127.773438 " clip-rule="nonzero"/></clipPath><clipPath id="81f7c69b56"><path d="M 95.464844 236.835938 L 105.964844 236.835938 L 105.964844 247.335938 L 95.464844 247.335938 Z M 95.464844 236.835938 " clip-rule="nonzero"/></clipPath><clipPath id="ee51514101"><path d="M 224.996094 114.96875 L 235.496094 114.96875 L 235.496094 125.46875 L 224.996094 125.46875 Z M 224.996094 114.96875 " clip-rule="nonzero"/></clipPath><clipPath id="8a081dfbcd"><path d="M 109.378906 258.421875 L 124.378906 258.421875 L 124.378906 273.421875 L 109.378906 273.421875 Z M 109.378906 258.421875 " clip-rule="nonzero"/></clipPath><clipPath id="5bc8044b97"><path d="M 259.246094 148.203125 L 271.996094 148.203125 L 271.996094 160.953125 L 259.246094 160.953125 Z M 259.246094 148.203125 " clip-rule="nonzero"/></clipPath><clipPath id="0224b78206"><path d="M 158.4375 221.308594 L 179.4375 221.308594 L 179.4375 242.308594 L 158.4375 242.308594 Z M 158.4375 221.308594 " clip-rule="nonzero"/></clipPath><clipPath id="fe45455fd6"><path d="M 255.222656 99.445312 L 276 99.445312 L 276 120.445312 L 255.222656 120.445312 Z M 255.222656 99.445312 " clip-rule="nonzero"/></clipPath><clipPath id="c5be658a84"><path d="M 139.707031 110.785156 L 168.957031 110.785156 L 168.957031 140 L 139.707031 140 Z M 139.707031 110.785156 " clip-rule="nonzero"/></clipPath><clipPath id="804b40ba52"><path d="M 275.925781 123.65625 L 286.425781 123.65625 L 286.425781 134.15625 L 275.925781 134.15625 Z M 275.925781 123.65625 " clip-rule="nonzero"/></clipPath><clipPath id="3b83bac7f2"><path d="M 230.171875 212.9375 L 259.421875 212.9375 L 259.421875 242 L 230.171875 242 Z M 230.171875 212.9375 " clip-rule="nonzero"/></clipPath><clipPath id="cea32ac834"><path d="M 196.167969 120.144531 L 211.167969 120.144531 L 211.167969 135.144531 L 196.167969 135.144531 Z M 196.167969 120.144531 " clip-rule="nonzero"/></clipPath></defs><g fill="#000624" fill-opacity="1"><g transform="translate(20.645848, 213.817041)"><g><path d="M 12.25 4.1875 C 21.703125 4.1875 30.359375 -1.796875 37.625 -12.640625 C 38.125 -4.375 43.59375 1 52.265625 1 C 63.8125 1 74.859375 -8.65625 74.859375 -23.6875 C 74.859375 -29.859375 72.671875 -33.546875 70.078125 -36.140625 C 69.578125 -36.734375 69.390625 -37.921875 70.984375 -38.328125 C 78.546875 -39.71875 83.8125 -46.78125 83.8125 -54.546875 C 83.8125 -65.109375 73.671875 -74.0625 52.0625 -74.0625 C 25.078125 -74.0625 8.359375 -59.328125 8.359375 -42.015625 C 8.359375 -35.234375 12.640625 -29.0625 20.8125 -29.0625 C 30.46875 -29.0625 35.640625 -37.625 33.84375 -42.015625 C 31.65625 -42.015625 30.0625 -44.203125 30.0625 -47.078125 C 30.0625 -56.640625 40.015625 -60.71875 51.5625 -60.71875 C 59.421875 -60.71875 66 -58.234375 66 -52.0625 C 66 -45.890625 61.515625 -42.5 57.34375 -42.5 C 54.15625 -42.5 53.453125 -45.09375 55.34375 -50.46875 C 56.34375 -53.75 55.15625 -55.84375 50.96875 -55.84375 C 47.984375 -55.84375 45.796875 -54.546875 44.5 -51.0625 C 42.8125 -46.78125 40.90625 -41.703125 39.21875 -37.234375 C 34.546875 -25.1875 26.375 -20.203125 19.703125 -20.203125 C 14.53125 -20.203125 9.75 -23.1875 9.75 -27.578125 C 9.75 -28.265625 9.0625 -28.765625 8.265625 -28.765625 C 0.296875 -28.765625 -4.984375 -20.703125 -4.984375 -12.546875 C -4.984375 -4.28125 0.703125 4.1875 12.25 4.1875 Z M 53.15625 -20.609375 C 49.171875 -20.609375 47.484375 -23.984375 47.484375 -27.578125 C 47.484375 -31.453125 49.875 -35.34375 54.25 -35.34375 C 58.734375 -35.4375 60.71875 -32.84375 60.71875 -30.0625 C 60.71875 -25.390625 57.9375 -20.609375 53.15625 -20.609375 Z M 53.15625 -20.609375 "/></g></g></g><g fill="#000624" fill-opacity="1"><g transform="translate(99.78947, 213.817041)"><g><path d="M 20.015625 -53.859375 C 25.1875 -53.859375 29.265625 -55.84375 29.859375 -62.015625 C 30.359375 -68.1875 26.28125 -70.078125 21.203125 -70.078125 C 15.734375 -70.078125 11.25 -67.984375 11.25 -60.921875 C 11.25 -55.640625 15.234375 -53.859375 20.015625 -53.859375 Z M 8.953125 0 C 21.796875 0 28.171875 -19.515625 31.359375 -24.890625 C 32.359375 -26.671875 28.46875 -29.671875 26.875 -27.28125 C 24.890625 -24.296875 23 -22.296875 20.015625 -22.296875 C 17.328125 -22.296875 15.53125 -23.984375 15.53125 -27.28125 C 15.53125 -32.65625 20.015625 -39.21875 20.015625 -45.296875 C 20.015625 -48.484375 18.71875 -49.78125 16.625 -49.78125 C 10.953125 -49.78125 6.875 -41.703125 2.296875 -27.28125 C 0.796875 -22.5 -0.203125 -17.125 -0.203125 -12.4375 C -0.203125 -5.46875 2.296875 0 8.953125 0 Z M 8.953125 0 "/></g></g></g><g fill="#000624" fill-opacity="1"><g transform="translate(124.279197, 213.817041)"><g><path d="M 52.5625 -27.28125 C 49.671875 -23.09375 45.890625 -18.609375 42.90625 -18.609375 C 40.609375 -18.609375 38.828125 -20.40625 40.21875 -25.6875 C 44.296875 -37.734375 48.28125 -42.40625 48.28125 -46.09375 C 48.28125 -48.28125 47.390625 -49.78125 44.796875 -49.78125 C 40.125 -49.78125 39.421875 -45.984375 36.140625 -45.984375 C 33.546875 -45.984375 33.953125 -49.78125 25.984375 -49.78125 C 8.859375 -49.78125 0.296875 -28.875 0.296875 -14.140625 C 0.296875 -6.671875 4.78125 -0.890625 11.640625 -0.890625 C 16.71875 -0.890625 22.390625 -5.171875 25.078125 -12.046875 C 25.984375 -14.03125 27.78125 -14.03125 27.78125 -12.34375 C 27.78125 -3.578125 19.609375 6.265625 10.453125 6.375 C 3.78125 6.265625 -0.296875 2.984375 -0.796875 -1.984375 C -1 -3.984375 -8.0625 0.390625 -8.0625 10.546875 C -8.0625 20.109375 -2.09375 25.984375 8.46875 25.984375 C 19.8125 25.984375 27.171875 18.21875 33.546875 -2.1875 C 34.34375 -0.796875 35.53125 0 37.03125 0 C 46.6875 0 51.265625 -12.640625 57.046875 -24.78125 C 58.140625 -27.078125 53.75 -28.96875 52.5625 -27.28125 Z M 20.703125 -20.609375 C 16.921875 -20.609375 15.53125 -23.09375 15.53125 -25.984375 C 15.53125 -30.359375 18.8125 -35.234375 23.6875 -35.234375 C 27.578125 -35.234375 29.171875 -32.84375 29.171875 -29.96875 C 29.171875 -25.78125 25.6875 -20.609375 20.703125 -20.609375 Z M 20.703125 -20.609375 "/></g></g></g><g fill="#000624" fill-opacity="1"><g transform="translate(174.552812, 213.817041)"><g><path d="M 13.234375 4.1875 C 23.5 4.1875 32.046875 -2.296875 37.625 -12.640625 C 38.125 -4.375 43.109375 1 51.359375 1 C 67.296875 1 81.125 -21.109375 81.125 -42.3125 C 81.125 -59.234375 72.5625 -74.0625 47.1875 -74.0625 C 24.390625 -74.0625 8.359375 -59.625 8.359375 -42.609375 C 8.359375 -35.046875 12.640625 -28.078125 20.8125 -28.078125 C 30.46875 -28.078125 36.640625 -40.609375 33.84375 -41.015625 C 31.65625 -41.015625 30.0625 -43.203125 30.0625 -46.09375 C 30.0625 -56.34375 39.328125 -60.71875 48.671875 -60.71875 C 62.421875 -60.71875 66.296875 -53.25 66.296875 -44.796875 C 66.296875 -33.046875 60.03125 -19.609375 51.359375 -19.609375 C 47.984375 -19.609375 46.59375 -21.609375 46.59375 -24.1875 C 46.59375 -30.15625 53.953125 -44 55.34375 -50.46875 C 56.046875 -53.75 55.15625 -55.84375 50.96875 -55.84375 C 47.984375 -55.84375 45.796875 -54.546875 44.5 -51.0625 C 42.8125 -46.78125 40.90625 -41.703125 39.21875 -37.234375 C 34.546875 -25.28125 26.671875 -20.203125 20.5 -20.203125 C 15.03125 -20.203125 10.75 -23.1875 10.75 -27.578125 C 10.75 -28.265625 10.046875 -28.765625 9.265625 -28.765625 C 1.296875 -28.765625 -3.984375 -20.703125 -3.984375 -12.546875 C -3.984375 -4.28125 1 4.1875 13.234375 4.1875 Z M 13.234375 4.1875 "/></g></g></g><g fill="#000624" fill-opacity="1"><g transform="translate(255.587915, 213.817041)"><g><path d="M 10.546875 0 C 17.625 0 23.59375 -6.46875 27.578125 -14.53125 L 27.96875 -14.53125 C 26.78125 -6.265625 29.671875 0 36.53125 0 C 47.578125 0 53.0625 -15.53125 57.9375 -24.78125 C 58.9375 -26.671875 54.953125 -29.671875 53.453125 -27.28125 C 51.46875 -24.09375 48.984375 -22.203125 45.59375 -22.203125 C 41.21875 -22.203125 40.125 -26.1875 43.5 -33.453125 C 45.6875 -39.21875 48.28125 -42.3125 48.28125 -46.09375 C 48.28125 -48.28125 47.390625 -49.78125 44.796875 -49.78125 C 40.125 -49.78125 39.421875 -45.984375 36.140625 -45.984375 C 33.546875 -45.984375 33.953125 -49.78125 25.984375 -49.78125 C 8.859375 -49.78125 0.296875 -28.875 0.296875 -15.03125 C 0.296875 -6.171875 3.78125 0 10.546875 0 Z M 20.5 -20.609375 C 17.421875 -20.609375 15.53125 -22.59375 15.53125 -25.984375 C 15.53125 -30.359375 18.8125 -35.234375 23.984375 -35.234375 C 27.171875 -35.234375 29.171875 -33.25 29.171875 -29.96875 C 29.171875 -25.78125 25.6875 -20.609375 20.5 -20.609375 Z M 20.5 -20.609375 "/></g></g></g><g fill="#000624" fill-opacity="1"><g transform="translate(306.757496, 213.817041)"><g><path d="M 51.765625 -27.28125 C 48.875 -23.09375 45.09375 -18.609375 42.109375 -18.609375 C 39.8125 -18.609375 37.921875 -20.5 39.515625 -26.078125 C 42.90625 -36.140625 45.984375 -41.21875 45.984375 -45.390625 C 45.984375 -48.578125 44.390625 -49.78125 41.515625 -49.78125 C 36.4375 -49.78125 32.359375 -42.703125 28.265625 -29.671875 C 26.671875 -24.984375 24.1875 -22.296875 19.8125 -22.296875 C 16.53125 -22.296875 15.625 -23.984375 15.625 -26.78125 C 15.625 -32.65625 20.109375 -39.328125 20.109375 -45.796875 C 20.109375 -48.375 19.21875 -49.78125 17.015625 -49.78125 C 11.453125 -49.78125 6.875 -41.8125 2.296875 -27.28125 C 0.296875 -20.8125 0.09375 -14.9375 0.09375 -11.953125 C 0.09375 -4.375 4.578125 -1 9.953125 -1 C 16.421875 -1 21.296875 -5.078125 23.984375 -11.75 C 24.984375 -14.234375 26.984375 -13.734375 26.78125 -11.546875 C 25.6875 -1.890625 18.3125 6.265625 9.5625 6.375 C 3.390625 6.46875 -0.296875 2.984375 -0.796875 -1.984375 C -1 -3.984375 -8.0625 0.390625 -8.0625 10.546875 C -8.0625 20.109375 -2.09375 25.984375 8.46875 25.984375 C 19.515625 25.984375 26.375 18.3125 32.75 -2.1875 C 33.546875 -0.796875 34.734375 0 36.234375 0 C 45.890625 0 50.46875 -12.640625 56.25 -24.78125 C 57.34375 -27.078125 52.953125 -28.96875 51.765625 -27.28125 Z M 51.765625 -27.28125 "/></g></g></g><g clip-path="url(#d3e3fe88bd)"><g clip-path="url(#12cff3451c)"><g clip-path="url(#3aca464bb8)"><path fill="#f5ac0b" d="M 52.632812 234.699219 L 255.933594 60.386719 L 324.375 140.207031 L 121.074219 314.519531 Z M 52.632812 234.699219 " fill-opacity="1" fill-rule="nonzero"/></g></g></g><g clip-path="url(#fb06ff3601)"><g clip-path="url(#667913d64e)"><g clip-path="url(#208969a8c6)"><g clip-path="url(#92427de2e6)"><path stroke-linecap="butt" transform="matrix(0.569365, -0.488184, 0.488184, 0.569365, 52.638553, 234.692841)" fill="none" stroke-linejoin="miter" d="M 178.430342 -0.0000487436 C 79.882901 0.0000746158 -0.00335054 31.382387 -0.00160644 70.092047 C -0.00325252 108.80566 79.884302 140.186302 178.424399 140.186742 C 276.971841 140.186619 356.854702 108.80826 356.856348 70.094647 C 356.854604 31.384987 276.97044 0.000391651 178.430342 -0.0000487436 Z M 178.430342 -0.0000487436 " stroke="#000624" stroke-width="4" stroke-opacity="1" stroke-miterlimit="4"/></g></g></g></g><path stroke-linecap="butt" transform="matrix(0.84849, 0, 0, 0.84849, 18.750003, 124.051192)" fill="none" stroke-linejoin="miter" d="M 14.437416 109.928314 C 25.578537 109.928314 35.775886 102.879944 44.3435 90.104484 C 44.94199 99.84606 51.387267 106.176242 61.584615 106.176242 C 75.220979 106.176242 88.226627 94.800329 88.226627 77.071214 C 88.226627 69.797259 85.648516 65.469716 82.610028 62.403606 C 82.011538 61.717644 81.78135 60.285872 83.641273 59.825495 C 92.581792 58.195761 98.796881 49.858335 98.796881 40.692231 C 98.796881 28.262054 86.822477 17.719423 61.35903 17.719423 C 29.560797 17.719423 9.852062 35.075633 9.852062 55.474933 C 9.852062 63.462473 14.893189 70.741032 24.51967 70.741032 C 35.89098 70.741032 41.995578 60.658777 39.900863 55.474933 C 37.322752 55.474933 35.435207 52.896823 35.435207 49.513053 C 35.435207 38.229214 47.179422 33.418276 60.783559 33.418276 C 70.037135 33.418276 77.79909 36.364688 77.79909 43.643247 C 77.79909 50.917202 72.500152 54.899462 67.574119 54.899462 C 63.822047 54.899462 63.020991 51.865579 65.226196 45.50317 C 66.400158 41.636004 64.996008 39.172987 60.069975 39.172987 C 56.543488 39.172987 53.965377 40.692231 52.450737 44.817208 C 50.443494 49.858335 48.210666 55.843235 46.231045 61.114551 C 40.706522 75.321782 31.080041 81.196191 23.230615 81.196191 C 17.130621 81.196191 11.4864 77.674308 11.4864 72.48586 C 11.4864 71.684804 10.685344 71.086314 9.741572 71.086314 C 0.345279 71.086314 -5.874413 80.593098 -5.874413 90.219579 C -5.874413 99.95655 0.828675 109.928314 14.437416 109.928314 Z M 62.648086 80.708192 C 57.947638 80.708192 55.972621 76.725932 55.972621 72.48586 C 55.972621 67.932733 58.78092 63.351982 63.937141 63.351982 C 69.236079 63.236888 71.584002 66.270772 71.584002 69.567071 C 71.584002 75.096197 68.287703 80.708192 62.648086 80.708192 Z M 116.852863 41.520909 C 122.952857 41.520909 127.763796 39.172987 128.481984 31.899032 C 129.052851 24.620473 124.241912 22.387645 118.252409 22.387645 C 111.807132 22.387645 106.54042 24.850662 106.54042 33.188087 C 106.54042 39.403176 111.236265 41.520909 116.852863 41.520909 Z M 103.847215 105.002281 C 118.970597 105.002281 126.47474 81.997247 130.226812 75.667065 C 131.400773 73.549331 126.820023 70.022844 124.955496 72.858765 C 122.607574 76.385253 120.374746 78.705552 116.852863 78.705552 C 113.699281 78.705552 111.581547 76.725932 111.581547 72.858765 C 111.581547 66.528583 116.852863 58.766628 116.852863 51.607767 C 116.852863 47.851092 115.333619 46.336452 112.870603 46.336452 C 106.195137 46.336452 101.384199 55.843235 95.970166 72.858765 C 94.220734 78.475364 93.046773 84.805546 93.046773 90.334673 C 93.046773 98.557004 95.970166 105.002281 103.847215 105.002281 Z M 184.095514 72.858765 C 180.688725 77.789402 176.218465 83.056114 172.696582 83.056114 C 170.003377 83.056114 167.885643 80.93838 169.547604 74.723292 C 174.358542 60.543683 179.054387 55.014557 179.054387 50.687014 C 179.054387 48.08128 177.99552 46.336452 174.92941 46.336452 C 169.432509 46.336452 168.599227 50.802108 164.732061 50.802108 C 161.670555 50.802108 162.153951 46.336452 152.762262 46.336452 C 132.593149 46.336452 122.483272 70.97122 122.483272 88.32743 C 122.483272 97.152855 127.782211 103.938811 135.861825 103.938811 C 141.846725 103.938811 148.549813 98.897683 151.698791 90.790446 C 152.762262 88.442524 154.879995 88.442524 154.879995 90.449767 C 154.879995 100.789832 145.253514 112.391331 134.457676 112.506425 C 126.60825 112.391331 121.792707 108.524165 121.194217 102.649755 C 120.964029 100.301833 112.626603 105.458054 112.626603 117.432458 C 112.626603 128.688673 119.674973 135.621949 132.10515 135.621949 C 145.483703 135.621949 154.161807 126.483468 161.670555 102.424171 C 162.614327 104.053905 164.018477 105.002281 165.795532 105.002281 C 177.166842 105.002281 182.553251 90.104484 189.36683 75.782159 C 190.655885 73.088954 185.499664 70.856126 184.095514 72.858765 Z M 146.54257 80.708192 C 142.076914 80.708192 140.442576 77.789402 140.442576 74.378009 C 140.442576 69.221788 144.309742 63.462473 150.069057 63.462473 C 154.649807 63.462473 156.514333 66.270772 156.514333 69.682165 C 156.514333 74.608198 152.416979 80.708192 146.54257 80.708192 Z M 196.999879 109.928314 C 209.089376 109.928314 219.171631 102.309076 225.732002 90.104484 C 226.335095 99.84606 232.204901 106.176242 241.946476 106.176242 C 260.706835 106.176242 277.004178 80.137324 277.004178 55.129651 C 277.004178 35.190727 266.921923 17.719423 237.01584 17.719423 C 210.148243 17.719423 191.245167 34.734954 191.245167 54.784368 C 191.245167 63.692661 196.286295 71.914993 205.908172 71.914993 C 217.279482 71.914993 224.55804 57.13229 221.293968 56.648895 C 218.715857 56.648895 216.823708 54.070784 216.823708 50.687014 C 216.823708 38.60212 227.739245 33.418276 238.765272 33.418276 C 254.94752 33.418276 259.532874 42.239097 259.532874 52.206257 C 259.532874 66.040583 252.143825 81.882153 241.946476 81.882153 C 237.936593 81.882153 236.302255 79.534231 236.302255 76.500347 C 236.302255 69.451976 244.98036 53.154634 246.614698 45.50317 C 247.443377 41.636004 246.38451 39.172987 241.458477 39.172987 C 237.936593 39.172987 235.358483 40.692231 233.839239 44.817208 C 231.831996 49.858335 229.599168 55.843235 227.624151 61.114551 C 222.095024 75.211291 212.841448 81.196191 205.567493 81.196191 C 199.08999 81.196191 194.048863 77.674308 194.048863 72.48586 C 194.048863 71.684804 193.247807 71.086314 192.304034 71.086314 C 182.907742 71.086314 176.692653 80.593098 176.692653 90.219579 C 176.692653 99.95655 182.562459 109.928314 196.999879 109.928314 Z M 289.328468 105.002281 C 297.66129 105.002281 304.70966 97.37844 309.405505 87.871656 L 309.865881 87.871656 C 308.461732 97.608628 311.868521 105.002281 319.948136 105.002281 C 332.981406 105.002281 339.426683 86.697695 345.185998 75.782159 C 346.359959 73.549331 341.659511 70.022844 339.914682 72.858765 C 337.56676 76.610837 334.615744 78.848269 330.633484 78.848269 C 325.477262 78.848269 324.188207 74.147821 328.170467 65.58481 C 330.748578 58.766628 333.810084 55.129651 333.810084 50.687014 C 333.810084 48.08128 332.751218 46.336452 329.685107 46.336452 C 324.188207 46.336452 323.354925 50.802108 319.487759 50.802108 C 316.426252 50.802108 316.909648 46.336452 307.517959 46.336452 C 287.348847 46.336452 277.23897 70.97122 277.23897 87.296185 C 277.23897 97.723722 281.363947 105.002281 289.328468 105.002281 Z M 301.072682 80.708192 C 297.431101 80.708192 295.198273 78.36027 295.198273 74.378009 C 295.198273 69.221788 299.065439 63.462473 305.165433 63.462473 C 308.917505 63.462473 311.270031 65.814999 311.270031 69.682165 C 311.270031 74.608198 307.172677 80.708192 301.072682 80.708192 Z M 398.216814 72.858765 C 394.805421 77.789402 390.339765 83.056114 386.8409 83.056114 C 384.120073 83.056114 381.914867 80.823286 383.779394 74.262915 C 387.761654 62.403606 391.398632 56.418706 391.398632 51.492673 C 391.398632 47.740601 389.534105 46.336452 386.127316 46.336452 C 380.137813 46.336452 375.326874 54.669274 370.515935 70.022844 C 368.651409 75.55197 365.704997 78.705552 360.548775 78.705552 C 356.681609 78.705552 355.618139 76.725932 355.618139 73.434237 C 355.618139 66.528583 360.889454 58.651534 360.889454 51.032296 C 360.889454 47.966186 359.85821 46.336452 357.252477 46.336452 C 350.692106 46.336452 345.305696 55.732745 339.891663 72.858765 C 337.543741 80.478003 337.313553 87.41128 337.313553 90.90554 C 337.313553 99.84606 342.584868 103.823716 348.947277 103.823716 C 356.566515 103.823716 362.321226 99.012778 365.474808 91.163351 C 366.648769 88.212335 368.996691 88.815429 368.766503 91.39354 C 367.477448 102.764849 358.799343 112.391331 348.459278 112.506425 C 341.180719 112.621519 336.85778 108.524165 336.254686 102.649755 C 336.024497 100.301833 327.691675 105.458054 327.691675 117.432458 C 327.691675 128.688673 334.735442 135.621949 347.170222 135.621949 C 360.203493 135.621949 368.283107 126.598562 375.814873 102.424171 C 376.731024 104.053905 378.162796 105.002281 379.912228 105.002281 C 391.283538 105.002281 396.69757 90.104484 403.483526 75.782159 C 404.772581 73.088954 399.61636 70.856126 398.216814 72.858765 Z M 398.216814 72.858765 " stroke="#000624" stroke-width="4.253321" stroke-opacity="1" stroke-miterlimit="4"/><g fill="#f5acc8" fill-opacity="1"><g transform="translate(18.750003, 213.142596)"><g><path d="M 12.25 4.1875 C 21.703125 4.1875 30.359375 -1.796875 37.625 -12.640625 C 38.125 -4.375 43.59375 1 52.265625 1 C 63.8125 1 74.859375 -8.65625 74.859375 -23.6875 C 74.859375 -29.859375 72.671875 -33.546875 70.078125 -36.140625 C 69.578125 -36.734375 69.390625 -37.921875 70.984375 -38.328125 C 78.546875 -39.71875 83.8125 -46.78125 83.8125 -54.546875 C 83.8125 -65.109375 73.671875 -74.0625 52.0625 -74.0625 C 25.078125 -74.0625 8.359375 -59.328125 8.359375 -42.015625 C 8.359375 -35.234375 12.640625 -29.0625 20.8125 -29.0625 C 30.46875 -29.0625 35.640625 -37.625 33.84375 -42.015625 C 31.65625 -42.015625 30.0625 -44.203125 30.0625 -47.078125 C 30.0625 -56.640625 40.015625 -60.71875 51.5625 -60.71875 C 59.421875 -60.71875 66 -58.234375 66 -52.0625 C 66 -45.890625 61.515625 -42.5 57.34375 -42.5 C 54.15625 -42.5 53.453125 -45.09375 55.34375 -50.46875 C 56.34375 -53.75 55.15625 -55.84375 50.96875 -55.84375 C 47.984375 -55.84375 45.796875 -54.546875 44.5 -51.0625 C 42.8125 -46.78125 40.90625 -41.703125 39.21875 -37.234375 C 34.546875 -25.1875 26.375 -20.203125 19.703125 -20.203125 C 14.53125 -20.203125 9.75 -23.1875 9.75 -27.578125 C 9.75 -28.265625 9.0625 -28.765625 8.265625 -28.765625 C 0.296875 -28.765625 -4.984375 -20.703125 -4.984375 -12.546875 C -4.984375 -4.28125 0.703125 4.1875 12.25 4.1875 Z M 53.15625 -20.609375 C 49.171875 -20.609375 47.484375 -23.984375 47.484375 -27.578125 C 47.484375 -31.453125 49.875 -35.34375 54.25 -35.34375 C 58.734375 -35.4375 60.71875 -32.84375 60.71875 -30.0625 C 60.71875 -25.390625 57.9375 -20.609375 53.15625 -20.609375 Z M 53.15625 -20.609375 "/></g></g></g><g fill="#f5acc8" fill-opacity="1"><g transform="translate(97.893626, 213.142596)"><g><path d="M 20.015625 -53.859375 C 25.1875 -53.859375 29.265625 -55.84375 29.859375 -62.015625 C 30.359375 -68.1875 26.28125 -70.078125 21.203125 -70.078125 C 15.734375 -70.078125 11.25 -67.984375 11.25 -60.921875 C 11.25 -55.640625 15.234375 -53.859375 20.015625 -53.859375 Z M 8.953125 0 C 21.796875 0 28.171875 -19.515625 31.359375 -24.890625 C 32.359375 -26.671875 28.46875 -29.671875 26.875 -27.28125 C 24.890625 -24.296875 23 -22.296875 20.015625 -22.296875 C 17.328125 -22.296875 15.53125 -23.984375 15.53125 -27.28125 C 15.53125 -32.65625 20.015625 -39.21875 20.015625 -45.296875 C 20.015625 -48.484375 18.71875 -49.78125 16.625 -49.78125 C 10.953125 -49.78125 6.875 -41.703125 2.296875 -27.28125 C 0.796875 -22.5 -0.203125 -17.125 -0.203125 -12.4375 C -0.203125 -5.46875 2.296875 0 8.953125 0 Z M 8.953125 0 "/></g></g></g><g fill="#f5acc8" fill-opacity="1"><g transform="translate(122.383352, 213.142596)"><g><path d="M 52.5625 -27.28125 C 49.671875 -23.09375 45.890625 -18.609375 42.90625 -18.609375 C 40.609375 -18.609375 38.828125 -20.40625 40.21875 -25.6875 C 44.296875 -37.734375 48.28125 -42.40625 48.28125 -46.09375 C 48.28125 -48.28125 47.390625 -49.78125 44.796875 -49.78125 C 40.125 -49.78125 39.421875 -45.984375 36.140625 -45.984375 C 33.546875 -45.984375 33.953125 -49.78125 25.984375 -49.78125 C 8.859375 -49.78125 0.296875 -28.875 0.296875 -14.140625 C 0.296875 -6.671875 4.78125 -0.890625 11.640625 -0.890625 C 16.71875 -0.890625 22.390625 -5.171875 25.078125 -12.046875 C 25.984375 -14.03125 27.78125 -14.03125 27.78125 -12.34375 C 27.78125 -3.578125 19.609375 6.265625 10.453125 6.375 C 3.78125 6.265625 -0.296875 2.984375 -0.796875 -1.984375 C -1 -3.984375 -8.0625 0.390625 -8.0625 10.546875 C -8.0625 20.109375 -2.09375 25.984375 8.46875 25.984375 C 19.8125 25.984375 27.171875 18.21875 33.546875 -2.1875 C 34.34375 -0.796875 35.53125 0 37.03125 0 C 46.6875 0 51.265625 -12.640625 57.046875 -24.78125 C 58.140625 -27.078125 53.75 -28.96875 52.5625 -27.28125 Z M 20.703125 -20.609375 C 16.921875 -20.609375 15.53125 -23.09375 15.53125 -25.984375 C 15.53125 -30.359375 18.8125 -35.234375 23.6875 -35.234375 C 27.578125 -35.234375 29.171875 -32.84375 29.171875 -29.96875 C 29.171875 -25.78125 25.6875 -20.609375 20.703125 -20.609375 Z M 20.703125 -20.609375 "/></g></g></g><g fill="#f5acc8" fill-opacity="1"><g transform="translate(172.656967, 213.142596)"><g><path d="M 13.234375 4.1875 C 23.5 4.1875 32.046875 -2.296875 37.625 -12.640625 C 38.125 -4.375 43.109375 1 51.359375 1 C 67.296875 1 81.125 -21.109375 81.125 -42.3125 C 81.125 -59.234375 72.5625 -74.0625 47.1875 -74.0625 C 24.390625 -74.0625 8.359375 -59.625 8.359375 -42.609375 C 8.359375 -35.046875 12.640625 -28.078125 20.8125 -28.078125 C 30.46875 -28.078125 36.640625 -40.609375 33.84375 -41.015625 C 31.65625 -41.015625 30.0625 -43.203125 30.0625 -46.09375 C 30.0625 -56.34375 39.328125 -60.71875 48.671875 -60.71875 C 62.421875 -60.71875 66.296875 -53.25 66.296875 -44.796875 C 66.296875 -33.046875 60.03125 -19.609375 51.359375 -19.609375 C 47.984375 -19.609375 46.59375 -21.609375 46.59375 -24.1875 C 46.59375 -30.15625 53.953125 -44 55.34375 -50.46875 C 56.046875 -53.75 55.15625 -55.84375 50.96875 -55.84375 C 47.984375 -55.84375 45.796875 -54.546875 44.5 -51.0625 C 42.8125 -46.78125 40.90625 -41.703125 39.21875 -37.234375 C 34.546875 -25.28125 26.671875 -20.203125 20.5 -20.203125 C 15.03125 -20.203125 10.75 -23.1875 10.75 -27.578125 C 10.75 -28.265625 10.046875 -28.765625 9.265625 -28.765625 C 1.296875 -28.765625 -3.984375 -20.703125 -3.984375 -12.546875 C -3.984375 -4.28125 1 4.1875 13.234375 4.1875 Z M 13.234375 4.1875 "/></g></g></g><g fill="#f5acc8" fill-opacity="1"><g transform="translate(253.69207, 213.142596)"><g><path d="M 10.546875 0 C 17.625 0 23.59375 -6.46875 27.578125 -14.53125 L 27.96875 -14.53125 C 26.78125 -6.265625 29.671875 0 36.53125 0 C 47.578125 0 53.0625 -15.53125 57.9375 -24.78125 C 58.9375 -26.671875 54.953125 -29.671875 53.453125 -27.28125 C 51.46875 -24.09375 48.984375 -22.203125 45.59375 -22.203125 C 41.21875 -22.203125 40.125 -26.1875 43.5 -33.453125 C 45.6875 -39.21875 48.28125 -42.3125 48.28125 -46.09375 C 48.28125 -48.28125 47.390625 -49.78125 44.796875 -49.78125 C 40.125 -49.78125 39.421875 -45.984375 36.140625 -45.984375 C 33.546875 -45.984375 33.953125 -49.78125 25.984375 -49.78125 C 8.859375 -49.78125 0.296875 -28.875 0.296875 -15.03125 C 0.296875 -6.171875 3.78125 0 10.546875 0 Z M 20.5 -20.609375 C 17.421875 -20.609375 15.53125 -22.59375 15.53125 -25.984375 C 15.53125 -30.359375 18.8125 -35.234375 23.984375 -35.234375 C 27.171875 -35.234375 29.171875 -33.25 29.171875 -29.96875 C 29.171875 -25.78125 25.6875 -20.609375 20.5 -20.609375 Z M 20.5 -20.609375 "/></g></g></g><g fill="#f5acc8" fill-opacity="1"><g transform="translate(304.861651, 213.142596)"><g><path d="M 51.765625 -27.28125 C 48.875 -23.09375 45.09375 -18.609375 42.109375 -18.609375 C 39.8125 -18.609375 37.921875 -20.5 39.515625 -26.078125 C 42.90625 -36.140625 45.984375 -41.21875 45.984375 -45.390625 C 45.984375 -48.578125 44.390625 -49.78125 41.515625 -49.78125 C 36.4375 -49.78125 32.359375 -42.703125 28.265625 -29.671875 C 26.671875 -24.984375 24.1875 -22.296875 19.8125 -22.296875 C 16.53125 -22.296875 15.625 -23.984375 15.625 -26.78125 C 15.625 -32.65625 20.109375 -39.328125 20.109375 -45.796875 C 20.109375 -48.375 19.21875 -49.78125 17.015625 -49.78125 C 11.453125 -49.78125 6.875 -41.8125 2.296875 -27.28125 C 0.296875 -20.8125 0.09375 -14.9375 0.09375 -11.953125 C 0.09375 -4.375 4.578125 -1 9.953125 -1 C 16.421875 -1 21.296875 -5.078125 23.984375 -11.75 C 24.984375 -14.234375 26.984375 -13.734375 26.78125 -11.546875 C 25.6875 -1.890625 18.3125 6.265625 9.5625 6.375 C 3.390625 6.46875 -0.296875 2.984375 -0.796875 -1.984375 C -1 -3.984375 -8.0625 0.390625 -8.0625 10.546875 C -8.0625 20.109375 -2.09375 25.984375 8.46875 25.984375 C 19.515625 25.984375 26.375 18.3125 32.75 -2.1875 C 33.546875 -0.796875 34.734375 0 36.234375 0 C 45.890625 0 50.46875 -12.640625 56.25 -24.78125 C 57.34375 -27.078125 52.953125 -28.96875 51.765625 -27.28125 Z M 51.765625 -27.28125 "/></g></g></g><g clip-path="url(#52d2dbf541)"><path fill="#000624" d="M 150.054688 258.421875 C 146.175781 259.136719 145.597656 259.714844 144.882812 263.59375 C 144.167969 259.714844 143.589844 259.136719 139.707031 258.421875 C 143.589844 257.707031 144.167969 257.128906 144.882812 253.246094 C 145.597656 257.128906 146.175781 257.707031 150.054688 258.421875 Z M 150.054688 258.421875 " fill-opacity="1" fill-rule="nonzero"/></g><g clip-path="url(#7834cb2ec2)"><g clip-path="url(#758d4645a0)"><g clip-path="url(#9726a535f7)"><path fill="#000624" d="M 258.058594 134.097656 C 254.917969 133.765625 254.339844 134.078125 252.910156 136.894531 C 253.246094 133.753906 252.929688 133.175781 250.113281 131.746094 C 253.257812 132.082031 253.832031 131.765625 255.261719 128.949219 C 254.929688 132.09375 255.242188 132.667969 258.058594 134.097656 Z M 258.058594 134.097656 " fill-opacity="1" fill-rule="nonzero"/></g></g></g><g clip-path="url(#81f7c69b56)"><path fill="#000624" d="M 105.8125 242.007812 C 101.929688 242.722656 101.351562 243.300781 100.636719 247.183594 C 99.925781 243.300781 99.34375 242.722656 95.464844 242.007812 C 99.34375 241.292969 99.925781 240.714844 100.636719 236.835938 C 101.351562 240.714844 101.929688 241.292969 105.8125 242.007812 Z M 105.8125 242.007812 " fill-opacity="1" fill-rule="nonzero"/></g><g clip-path="url(#ee51514101)"><path fill="#000624" d="M 235.34375 120.144531 C 231.464844 120.859375 230.886719 121.4375 230.171875 125.316406 C 229.457031 121.4375 228.878906 120.859375 224.996094 120.144531 C 228.878906 119.429688 229.457031 118.851562 230.171875 114.96875 C 230.886719 118.851562 231.464844 119.429688 235.34375 120.144531 Z M 235.34375 120.144531 " fill-opacity="1" fill-rule="nonzero"/></g><g clip-path="url(#8a081dfbcd)"><path fill="#000624" d="M 124.621094 266.046875 C 118.90625 267.097656 118.050781 267.949219 117 273.667969 C 115.945312 267.949219 115.09375 267.097656 109.378906 266.046875 C 115.09375 264.992188 115.945312 264.140625 117 258.421875 C 118.050781 264.140625 118.90625 264.992188 124.621094 266.046875 Z M 124.621094 266.046875 " fill-opacity="1" fill-rule="nonzero"/></g><g clip-path="url(#5bc8044b97)"><path fill="#000624" d="M 271.898438 154.53125 C 267.152344 155.402344 266.445312 156.113281 265.574219 160.859375 C 264.699219 156.113281 263.992188 155.402344 259.246094 154.53125 C 263.992188 153.65625 264.699219 152.949219 265.574219 148.203125 C 266.445312 152.949219 267.152344 153.65625 271.898438 154.53125 Z M 271.898438 154.53125 " fill-opacity="1" fill-rule="nonzero"/></g><g clip-path="url(#0224b78206)"><path fill="#000624" d="M 179.132812 231.65625 C 171.371094 233.085938 170.214844 234.242188 168.785156 242.003906 C 167.355469 234.242188 166.199219 233.085938 158.4375 231.65625 C 166.199219 230.226562 167.355469 229.070312 168.785156 221.308594 C 170.214844 229.070312 171.371094 230.226562 179.132812 231.65625 Z M 179.132812 231.65625 " fill-opacity="1" fill-rule="nonzero"/></g><g clip-path="url(#fe45455fd6)"><path fill="#000624" d="M 275.917969 109.792969 C 268.15625 111.21875 267 112.378906 265.570312 120.136719 C 264.140625 112.378906 262.984375 111.21875 255.222656 109.792969 C 262.984375 108.363281 264.140625 107.203125 265.570312 99.445312 C 267 107.203125 268.15625 108.363281 275.917969 109.792969 Z M 275.917969 109.792969 " fill-opacity="1" fill-rule="nonzero"/></g><g clip-path="url(#c5be658a84)"><path fill="#000624" d="M 168.769531 125.3125 C 157.871094 127.320312 156.246094 128.945312 154.238281 139.84375 C 152.234375 128.945312 150.605469 127.320312 139.707031 125.3125 C 150.605469 123.308594 152.234375 121.683594 154.238281 110.785156 C 156.246094 121.683594 157.871094 123.308594 168.769531 125.3125 Z M 168.769531 125.3125 " fill-opacity="1" fill-rule="nonzero"/></g><g clip-path="url(#804b40ba52)"><path fill="#000624" d="M 286.273438 128.828125 C 282.390625 129.542969 281.8125 130.125 281.097656 134.003906 C 280.382812 130.125 279.804688 129.542969 275.925781 128.828125 C 279.804688 128.117188 280.382812 127.535156 281.097656 123.65625 C 281.8125 127.535156 282.390625 128.117188 286.273438 128.828125 Z M 286.273438 128.828125 " fill-opacity="1" fill-rule="nonzero"/></g><g clip-path="url(#3b83bac7f2)"><path fill="#000624" d="M 259.234375 227.46875 C 248.335938 229.476562 246.707031 231.101562 244.703125 242 C 242.695312 231.101562 241.070312 229.476562 230.171875 227.46875 C 241.070312 225.460938 242.695312 223.835938 244.703125 212.9375 C 246.707031 223.835938 248.335938 225.460938 259.234375 227.46875 Z M 259.234375 227.46875 " fill-opacity="1" fill-rule="nonzero"/></g><g clip-path="url(#cea32ac834)"><path fill="#000624" d="M 211.414062 127.769531 C 205.695312 128.820312 204.84375 129.671875 203.789062 135.390625 C 202.738281 129.671875 201.882812 128.820312 196.167969 127.769531 C 201.882812 126.714844 202.738281 125.863281 203.789062 120.144531 C 204.84375 125.863281 205.695312 126.714844 211.414062 127.769531 Z M 211.414062 127.769531 " fill-opacity="1" fill-rule="nonzero"/></g><g fill="#fff8dc" fill-opacity="1"><g transform="translate(169.805941, 284.010209)"><g><path d="M 2.03125 -40.734375 L 2.03125 0 L 20.53125 0 C 26.390625 0 31.734375 -4.234375 31.734375 -10.109375 C 31.734375 -23.421875 14.703125 -21.296875 14.703125 -25.859375 C 14.703125 -28.34375 29.28125 -28.140625 29.28125 -36.25 C 29.28125 -39.59375 26.28125 -40.734375 23.171875 -40.734375 Z M 7.9375 -5.703125 L 7.9375 -40.125 L 15.078125 -40.125 C 19.640625 -40.125 23.21875 -39.3125 23.21875 -35.484375 C 23.21875 -26.96875 10.46875 -28.109375 10.46875 -22.859375 C 10.46875 -14.171875 31.125 -18.453125 31.125 -10.46875 C 31.125 -6.921875 27.578125 -5.703125 22.859375 -5.703125 Z M 7.9375 -5.703125 "/></g></g></g><g fill="#fff8dc" fill-opacity="1"><g transform="translate(204.383658, 284.010209)"><g><path d="M 1.625 -13.6875 C 1.625 -3.296875 10.671875 0.40625 20.484375 0.40625 C 23.265625 0.40625 25.34375 0 27.5 -1.015625 L 29.9375 -8.109375 C 27.171875 -5.78125 23.75 -5.5 20.328125 -5.5 C 11.203125 -5.5 2.359375 -7.375 2.359375 -13.359375 C 2.359375 -15.484375 3.953125 -16.734375 7.625 -16.734375 C 12.953125 -16.734375 17.0625 -12.828125 23.09375 -13.03125 C 25.953125 -13.109375 28.515625 -15.03125 28.515625 -18.09375 C 28.515625 -26.1875 7.203125 -23.375 7.203125 -31.125 C 7.203125 -33.96875 9.734375 -35.390625 15.6875 -35.390625 C 20.890625 -35.390625 26.3125 -34.015625 28.671875 -32.296875 L 30.34375 -38.40625 C 27.828125 -40.453125 20.8125 -41.140625 16.625 -41.140625 C 4.890625 -41.140625 2.609375 -35.609375 2.609375 -33.109375 C 2.609375 -27.09375 8.46875 -25.984375 14.21875 -24.609375 C 18.578125 -23.546875 25.546875 -22.28125 25.546875 -19.875 C 25.546875 -18.9375 24.6875 -18.578125 23.75 -18.578125 C 19.953125 -18.578125 16.859375 -21.421875 11.453125 -21.421875 C 5.90625 -21.421875 1.625 -18.859375 1.625 -13.6875 Z M 1.625 -13.6875 "/></g></g></g><g fill="#fff8dc" fill-opacity="1"><g transform="translate(237.658085, 284.010209)"><g><path d="M 14.171875 0.40625 C 22.359375 0.40625 29.9375 -4.484375 29.9375 -12.421875 C 29.9375 -20.078125 23.625 -23.90625 14.453125 -24.5625 C 9.8125 -24.890625 2.359375 -24.4375 2.359375 -29.125 C 2.359375 -33.609375 8.671875 -35.3125 14.625 -35.3125 C 19.84375 -35.3125 25.25 -33.9375 27.625 -32.21875 L 29.28125 -38.40625 C 26.765625 -40.453125 21.296875 -41.140625 17.109375 -41.140625 C 5.375 -41.140625 1.671875 -34.625 1.671875 -29.609375 C 1.671875 -22.9375 5.046875 -19.109375 15.359375 -17.359375 C 21.265625 -16.328125 29.171875 -16.125 29.171875 -11.28125 C 29.171875 -6.15625 21.625 -5.21875 17.1875 -5.21875 C 11.40625 -5.21875 7.625 -7.25 3.265625 -9.9375 L 0.8125 -4.28125 C 3.171875 -1.921875 8.640625 0.40625 14.171875 0.40625 Z M 14.171875 0.40625 "/></g></g></g><g fill="#fff8dc" fill-opacity="1"><g transform="translate(270.44378, 284.010209)"><g><path d="M 1.21875 -34.046875 C 3.90625 -36.78125 9.046875 -39.796875 12.703125 -40.078125 L 12.703125 0 L 18.609375 0 L 18.609375 -40.078125 C 22.28125 -39.796875 27.421875 -36.78125 30.109375 -34.046875 L 30.109375 -40.734375 L 1.21875 -40.734375 Z M 1.21875 -34.046875 "/></g></g></g><g fill="#fff8dc" fill-opacity="1"><g transform="translate(303.799669, 284.010209)"><g><path d="M 2.84375 0 L 8.765625 0 L 8.765625 -40.734375 L 2.84375 -40.734375 Z M 2.84375 0 "/></g></g></g><g fill="#fff8dc" fill-opacity="1"><g transform="translate(317.443396, 284.010209)"><g><path d="M 1.625 -13.6875 C 1.625 -3.296875 10.671875 0.40625 20.484375 0.40625 C 23.265625 0.40625 25.34375 0 27.5 -1.015625 L 29.9375 -8.109375 C 27.171875 -5.78125 23.75 -5.5 20.328125 -5.5 C 11.203125 -5.5 2.359375 -7.375 2.359375 -13.359375 C 2.359375 -15.484375 3.953125 -16.734375 7.625 -16.734375 C 12.953125 -16.734375 17.0625 -12.828125 23.09375 -13.03125 C 25.953125 -13.109375 28.515625 -15.03125 28.515625 -18.09375 C 28.515625 -26.1875 7.203125 -23.375 7.203125 -31.125 C 7.203125 -33.96875 9.734375 -35.390625 15.6875 -35.390625 C 20.890625 -35.390625 26.3125 -34.015625 28.671875 -32.296875 L 30.34375 -38.40625 C 27.828125 -40.453125 20.8125 -41.140625 16.625 -41.140625 C 4.890625 -41.140625 2.609375 -35.609375 2.609375 -33.109375 C 2.609375 -27.09375 8.46875 -25.984375 14.21875 -24.609375 C 18.578125 -23.546875 25.546875 -22.28125 25.546875 -19.875 C 25.546875 -18.9375 24.6875 -18.578125 23.75 -18.578125 C 19.953125 -18.578125 16.859375 -21.421875 11.453125 -21.421875 C 5.90625 -21.421875 1.625 -18.859375 1.625 -13.6875 Z M 1.625 -13.6875 "/></g></g></g><path stroke-linecap="butt" transform="matrix(0.84849, 0, 0, 0.84849, 169.805941, 239.040263)" fill="none" stroke-linejoin="miter" d="M 2.401691 4.998279 L 2.401691 53.001779 L 24.186726 53.001779 C 31.101587 53.001779 37.394939 48.006689 37.394939 41.091828 C 37.394939 25.402183 17.331714 27.897426 17.331714 22.520224 C 17.331714 19.587623 34.51298 19.836226 34.51298 10.283406 C 34.51298 6.347183 30.95887 4.998279 27.317289 4.998279 Z M 9.36259 46.28488 L 9.36259 5.716467 L 17.764468 5.716467 C 23.132463 5.716467 27.363327 6.674051 27.363327 11.185744 C 27.363327 21.217357 12.341228 19.882264 12.341228 26.06973 C 12.341228 36.299305 36.667544 31.262781 36.667544 40.659074 C 36.667544 44.8439 32.496529 46.28488 26.930572 46.28488 Z M 42.675463 36.874776 C 42.675463 49.111594 53.328584 53.480571 64.893252 53.480571 C 68.161928 53.480571 70.611133 53.001779 73.152414 51.804799 L 76.038977 43.448958 C 72.765697 46.178993 68.737399 46.519672 64.704498 46.519672 C 53.945489 46.519672 43.540971 44.314467 43.540971 37.261492 C 43.540971 34.76625 45.405498 33.279232 49.728437 33.279232 C 56.021789 33.279232 60.86035 37.883001 67.963966 37.639001 C 71.324718 37.542322 74.349394 35.291079 74.349394 31.681724 C 74.349394 22.133507 49.249645 25.448221 49.249645 16.332758 C 49.249645 12.967403 52.22368 11.291631 59.230616 11.291631 C 65.372044 11.291631 71.762076 12.921365 74.547356 14.937816 L 76.517769 7.728314 C 73.53913 5.338958 65.279969 4.519487 60.335521 4.519487 C 46.51961 4.519487 43.821801 11.047631 43.821801 13.975628 C 43.821801 21.079244 50.736662 22.377507 57.508807 24.007241 C 62.642009 25.259466 70.845926 26.737276 70.845926 29.573198 C 70.845926 30.673499 69.8377 31.110857 68.737399 31.110857 C 64.271743 31.110857 60.625558 27.759313 54.24013 27.759313 C 47.711986 27.759313 42.675463 30.779386 42.675463 36.874776 Z M 96.668466 53.480571 C 106.32257 53.480571 115.253882 47.716652 115.253882 38.361793 C 115.253882 29.338406 107.814191 24.826712 97.009145 24.053279 C 91.535264 23.666562 82.755876 24.195996 82.755876 18.676077 C 82.755876 13.400157 90.186359 11.38831 97.193296 11.38831 C 103.348535 11.38831 109.733963 13.013441 112.510036 15.029892 L 114.480449 7.728314 C 111.50181 5.338958 105.070345 4.519487 100.125897 4.519487 C 86.309986 4.519487 81.936405 12.19397 81.936405 18.100605 C 81.936405 25.977654 85.923269 30.489348 98.063408 32.551837 C 105.024307 33.758024 114.337732 33.992816 114.337732 39.70149 C 114.337732 45.76005 105.457061 46.860351 100.231784 46.860351 C 93.408998 46.860351 88.943342 44.457183 83.810139 41.294394 L 80.92818 47.960652 C 83.704253 50.736724 90.140322 53.480571 96.668466 53.480571 Z M 120.051009 12.875328 C 123.213799 9.652689 129.258548 6.103183 133.586091 5.771712 L 133.586091 53.001779 L 140.546989 53.001779 L 140.546989 5.771712 C 144.869929 6.103183 150.914677 9.652689 154.08207 12.875328 L 154.08207 4.998279 L 120.051009 4.998279 Z M 161.282365 53.001779 L 168.243264 53.001779 L 168.243264 4.998279 L 161.282365 4.998279 Z M 175.922351 36.874776 C 175.922351 49.111594 186.575473 53.480571 198.140141 53.480571 C 201.408817 53.480571 203.858022 53.001779 206.403906 51.804799 L 209.285865 43.448958 C 206.017189 46.178993 201.984288 46.519672 197.951386 46.519672 C 187.196981 46.519672 176.78786 44.314467 176.78786 37.261492 C 176.78786 34.76625 178.652386 33.279232 182.975325 33.279232 C 189.268678 33.279232 194.111843 37.883001 201.210854 37.639001 C 204.57621 37.542322 207.596282 35.291079 207.596282 31.681724 C 207.596282 22.133507 182.496533 25.448221 182.496533 16.332758 C 182.496533 12.967403 185.475172 11.291631 192.482108 11.291631 C 198.623536 11.291631 205.008964 12.921365 207.798848 14.937816 L 209.764657 7.728314 C 206.790623 5.338958 198.526857 4.519487 193.582409 4.519487 C 179.766498 4.519487 177.068689 11.047631 177.068689 13.975628 C 177.068689 21.079244 183.983551 22.377507 190.760299 24.007241 C 195.888897 25.259466 204.092814 26.737276 204.092814 29.573198 C 204.092814 30.673499 203.084589 31.110857 201.984288 31.110857 C 197.518632 31.110857 193.87705 27.759313 187.487019 27.759313 C 180.963478 27.759313 175.922351 30.779386 175.922351 36.874776 Z M 175.922351 36.874776 " stroke="#000000" stroke-width="1.8" stroke-opacity="1" stroke-miterlimit="4"/></svg>