<svg xmlns="http://www.w3.org/2000/svg" xmlns:xlink="http://www.w3.org/1999/xlink" width="500" zoomAndPan="magnify" viewBox="0 0 375 374.999991" height="500" preserveAspectRatio="xMidYMid meet" version="1.0"><defs><clipPath id="4ab7a50b61"><path d="M 51.136719 0 L 317 0 L 317 375 L 51.136719 375 Z M 51.136719 0 " clip-rule="nonzero"/></clipPath><clipPath id="21aac5c7fe"><path d="M 51.136719 88 L 314 88 L 314 325 L 51.136719 325 Z M 51.136719 88 " clip-rule="nonzero"/></clipPath></defs><g clip-path="url(#4ab7a50b61)"><path fill="#000000" d="M 288.101562 154.800781 L 314.972656 138.867188 L 315.433594 139.085938 C 315.539062 139.132812 315.644531 139.15625 315.753906 139.15625 C 316.035156 139.15625 316.304688 138.996094 316.429688 138.726562 C 316.605469 138.351562 316.445312 137.90625 316.070312 137.730469 L 315.398438 137.414062 L 307.4375 115.125 L 307.722656 114.925781 C 308.058594 114.6875 308.140625 114.222656 307.90625 113.882812 C 307.667969 113.542969 307.199219 113.464844 306.863281 113.699219 L 306.511719 113.945312 L 289.164062 105.816406 L 289.128906 105.386719 C 289.105469 105.074219 288.894531 104.824219 288.609375 104.734375 C 288.363281 104.578125 288.035156 104.578125 287.78125 104.753906 L 287.429688 105 L 270.082031 96.871094 L 270.046875 96.441406 C 270.015625 96.03125 269.660156 95.726562 269.242188 95.757812 C 268.828125 95.792969 268.523438 96.152344 268.554688 96.566406 L 268.574219 96.769531 L 246.1875 104.96875 L 245.515625 104.65625 C 245.140625 104.480469 244.695312 104.640625 244.519531 105.015625 C 244.347656 105.390625 244.507812 105.835938 244.878906 106.011719 L 245.34375 106.226562 L 250.285156 137.070312 C 247.851562 142.261719 247.742188 147.9375 249.527344 152.941406 C 240.390625 150.425781 231.085938 149.46875 221.941406 149.941406 C 210.839844 114.429688 177.691406 88.660156 138.523438 88.660156 C 90.261719 88.660156 51.136719 127.78125 51.136719 176.042969 C 51.136719 224.304688 90.261719 263.429688 138.523438 263.429688 C 140.03125 263.429688 141.53125 263.390625 143.023438 263.316406 C 150.089844 285.871094 166.230469 305.503906 189.320312 316.328125 C 233.019531 336.8125 285.050781 317.992188 305.535156 274.292969 C 323.871094 235.175781 310.695312 189.402344 276.390625 165.535156 C 281.375 163.707031 285.671875 159.988281 288.101562 154.800781 M 139.558594 246.921875 C 139.214844 246.929688 138.867188 246.9375 138.523438 246.9375 C 99.433594 246.9375 67.628906 215.136719 67.628906 176.042969 C 67.628906 136.953125 99.433594 105.152344 138.523438 105.152344 C 169.328125 105.152344 195.605469 124.90625 205.359375 152.410156 C 180.699219 158.539062 158.914062 175.3125 147.289062 200.113281 C 140.183594 215.269531 137.8125 231.425781 139.558594 246.921875 Z M 162.222656 207.113281 C 171.585938 187.136719 189.136719 173.566406 209.015625 168.511719 C 209.277344 170.988281 209.414062 173.5 209.414062 176.042969 C 209.414062 209.125 186.636719 236.984375 155.941406 244.769531 C 154.578125 232.285156 156.511719 219.292969 162.222656 207.113281 Z M 290.601562 267.292969 C 274.007812 302.6875 231.714844 317.984375 196.320312 301.394531 C 178.46875 293.023438 165.734375 278.117188 159.621094 260.859375 C 197.6875 251.417969 225.90625 217.03125 225.90625 176.042969 C 225.90625 172.757812 225.71875 169.519531 225.367188 166.328125 C 235.800781 166.15625 246.429688 168.292969 256.5 173.011719 C 291.894531 189.605469 307.191406 231.898438 290.601562 267.292969 Z M 222.421875 74.898438 L 240.523438 78.28125 L 222.421875 81.667969 L 219.035156 99.773438 L 215.648438 81.667969 L 197.546875 78.28125 L 215.648438 74.894531 L 219.035156 56.792969 Z M 251.425781 39.464844 L 223.136719 34.171875 L 251.425781 28.878906 L 256.71875 0.585938 L 262.011719 28.878906 L 290.300781 34.167969 L 262.011719 39.460938 L 256.71875 67.753906 Z M 94.113281 303.121094 L 76.011719 306.507812 L 72.625 324.609375 L 69.238281 306.507812 L 51.136719 303.121094 L 69.238281 299.734375 L 72.625 281.632812 L 76.011719 299.734375 Z M 122.03125 335.511719 L 150.324219 340.804688 L 122.03125 346.097656 L 116.738281 374.386719 L 111.445312 346.097656 L 83.15625 340.804688 L 111.445312 335.511719 L 116.738281 307.21875 Z M 122.03125 335.511719 " fill-opacity="1" fill-rule="nonzero"/></g><g clip-path="url(#21aac5c7fe)"><path fill="#000000" d="M 276.390625 165.535156 C 281.375 163.703125 285.671875 159.988281 288.101562 154.800781 L 276.296875 149.265625 L 276.242188 149.347656 C 276.097656 149.570312 275.859375 149.691406 275.613281 149.691406 C 275.472656 149.691406 275.332031 149.65625 275.207031 149.574219 C 274.890625 149.371094 274.792969 148.964844 274.945312 148.632812 L 263.445312 143.242188 C 263.320312 143.507812 263.0625 143.675781 262.777344 143.675781 C 262.703125 143.675781 262.625 143.664062 262.550781 143.640625 C 262.15625 143.515625 261.9375 143.097656 262.0625 142.703125 L 262.09375 142.605469 L 259.179688 141.242188 L 250.285156 137.070312 C 247.851562 142.261719 247.742188 147.9375 249.527344 152.941406 C 240.390625 150.425781 231.085938 149.46875 221.941406 149.941406 C 210.839844 114.429688 177.691406 88.660156 138.523438 88.660156 C 90.261719 88.660156 51.136719 127.78125 51.136719 176.042969 C 51.136719 224.304688 90.261719 263.429688 138.523438 263.429688 C 140.03125 263.429688 141.53125 263.390625 143.023438 263.316406 C 150.089844 285.871094 166.230469 305.503906 189.320312 316.328125 C 233.019531 336.8125 285.050781 317.992188 305.535156 274.292969 C 323.871094 235.175781 310.695312 189.402344 276.390625 165.535156 Z M 139.558594 246.921875 C 139.214844 246.929688 138.867188 246.9375 138.523438 246.9375 C 99.433594 246.9375 67.628906 215.136719 67.628906 176.042969 C 67.628906 136.953125 99.433594 105.152344 138.523438 105.152344 C 169.328125 105.152344 195.605469 124.90625 205.359375 152.410156 C 180.699219 158.539062 158.914062 175.3125 147.289062 200.113281 C 140.183594 215.269531 137.8125 231.425781 139.558594 246.921875 Z M 162.222656 207.113281 C 171.585938 187.136719 189.136719 173.566406 209.015625 168.511719 C 209.277344 170.988281 209.414062 173.5 209.414062 176.042969 C 209.414062 209.125 186.636719 236.984375 155.941406 244.769531 C 154.578125 232.285156 156.511719 219.292969 162.222656 207.113281 Z M 290.601562 267.292969 C 274.007812 302.6875 231.714844 317.984375 196.320312 301.394531 C 178.46875 293.023438 165.734375 278.117188 159.621094 260.859375 C 197.6875 251.417969 225.90625 217.03125 225.90625 176.042969 C 225.90625 172.757812 225.71875 169.519531 225.367188 166.328125 C 235.800781 166.15625 246.429688 168.292969 256.5 173.011719 C 291.894531 189.605469 307.191406 231.898438 290.601562 267.292969 Z M 290.601562 267.292969 " fill-opacity="1" fill-rule="nonzero"/></g><path fill="#000000" d="M 316.070312 137.730469 L 315.398438 137.414062 L 291.589844 126.253906 L 307.4375 115.125 L 307.722656 114.925781 C 308.058594 114.6875 308.140625 114.222656 307.902344 113.882812 C 307.667969 113.542969 307.199219 113.464844 306.859375 113.699219 L 306.511719 113.945312 L 290.738281 125.019531 L 289.164062 105.816406 L 289.128906 105.386719 C 289.105469 105.074219 288.894531 104.824219 288.609375 104.734375 C 288.363281 104.578125 288.035156 104.578125 287.78125 104.753906 L 287.429688 105 L 271.660156 116.074219 L 270.082031 96.871094 L 270.046875 96.441406 C 270.015625 96.03125 269.660156 95.726562 269.242188 95.757812 C 268.828125 95.792969 268.523438 96.152344 268.554688 96.566406 L 268.574219 96.769531 L 270.167969 116.210938 L 246.1875 104.96875 L 245.515625 104.65625 C 245.140625 104.480469 244.695312 104.640625 244.519531 105.015625 C 244.347656 105.390625 244.507812 105.835938 244.878906 106.011719 L 245.34375 106.226562 L 269.9375 117.757812 L 262.09375 142.605469 L 262.0625 142.703125 C 261.9375 143.09375 262.15625 143.515625 262.550781 143.640625 C 262.625 143.664062 262.703125 143.675781 262.777344 143.675781 C 263.0625 143.675781 263.320312 143.503906 263.445312 143.242188 C 263.460938 143.210938 263.480469 143.183594 263.492188 143.152344 L 271.304688 118.398438 L 289.011719 126.695312 L 274.980469 148.539062 C 274.964844 148.566406 274.960938 148.601562 274.945312 148.628906 C 274.789062 148.964844 274.890625 149.367188 275.207031 149.574219 C 275.332031 149.652344 275.472656 149.691406 275.613281 149.691406 C 275.859375 149.691406 276.097656 149.570312 276.242188 149.347656 L 276.296875 149.265625 L 290.378906 127.339844 L 314.972656 138.867188 L 315.433594 139.085938 C 315.539062 139.132812 315.644531 139.15625 315.753906 139.15625 C 316.035156 139.15625 316.304688 138.996094 316.429688 138.722656 C 316.605469 138.351562 316.445312 137.90625 316.070312 137.730469 Z M 272.507812 117.308594 L 287.726562 106.621094 L 289.25 125.15625 Z M 272.507812 117.308594 " fill-opacity="1" fill-rule="nonzero"/></svg>