<svg xmlns="http://www.w3.org/2000/svg" xmlns:xlink="http://www.w3.org/1999/xlink" width="500" zoomAndPan="magnify" viewBox="0 0 375 374.999991" height="500" preserveAspectRatio="xMidYMid meet" version="1.0"><path fill="#231f20" d="M 145.839844 76.515625 C 146.058594 78.503906 146.359375 80.476562 146.742188 82.4375 C 147.125 84.402344 147.59375 86.34375 148.140625 88.265625 C 148.6875 90.1875 149.316406 92.085938 150.023438 93.953125 C 150.734375 95.824219 151.519531 97.660156 152.382812 99.460938 C 153.246094 101.265625 154.183594 103.027344 155.199219 104.75 C 156.210938 106.476562 157.292969 108.152344 158.449219 109.785156 C 159.605469 111.414062 160.824219 112.996094 162.113281 114.523438 C 163.402344 116.050781 164.753906 117.523438 166.164062 118.9375 C 167.578125 120.351562 169.046875 121.703125 170.574219 122.992188 C 172.101562 124.28125 173.679688 125.503906 175.3125 126.65625 C 176.941406 127.8125 178.617188 128.898438 180.339844 129.910156 C 182.0625 130.925781 183.824219 131.863281 185.625 132.730469 C 187.425781 133.59375 189.261719 134.378906 191.128906 135.089844 C 192.996094 135.796875 194.890625 136.425781 196.8125 136.976562 C 198.734375 137.523438 200.675781 137.988281 202.636719 138.375 C 204.597656 138.757812 206.570312 139.058594 208.554688 139.277344 C 233.886719 141.800781 259.28125 142.960938 284.738281 142.75 C 259.28125 142.542969 233.886719 143.699219 208.554688 146.226562 C 206.570312 146.445312 204.597656 146.746094 202.636719 147.128906 C 200.675781 147.511719 198.734375 147.980469 196.8125 148.527344 C 194.890625 149.074219 192.996094 149.703125 191.128906 150.414062 C 189.261719 151.121094 187.425781 151.910156 185.625 152.773438 C 183.824219 153.636719 182.0625 154.578125 180.339844 155.589844 C 178.617188 156.605469 176.941406 157.6875 175.3125 158.84375 C 173.679688 160 172.101562 161.222656 170.574219 162.511719 C 169.046875 163.800781 167.578125 165.152344 166.164062 166.566406 C 164.753906 167.980469 163.402344 169.449219 162.113281 170.980469 C 160.824219 172.507812 159.605469 174.085938 158.449219 175.71875 C 157.296875 177.351562 156.210938 179.027344 155.199219 180.75 C 154.1875 182.472656 153.246094 184.238281 152.382812 186.039062 C 151.519531 187.84375 150.734375 189.679688 150.023438 191.546875 C 149.316406 193.417969 148.6875 195.3125 148.140625 197.234375 C 147.59375 199.160156 147.125 201.101562 146.742188 203.0625 C 146.359375 205.023438 146.058594 207 145.839844 208.988281 C 143.316406 234.335938 142.160156 259.75 142.367188 285.226562 C 142.578125 259.75 141.417969 234.335938 138.894531 208.988281 C 138.679688 207 138.378906 205.023438 137.996094 203.0625 C 137.609375 201.101562 137.144531 199.160156 136.597656 197.234375 C 136.046875 195.3125 135.421875 193.417969 134.710938 191.546875 C 134.003906 189.679688 133.21875 187.84375 132.355469 186.039062 C 131.488281 184.238281 130.550781 182.472656 129.539062 180.75 C 128.527344 179.027344 127.441406 177.347656 126.289062 175.71875 C 125.132812 174.085938 123.910156 172.507812 122.625 170.976562 C 121.335938 169.449219 119.984375 167.980469 118.574219 166.566406 C 117.160156 165.152344 115.691406 163.800781 114.164062 162.511719 C 112.636719 161.222656 111.058594 160 109.425781 158.84375 C 107.796875 157.6875 106.121094 156.601562 104.398438 155.589844 C 102.675781 154.574219 100.914062 153.636719 99.113281 152.773438 C 97.3125 151.90625 95.476562 151.121094 93.609375 150.414062 C 91.742188 149.703125 89.847656 149.074219 87.925781 148.527344 C 86.003906 147.976562 84.0625 147.511719 82.101562 147.125 C 80.140625 146.742188 78.167969 146.441406 76.183594 146.226562 C 50.851562 143.699219 25.457031 142.539062 0 142.75 C 25.457031 142.957031 50.851562 141.800781 76.183594 139.273438 C 78.167969 139.058594 80.140625 138.757812 82.101562 138.371094 C 84.0625 137.988281 86.003906 137.523438 87.925781 136.972656 C 89.847656 136.425781 91.742188 135.796875 93.609375 135.085938 C 95.476562 134.378906 97.3125 133.589844 99.113281 132.726562 C 100.914062 131.863281 102.675781 130.921875 104.398438 129.910156 C 106.121094 128.898438 107.796875 127.8125 109.425781 126.65625 C 111.058594 125.5 112.636719 124.277344 114.164062 122.988281 C 115.6875 121.699219 117.160156 120.347656 118.570312 118.933594 C 119.984375 117.523438 121.335938 116.050781 122.621094 114.523438 C 123.910156 112.996094 125.132812 111.414062 126.289062 109.785156 C 127.441406 108.152344 128.527344 106.472656 129.539062 104.75 C 130.550781 103.027344 131.488281 101.265625 132.351562 99.460938 C 133.21875 97.660156 134.003906 95.824219 134.710938 93.953125 C 135.421875 92.085938 136.046875 90.1875 136.597656 88.265625 C 137.144531 86.34375 137.609375 84.402344 137.996094 82.4375 C 138.378906 80.476562 138.679688 78.503906 138.894531 76.515625 C 141.417969 51.164062 142.578125 25.75 142.367188 0.277344 C 142.160156 25.75 143.316406 51.164062 145.839844 76.515625 Z M 145.839844 76.515625 " fill-opacity="1" fill-rule="nonzero"/><path fill="#231f20" d="M 304.789062 181.328125 C 304.898438 182.335938 305.050781 183.335938 305.246094 184.328125 C 305.4375 185.320312 305.675781 186.304688 305.953125 187.277344 C 306.230469 188.25 306.546875 189.210938 306.90625 190.15625 C 307.265625 191.101562 307.664062 192.03125 308.101562 192.941406 C 308.535156 193.855469 309.011719 194.746094 309.523438 195.617188 C 310.035156 196.492188 310.585938 197.339844 311.167969 198.164062 C 311.753906 198.992188 312.371094 199.789062 313.023438 200.5625 C 313.675781 201.335938 314.359375 202.082031 315.074219 202.796875 C 315.789062 203.511719 316.53125 204.195312 317.304688 204.847656 C 318.078125 205.5 318.878906 206.121094 319.703125 206.703125 C 320.527344 207.289062 321.375 207.839844 322.246094 208.351562 C 323.117188 208.863281 324.011719 209.339844 324.921875 209.777344 C 325.832031 210.214844 326.761719 210.613281 327.707031 210.972656 C 328.652344 211.328125 329.609375 211.648438 330.582031 211.925781 C 331.554688 212.203125 332.539062 212.4375 333.53125 212.632812 C 334.523438 212.828125 335.519531 212.980469 336.523438 213.089844 C 349.34375 214.367188 362.195312 214.953125 375.074219 214.847656 C 362.195312 214.742188 349.34375 215.328125 336.523438 216.605469 C 335.519531 216.714844 334.523438 216.867188 333.53125 217.0625 C 332.539062 217.257812 331.554688 217.492188 330.582031 217.769531 C 329.609375 218.046875 328.652344 218.367188 327.707031 218.726562 C 326.761719 219.082031 325.832031 219.480469 324.921875 219.917969 C 324.011719 220.355469 323.117188 220.832031 322.246094 221.34375 C 321.375 221.859375 320.527344 222.40625 319.703125 222.992188 C 318.878906 223.574219 318.078125 224.195312 317.304688 224.847656 C 316.53125 225.5 315.789062 226.183594 315.074219 226.898438 C 314.359375 227.613281 313.675781 228.359375 313.023438 229.132812 C 312.371094 229.90625 311.753906 230.703125 311.167969 231.53125 C 310.585938 232.355469 310.035156 233.203125 309.523438 234.078125 C 309.011719 234.949219 308.535156 235.839844 308.101562 236.753906 C 307.664062 237.664062 307.265625 238.59375 306.90625 239.539062 C 306.546875 240.488281 306.230469 241.445312 305.953125 242.417969 C 305.675781 243.390625 305.4375 244.375 305.246094 245.367188 C 305.050781 246.359375 304.898438 247.359375 304.789062 248.367188 C 303.511719 261.195312 302.925781 274.054688 303.03125 286.945312 C 303.136719 274.054688 302.550781 261.195312 301.273438 248.367188 C 301.164062 247.359375 301.011719 246.359375 300.816406 245.367188 C 300.625 244.375 300.386719 243.390625 300.109375 242.417969 C 299.832031 241.445312 299.515625 240.488281 299.15625 239.539062 C 298.796875 238.59375 298.398438 237.664062 297.964844 236.753906 C 297.527344 235.839844 297.050781 234.949219 296.539062 234.078125 C 296.027344 233.203125 295.476562 232.355469 294.894531 231.53125 C 294.308594 230.703125 293.691406 229.90625 293.039062 229.132812 C 292.386719 228.359375 291.703125 227.613281 290.988281 226.898438 C 290.273438 226.183594 289.53125 225.5 288.757812 224.847656 C 287.984375 224.195312 287.1875 223.574219 286.359375 222.992188 C 285.535156 222.40625 284.6875 221.855469 283.816406 221.34375 C 282.945312 220.832031 282.054688 220.355469 281.140625 219.917969 C 280.230469 219.480469 279.300781 219.082031 278.355469 218.726562 C 277.410156 218.367188 276.453125 218.046875 275.480469 217.769531 C 274.507812 217.492188 273.523438 217.257812 272.53125 217.0625 C 271.539062 216.867188 270.542969 216.714844 269.539062 216.605469 C 256.71875 215.328125 243.867188 214.742188 230.988281 214.847656 C 243.867188 214.953125 256.71875 214.367188 269.539062 213.089844 C 270.542969 212.980469 271.539062 212.828125 272.53125 212.632812 C 273.523438 212.4375 274.507812 212.203125 275.480469 211.925781 C 276.453125 211.648438 277.410156 211.328125 278.355469 210.972656 C 279.300781 210.613281 280.230469 210.214844 281.140625 209.777344 C 282.054688 209.339844 282.945312 208.863281 283.816406 208.351562 C 284.6875 207.839844 285.535156 207.289062 286.359375 206.703125 C 287.1875 206.121094 287.984375 205.5 288.757812 204.847656 C 289.53125 204.195312 290.273438 203.511719 290.988281 202.796875 C 291.703125 202.082031 292.386719 201.335938 293.039062 200.5625 C 293.691406 199.789062 294.308594 198.992188 294.894531 198.164062 C 295.476562 197.339844 296.027344 196.492188 296.539062 195.621094 C 297.050781 194.746094 297.527344 193.855469 297.964844 192.941406 C 298.398438 192.03125 298.796875 191.101562 299.15625 190.15625 C 299.515625 189.210938 299.832031 188.25 300.109375 187.277344 C 300.386719 186.304688 300.625 185.320312 300.816406 184.328125 C 301.011719 183.335938 301.164062 182.335938 301.273438 181.328125 C 302.554688 168.5 303.144531 155.640625 303.039062 142.75 C 302.933594 155.640625 303.515625 168.5 304.789062 181.328125 Z M 304.789062 181.328125 " fill-opacity="1" fill-rule="nonzero"/><path fill="#231f20" d="M 250.632812 39.054688 C 250.769531 40.285156 251.003906 41.492188 251.34375 42.683594 C 251.683594 43.875 252.121094 45.027344 252.65625 46.144531 C 253.1875 47.257812 253.8125 48.324219 254.527344 49.332031 C 255.242188 50.34375 256.039062 51.285156 256.914062 52.160156 C 257.789062 53.035156 258.730469 53.832031 259.738281 54.546875 C 260.746094 55.261719 261.808594 55.886719 262.925781 56.421875 C 264.039062 56.957031 265.191406 57.394531 266.382812 57.734375 C 267.570312 58.074219 268.78125 58.308594 270.011719 58.445312 C 277.835938 59.226562 285.683594 59.582031 293.550781 59.519531 C 285.683594 59.453125 277.835938 59.8125 270.011719 60.589844 C 268.78125 60.726562 267.570312 60.960938 266.382812 61.300781 C 265.191406 61.640625 264.039062 62.078125 262.925781 62.613281 C 261.808594 63.148438 260.746094 63.773438 259.738281 64.488281 C 258.730469 65.207031 257.789062 66 256.914062 66.875 C 256.039062 67.75 255.242188 68.695312 254.527344 69.703125 C 253.8125 70.714844 253.1875 71.777344 252.65625 72.894531 C 252.121094 74.007812 251.683594 75.164062 251.34375 76.351562 C 251.003906 77.542969 250.769531 78.753906 250.632812 79.984375 C 249.855469 87.816406 249.496094 95.667969 249.5625 103.539062 C 249.625 95.667969 249.265625 87.816406 248.488281 79.984375 C 248.351562 78.753906 248.117188 77.542969 247.777344 76.351562 C 247.4375 75.164062 247 74.007812 246.464844 72.894531 C 245.929688 71.777344 245.304688 70.714844 244.589844 69.703125 C 243.875 68.695312 243.082031 67.75 242.207031 66.875 C 241.332031 66 240.390625 65.207031 239.382812 64.488281 C 238.371094 63.773438 237.308594 63.148438 236.195312 62.613281 C 235.078125 62.078125 233.925781 61.640625 232.738281 61.300781 C 231.546875 60.960938 230.339844 60.726562 229.109375 60.589844 C 221.28125 59.8125 213.4375 59.453125 205.570312 59.519531 C 213.4375 59.582031 221.28125 59.226562 229.109375 58.445312 C 230.339844 58.308594 231.546875 58.074219 232.738281 57.734375 C 233.925781 57.394531 235.078125 56.957031 236.191406 56.421875 C 237.308594 55.886719 238.371094 55.257812 239.378906 54.542969 C 240.386719 53.828125 241.328125 53.035156 242.203125 52.160156 C 243.078125 51.28125 243.871094 50.339844 244.585938 49.332031 C 245.300781 48.320312 245.925781 47.257812 246.460938 46.140625 C 246.992188 45.027344 247.429688 43.875 247.769531 42.683594 C 248.109375 41.492188 248.34375 40.285156 248.480469 39.054688 C 249.261719 31.21875 249.625 23.363281 249.5625 15.492188 C 249.496094 23.363281 249.851562 31.21875 250.632812 39.054688 Z M 250.632812 39.054688 " fill-opacity="1" fill-rule="nonzero"/></svg>