<svg xmlns="http://www.w3.org/2000/svg" xmlns:xlink="http://www.w3.org/1999/xlink" width="500" zoomAndPan="magnify" viewBox="0 0 375 374.999991" height="500" preserveAspectRatio="xMidYMid meet" version="1.0"><defs><clipPath id="c44eb4603d"><path d="M 30.046875 38.34375 L 355 38.34375 L 355 363.300781 L 30.046875 363.300781 Z M 30.046875 38.34375 " clip-rule="nonzero"/></clipPath><clipPath id="615ecc1e9c"><path d="M 232.027344 11.636719 L 375 11.636719 L 375 154 L 232.027344 154 Z M 232.027344 11.636719 " clip-rule="nonzero"/></clipPath></defs><g clip-path="url(#c44eb4603d)"><path fill="#100f0d" d="M 192.589844 38.695312 C 188.367188 193.347656 184.9375 196.773438 30.257812 200.996094 C 184.9375 205.222656 188.367188 208.648438 192.589844 363.300781 C 196.8125 208.648438 200.238281 205.222656 354.921875 200.996094 C 200.238281 196.773438 196.8125 193.347656 192.589844 38.695312 " fill-opacity="1" fill-rule="nonzero"/></g><path fill="#100f0d" d="M 46.816406 228.402344 C 45.597656 273.003906 44.609375 273.992188 0 275.207031 C 44.609375 276.425781 45.597656 277.414062 46.816406 322.015625 C 48.035156 277.414062 49.023438 276.425781 93.632812 275.207031 C 49.023438 273.992188 48.035156 273.003906 46.816406 228.402344 " fill-opacity="1" fill-rule="nonzero"/><g clip-path="url(#615ecc1e9c)"><path fill="#100f0d" d="M 303.902344 153.863281 C 305.753906 86.105469 307.253906 84.601562 375.027344 82.753906 C 307.253906 80.902344 305.753906 79.402344 303.902344 11.640625 C 302.050781 79.402344 300.550781 80.902344 232.78125 82.753906 C 300.550781 84.601562 302.050781 86.105469 303.902344 153.863281 " fill-opacity="1" fill-rule="nonzero"/></g></svg>