<svg xmlns="http://www.w3.org/2000/svg" xmlns:xlink="http://www.w3.org/1999/xlink" width="500" zoomAndPan="magnify" viewBox="0 0 375 374.999991" height="500" preserveAspectRatio="xMidYMid meet" version="1.0"><defs><clipPath id="e4f29b9fba"><path d="M 20 38.34375 L 344.953125 38.34375 L 344.953125 363.300781 L 20 363.300781 Z M 20 38.34375 " clip-rule="nonzero"/></clipPath><clipPath id="41489e51f4"><path d="M 0 11.636719 L 142.972656 11.636719 L 142.972656 154 L 0 154 Z M 0 11.636719 " clip-rule="nonzero"/></clipPath></defs><g clip-path="url(#e4f29b9fba)"><path fill="#100f0d" d="M 182.410156 38.695312 C 186.632812 193.347656 190.0625 196.773438 344.742188 200.996094 C 190.0625 205.222656 186.632812 208.648438 182.410156 363.300781 C 178.1875 208.648438 174.761719 205.222656 20.078125 200.996094 C 174.761719 196.773438 178.1875 193.347656 182.410156 38.695312 " fill-opacity="1" fill-rule="nonzero"/></g><path fill="#100f0d" d="M 328.183594 228.402344 C 329.402344 273.003906 330.390625 273.992188 375 275.207031 C 330.390625 276.425781 329.402344 277.414062 328.183594 322.015625 C 326.964844 277.414062 325.976562 276.425781 281.367188 275.207031 C 325.976562 273.992188 326.964844 273.003906 328.183594 228.402344 " fill-opacity="1" fill-rule="nonzero"/><g clip-path="url(#41489e51f4)"><path fill="#100f0d" d="M 71.097656 153.863281 C 69.246094 86.105469 67.746094 84.601562 -0.0273438 82.753906 C 67.746094 80.902344 69.246094 79.402344 71.097656 11.640625 C 72.949219 79.402344 74.449219 80.902344 142.21875 82.753906 C 74.449219 84.601562 72.949219 86.105469 71.097656 153.863281 " fill-opacity="1" fill-rule="nonzero"/></g></svg>