<svg xmlns="http://www.w3.org/2000/svg" xmlns:xlink="http://www.w3.org/1999/xlink" width="500" zoomAndPan="magnify" viewBox="0 0 375 374.999991" height="500" preserveAspectRatio="xMidYMid meet" version="1.0"><defs><clipPath id="338df65174"><path d="M 12 14 L 363 14 L 363 364.660156 L 12 364.660156 Z M 12 14 " clip-rule="nonzero"/></clipPath></defs><g clip-path="url(#338df65174)"><path fill="#000000" d="M 357.398438 185.78125 C 344.371094 205.535156 306.894531 219.824219 241.820312 203.640625 C 302.832031 233.902344 322.585938 269.90625 319.710938 294.074219 C 317.960938 309.0625 307.523438 319.5 292.535156 321.253906 C 291.0625 321.394531 289.523438 321.53125 287.910156 321.53125 C 263.882812 321.53125 230.402344 300.660156 202.03125 243.359375 C 218.214844 308.503906 203.921875 345.980469 184.167969 358.9375 C 178.707031 362.511719 172.820312 364.332031 167.007812 364.332031 C 159.371094 364.332031 151.808594 361.25 145.433594 355.226562 C 127.570312 338.34375 119.164062 298.277344 146.132812 237.195312 C 131.5625 256.878906 116.503906 271.9375 101.023438 282.097656 C 82.25 294.496094 63.757812 298.765625 49.046875 294.144531 C 34.40625 289.519531 25.792969 276.421875 27.121094 260.660156 C 29.082031 236.496094 54.160156 205.671875 116.222656 189.421875 C 92.546875 190.054688 72.09375 187.460938 55.140625 181.578125 C 34.476562 174.433594 20.117188 162.523438 14.792969 148.09375 C 9.261719 133.175781 14.445312 117.972656 28.03125 109.21875 C 47.785156 96.539062 86.101562 97.800781 134.925781 136.328125 C 120.214844 117.761719 110.128906 99.691406 104.734375 82.390625 C 98.222656 61.445312 99.339844 42.601562 107.816406 29.433594 C 116.503906 15.84375 131.773438 10.660156 146.695312 16.195312 C 161.125 21.519531 173.03125 35.878906 180.175781 56.542969 C 186.0625 73.5625 188.722656 94.015625 188.023438 117.625 C 204.273438 55.5625 235.09375 30.484375 259.261719 28.523438 C 274.953125 27.261719 288.121094 35.878906 292.742188 50.449219 C 299.679688 72.441406 287.492188 109.148438 235.585938 147.605469 C 296.804688 120.566406 336.875 128.972656 353.824219 146.832031 C 364.332031 158.320312 365.734375 173.101562 357.398438 185.78125 Z M 357.398438 185.78125 " fill-opacity="1" fill-rule="nonzero"/></g><path fill="#fff8dc" d="M 354.175781 183.679688 C 339.675781 205.671875 292.464844 220.171875 207.003906 188.863281 C 206.023438 188.511719 204.902344 189.003906 204.554688 189.984375 C 204.484375 190.191406 204.414062 190.402344 204.414062 190.613281 C 204.414062 191.382812 204.902344 192.15625 205.675781 192.433594 C 244.621094 206.722656 275.300781 224.9375 294.496094 245.25 C 315.4375 267.386719 316.910156 285.109375 315.859375 293.652344 C 314.320312 306.824219 305.210938 315.929688 292.042969 317.46875 C 283.425781 318.519531 265.777344 317.050781 243.640625 296.105469 C 223.394531 276.984375 205.113281 246.230469 190.824219 207.285156 C 190.472656 206.304688 189.351562 205.742188 188.371094 206.164062 C 187.601562 206.445312 187.113281 207.214844 187.113281 207.984375 C 187.113281 208.195312 187.183594 208.40625 187.25 208.617188 C 218.5625 294.074219 204.0625 341.355469 182.066406 355.785156 C 171 363.070312 157.972656 361.808594 148.09375 352.492188 C 141.789062 346.46875 131.351562 331.96875 132.964844 301.847656 C 134.4375 274.320312 145.992188 241.257812 166.378906 206.164062 C 166.585938 205.882812 166.65625 205.535156 166.65625 205.183594 C 166.65625 204.554688 166.308594 203.851562 165.675781 203.503906 C 164.765625 202.941406 163.574219 203.292969 163.015625 204.203125 C 118.886719 280.203125 74.613281 298.207031 50.167969 290.570312 C 37.140625 286.4375 29.714844 275.160156 30.90625 261.152344 C 33.144531 234.253906 66.140625 198.597656 151.949219 186.480469 C 152.929688 186.339844 153.628906 185.5 153.628906 184.589844 C 153.628906 184.519531 153.628906 184.378906 153.628906 184.308594 C 153.488281 183.257812 152.507812 182.488281 151.457031 182.699219 C 67.398438 194.535156 27.261719 170.859375 18.367188 146.972656 C 13.460938 133.875 18.085938 120.425781 30.0625 112.71875 C 52.058594 98.640625 98.851562 103.332031 158.460938 162.875 C 159.234375 163.644531 160.421875 163.644531 161.195312 162.875 C 161.542969 162.523438 161.753906 162.035156 161.753906 161.542969 C 161.753906 161.054688 161.542969 160.5625 161.195312 160.210938 C 101.582031 100.460938 96.890625 53.601562 110.96875 31.675781 C 118.675781 19.695312 132.125 15.144531 145.222656 19.976562 C 169.109375 28.871094 192.855469 69.011719 180.949219 153.066406 C 180.949219 153.136719 180.949219 153.277344 180.949219 153.347656 C 180.949219 154.328125 181.648438 155.097656 182.628906 155.238281 C 183.679688 155.378906 184.660156 154.679688 184.800781 153.628906 C 196.917969 67.75 232.574219 34.757812 259.472656 32.515625 C 273.550781 31.394531 284.828125 38.75 288.890625 51.777344 C 296.597656 76.226562 278.59375 120.425781 202.59375 164.625 C 201.960938 164.976562 201.613281 165.605469 201.613281 166.308594 C 201.613281 166.65625 201.679688 166.9375 201.890625 167.289062 C 202.453125 168.199219 203.644531 168.546875 204.554688 167.988281 C 239.648438 147.605469 272.710938 135.976562 300.238281 134.574219 C 330.289062 132.964844 344.859375 143.402344 350.882812 149.707031 C 360.199219 159.582031 361.460938 172.609375 354.175781 183.679688 Z M 354.175781 183.679688 " fill-opacity="1" fill-rule="nonzero"/></svg>